{"glyphs":{"0":{"ha":473,"x_min":3,"x_max":402,"o":"m 193 -5 q 151 3 191 -5 q 112 17 112 11 q 36 109 61 47 q 6 253 6 251 q 3 587 3 500 q 47 790 3 650 q 96 901 59 849 q 172 956 140 956 l 182 956 q 277 928 244 951 q 332 852 285 925 q 364 749 353 810 q 387 597 382 661 q 402 383 394 471 l 402 375 q 386 258 402 338 q 345 139 382 217 q 193 -5 252 -5 m 93 256 q 106 192 97 232 q 123 131 117 138 q 188 87 143 87 q 239 139 196 87 q 283 212 266 176 q 315 380 315 314 l 315 383 q 307 492 315 391 l 306 539 l 302 584 q 281 723 284 713 l 278 747 q 249 832 277 785 q 185 866 231 866 l 169 855 q 128 755 138 806 q 90 592 109 719 q 93 256 90 503 z "},"1":{"ha":340,"x_min":11,"x_max":266,"o":"m 193 963 l 195 963 q 236 925 236 958 q 233 854 236 908 q 247 662 241 811 q 244 353 244 481 l 244 347 q 266 27 266 109 q 225 -5 255 -5 l 222 -5 q 176 81 176 -5 q 157 334 176 151 l 157 353 q 160 665 157 479 q 152 822 152 807 l 149 822 q 54 762 76 762 l 52 762 q 11 803 11 767 l 11 806 q 81 879 11 837 q 146 941 112 903 q 193 963 176 963 z "},"2":{"ha":565,"x_min":11,"x_max":488,"o":"m 252 966 q 345 939 277 966 q 445 787 406 904 l 445 719 q 382 507 445 648 q 252 228 276 261 q 190 138 241 193 l 168 106 q 269 119 244 119 l 331 119 q 467 95 385 119 q 488 57 488 79 l 488 52 q 448 11 484 11 l 442 11 q 374 29 390 27 q 342 33 361 32 l 263 33 q 60 -5 208 24 l 46 -5 q 11 35 18 -5 l 11 38 q 54 122 11 56 q 157 236 96 151 q 239 401 196 297 q 290 515 249 416 q 358 727 358 663 l 358 768 q 325 839 340 816 q 244 879 309 861 q 130 800 170 860 l 92 697 q 57 678 79 678 l 54 678 q 14 719 14 683 l 14 730 q 79 876 46 848 q 109 906 79 882 q 252 966 174 966 z "},"3":{"ha":503,"x_min":12,"x_max":437,"o":"m 144 954 q 294 905 206 954 q 364 789 364 852 l 364 737 q 318 634 364 678 q 275 596 309 621 q 410 433 350 557 q 437 279 429 408 l 437 260 q 372 102 437 212 q 237 13 328 39 q 128 2 218 2 l 98 2 q 74 5 89 2 q 55 2 71 2 q 12 48 21 2 l 12 51 q 52 94 12 83 l 55 94 q 134 89 92 89 l 136 89 q 313 176 271 89 q 351 271 351 239 l 351 279 q 321 414 342 402 q 242 515 313 451 q 191 539 204 539 l 106 539 q 66 580 66 544 l 66 583 q 128 634 66 621 q 204 661 142 642 q 245 683 204 667 q 277 732 277 717 l 277 783 q 153 867 277 834 l 79 854 l 77 854 q 36 895 36 859 l 36 897 q 128 951 36 943 q 144 954 128 954 z "},"4":{"ha":544,"x_min":27,"x_max":464,"o":"m 90 939 l 92 939 q 136 876 136 939 l 136 838 q 130 787 130 792 l 130 610 q 122 551 130 587 l 122 507 q 114 448 122 484 l 114 442 q 187 434 146 434 l 260 434 l 260 605 q 266 743 260 618 l 266 882 q 309 939 266 939 l 312 939 q 353 898 353 934 l 353 743 q 347 605 353 730 l 347 429 l 361 426 l 401 426 q 464 382 464 426 l 464 380 q 423 339 459 339 l 361 339 l 347 342 l 347 296 q 361 168 347 258 l 361 54 q 320 14 356 14 l 317 14 q 274 71 274 14 l 274 138 l 260 296 l 260 347 l 187 347 q 35 380 35 358 q 27 418 27 397 l 27 445 q 35 499 27 473 l 35 537 q 43 618 35 545 l 43 787 q 49 838 49 833 l 49 892 q 46 895 49 895 q 90 939 55 939 z "},"5":{"ha":568,"x_min":4,"x_max":503,"o":"m 406 945 q 441 905 434 945 l 441 902 q 400 861 436 861 q 245 848 387 861 q 164 850 218 848 q 91 848 126 848 l 91 829 q 99 764 99 768 l 99 671 q 104 606 104 610 l 104 587 q 180 595 162 595 q 376 528 254 595 q 479 397 459 448 q 503 321 503 370 l 503 283 q 473 183 503 233 q 376 64 469 154 q 205 15 303 15 l 191 15 q 107 37 128 26 q 20 99 20 77 l 20 110 q 61 153 20 142 l 64 153 q 129 126 80 153 q 205 102 172 104 q 387 208 322 102 q 416 278 416 256 l 416 330 q 365 416 416 341 q 316 463 362 416 q 175 509 212 509 q 85 479 115 509 l 69 476 l 64 476 q 18 563 18 476 q 12 666 18 617 l 12 764 q 4 829 4 824 l 4 869 q 77 932 4 932 q 167 937 77 934 q 251 935 217 935 q 406 945 322 945 z "},"6":{"ha":604,"x_min":8,"x_max":524,"o":"m 277 928 l 279 928 q 320 887 320 923 l 320 884 q 239 803 320 852 q 176 694 176 728 q 149 624 163 675 q 100 445 127 600 q 274 510 195 510 l 282 510 q 445 469 402 510 q 524 350 524 412 l 524 269 q 461 103 524 163 q 391 43 456 90 q 309 27 353 27 l 307 27 q 146 60 173 27 q 98 87 138 69 q 30 212 30 165 q 8 361 14 272 q 52 627 8 457 q 87 716 73 663 q 117 779 110 770 q 260 925 141 848 l 277 928 m 109 331 l 98 331 q 130 190 109 209 q 171 149 144 161 q 206 125 180 149 q 298 114 221 114 l 317 114 q 410 176 356 114 q 437 269 437 206 l 437 347 q 388 401 437 365 q 282 423 368 423 l 260 423 q 152 363 170 398 q 109 331 136 331 z "},"7":{"ha":583,"x_min":22,"x_max":507,"o":"m 250 936 q 420 920 335 933 q 458 922 425 920 q 507 879 507 917 l 507 871 q 429 694 450 733 q 312 423 379 628 l 252 307 q 187 157 220 213 l 155 92 q 100 16 132 16 l 92 16 q 52 57 52 21 l 52 60 q 111 203 52 82 q 155 298 138 245 q 214 423 171 341 q 252 526 235 465 q 372 773 299 651 q 393 833 393 827 q 252 849 336 849 q 144 846 202 846 l 62 846 q 22 887 22 851 l 22 890 q 79 933 22 933 l 144 933 q 250 936 201 933 z "},"8":{"ha":583,"x_min":14,"x_max":510,"o":"m 304 968 q 391 930 376 947 q 445 854 418 913 q 453 806 445 848 q 393 583 453 639 q 358 521 374 555 q 464 393 441 425 q 510 274 510 313 l 510 222 q 467 127 510 176 q 382 43 442 77 q 244 -3 343 18 l 201 -3 q 79 33 103 14 q 14 163 14 80 q 43 269 31 269 q 130 382 58 314 q 217 477 207 450 q 233 496 220 477 q 111 553 163 535 q 38 643 54 595 q 24 749 27 648 q 62 857 24 806 q 155 955 81 902 q 304 968 201 968 m 111 754 l 111 749 q 127 656 111 678 q 198 616 127 640 q 288 572 271 572 q 347 670 288 581 q 366 808 366 705 q 331 863 349 863 q 277 882 327 869 q 168 858 178 882 q 114 770 144 835 l 111 754 m 100 157 q 155 95 113 105 q 217 84 197 84 l 231 84 q 369 141 319 100 q 423 231 423 207 l 423 266 q 377 363 423 298 q 309 445 309 439 q 252 374 290 431 q 125 236 132 271 q 100 157 100 198 z "},"9":{"ha":563,"x_min":8,"x_max":483,"o":"m 176 907 q 326 883 277 907 q 431 796 368 883 q 477 707 477 717 q 483 636 483 680 l 483 619 q 480 563 482 593 q 456 411 464 492 q 396 267 435 336 q 331 151 389 239 q 241 34 322 118 q 217 26 231 26 l 214 26 q 174 66 174 31 l 174 69 q 241 167 174 92 q 312 286 254 193 q 361 397 312 293 q 377 476 374 444 q 274 441 323 441 q 114 466 155 442 q 22 574 73 490 q 8 644 8 614 q 38 788 8 758 q 114 886 43 820 q 176 907 130 901 m 95 633 q 144 560 105 596 q 269 528 176 528 q 369 585 307 528 q 393 598 384 598 q 391 658 391 639 l 391 685 q 331 783 372 736 q 259 817 331 791 q 202 821 228 821 q 184 821 193 821 q 122 764 161 821 q 95 655 95 727 l 95 633 z "},"\u0000":{"ha":0,"x_min":0,"x_max":0,"o":""}," ":{"ha":345,"x_min":0,"x_max":0,"o":""},"!":{"ha":211,"x_min":19,"x_max":127,"o":"m 65 963 l 68 963 q 109 930 98 963 q 106 730 106 800 q 111 608 111 616 q 106 393 111 567 l 114 355 l 114 293 q 122 206 114 279 q 81 171 122 178 l 76 171 q 30 255 30 171 q 19 404 27 338 q 24 613 24 563 q 19 732 19 709 l 19 746 q 22 917 19 802 q 65 963 29 963 m 73 111 q 122 76 110 111 q 127 57 127 76 l 127 54 q 81 0 121 0 l 73 0 q 22 57 35 0 q 73 111 32 111 z "},"\"":{"ha":344,"x_min":8,"x_max":236,"o":"m 190 982 l 193 982 q 233 941 233 977 l 233 939 q 231 836 233 901 q 236 754 236 793 l 236 735 q 195 694 231 694 l 193 694 q 149 768 149 694 l 144 841 q 168 977 144 977 q 190 982 178 982 m 60 966 l 62 966 q 103 925 103 961 l 103 898 q 81 732 99 732 q 54 724 64 724 l 52 724 q 8 765 19 724 q 16 898 16 865 l 16 909 q 60 966 16 966 z "},"#":{"ha":814,"x_min":5,"x_max":754,"o":"m 301 970 l 304 970 q 345 929 345 965 q 309 796 345 918 q 282 677 296 705 l 285 677 q 374 680 310 677 l 486 680 q 526 921 521 846 q 567 951 540 951 l 570 951 q 610 910 610 946 q 581 709 610 863 q 575 677 575 684 l 602 677 q 665 671 618 677 q 703 680 695 680 q 754 639 754 674 l 754 633 q 692 590 754 590 q 665 585 692 585 l 651 585 q 610 590 612 590 q 548 587 560 587 q 515 395 532 541 q 507 362 513 395 l 640 368 q 684 365 652 365 l 684 368 q 738 321 738 359 l 738 319 q 697 278 733 278 l 675 278 q 629 281 647 278 l 505 275 l 505 153 q 491 12 505 12 q 458 -4 480 -4 l 456 -4 q 410 42 420 -4 q 418 129 418 59 l 418 275 q 190 262 390 275 q 171 107 171 192 q 149 18 165 18 q 125 9 139 9 l 122 9 q 79 64 79 9 q 98 254 87 201 l 84 251 l 46 251 q 5 292 5 256 l 5 294 q 79 338 5 338 q 117 349 117 338 q 155 536 117 353 q 163 585 155 554 q 160 582 160 585 q 79 579 106 579 l 49 579 q 8 620 8 584 l 8 623 q 65 666 8 666 l 79 666 q 190 677 190 668 q 228 829 215 736 q 279 964 261 964 q 301 970 290 970 m 252 587 q 222 427 231 488 q 209 351 209 399 l 420 362 q 450 566 434 422 q 458 590 454 566 l 456 590 q 393 593 443 590 q 252 587 252 591 z "},"$":{"ha":540,"x_min":7,"x_max":479,"o":"m 268 1047 l 271 1047 q 311 1006 311 1042 l 311 952 l 309 933 q 406 887 368 933 q 436 841 436 865 l 436 838 q 395 798 431 798 l 393 798 q 322 844 369 798 q 306 846 320 844 q 292 637 292 767 l 292 608 q 290 553 292 590 q 374 521 340 547 q 439 469 439 474 q 479 382 463 439 l 479 315 q 382 98 479 209 q 281 43 323 43 q 295 -43 287 -17 l 295 -52 q 254 -92 290 -92 l 252 -92 q 197 22 197 -92 l 197 33 q 83 84 144 33 q 35 133 59 84 q 13 168 35 138 q 7 190 7 189 q 51 236 15 236 l 54 236 q 94 203 83 236 q 119 165 105 197 q 186 122 170 130 l 186 125 q 181 190 186 165 q 189 477 181 252 l 192 483 q 83 526 138 483 q 54 643 54 564 q 51 694 51 680 q 135 873 73 810 q 222 928 187 926 q 238 1034 224 1034 q 268 1047 248 1047 m 138 689 q 140 624 140 651 l 140 618 q 162 572 145 575 q 197 570 178 570 l 203 570 l 205 583 l 205 637 q 216 827 205 753 q 151 732 165 784 l 138 689 m 276 467 l 276 464 q 268 190 271 360 l 276 130 q 349 195 309 142 q 393 298 393 274 l 393 366 q 352 429 385 406 q 276 467 302 467 z "},"%":{"ha":745,"x_min":8,"x_max":651,"o":"m 521 960 l 524 960 q 564 920 564 956 l 564 911 q 526 849 564 892 q 399 616 475 740 q 350 526 390 606 q 241 326 290 439 q 168 163 220 290 q 92 27 140 97 q 65 19 75 19 l 62 19 q 22 60 22 24 l 22 76 q 144 331 68 141 q 228 494 205 454 l 304 624 q 374 743 304 630 q 450 892 387 763 q 521 960 491 960 m 171 903 q 282 800 227 903 q 296 754 296 764 l 296 724 q 239 627 296 691 q 174 597 185 597 l 125 597 q 19 667 86 597 q 8 724 8 706 q 30 811 8 790 q 125 901 85 901 l 133 901 q 157 898 142 901 q 171 903 171 901 m 95 727 l 95 724 q 116 694 95 706 q 146 684 127 684 l 149 684 q 194 706 184 696 q 209 738 205 716 l 209 741 q 144 814 190 814 q 98 754 133 814 q 95 727 95 740 m 483 464 q 578 423 528 464 q 621 372 621 387 q 651 290 651 353 l 651 260 q 618 182 646 218 q 477 127 562 127 l 458 127 q 331 225 380 127 l 323 277 q 363 385 323 323 q 456 453 405 453 q 483 464 482 462 m 410 269 q 450 217 410 244 l 467 214 l 480 214 q 562 258 562 229 q 564 285 564 272 l 564 304 q 505 366 533 353 q 494 372 505 372 q 429 323 447 372 q 410 269 410 296 z "},"&":{"ha":620,"x_min":7,"x_max":536,"o":"m 172 819 q 270 792 245 811 q 313 727 302 764 q 324 648 318 727 l 324 627 q 308 559 319 589 l 237 469 q 194 407 235 452 q 262 331 212 380 q 346 258 288 294 q 359 244 346 254 q 387 361 387 293 q 427 412 392 412 l 433 412 q 473 372 473 408 q 425 182 473 254 q 522 114 458 147 q 536 81 536 98 l 536 76 q 495 35 531 35 l 492 35 q 376 106 456 41 l 373 106 q 308 27 365 81 q 208 3 281 10 l 161 3 q 69 52 119 3 q 15 160 24 100 q 7 209 9 160 l 7 228 q 91 412 7 311 q 47 483 75 442 q 18 553 41 510 q 7 624 7 609 l 7 643 q 28 738 7 688 q 121 806 58 785 q 172 819 121 812 m 94 643 l 94 624 q 126 529 94 589 q 148 491 126 516 q 186 548 151 491 q 237 637 237 599 l 237 646 q 199 727 235 727 q 178 730 189 730 l 170 730 q 99 673 99 708 q 94 643 94 662 m 140 331 q 94 244 112 300 l 94 203 q 137 106 103 142 q 186 90 161 90 l 189 90 q 278 125 262 90 q 311 165 281 125 q 221 241 280 200 q 159 309 197 275 q 140 331 143 331 z "},"'":{"ha":191,"x_min":22,"x_max":114,"o":"m 65 960 l 68 960 q 109 920 109 956 l 109 887 q 114 822 114 826 l 114 741 q 73 700 109 700 l 71 700 q 27 757 27 700 l 27 814 q 22 879 22 875 l 22 903 q 65 960 22 960 z "},"(":{"ha":407,"x_min":3,"x_max":355,"o":"m 190 1051 l 193 1051 q 233 1010 233 1046 l 233 1002 q 198 935 233 996 q 98 614 133 780 q 90 484 90 557 l 90 471 q 138 224 90 357 q 214 107 182 140 q 320 15 264 39 q 355 -37 355 -13 l 355 -39 q 315 -80 351 -80 l 304 -80 q 190 -1 290 -80 q 38 245 63 146 q 3 471 3 388 l 3 484 q 35 723 3 623 q 109 951 35 749 q 138 1008 118 973 q 190 1051 162 1051 z "},")":{"ha":427,"x_min":22,"x_max":334,"o":"m 62 1063 l 65 1063 q 252 884 109 1062 q 312 735 299 828 q 334 507 334 561 l 334 426 q 290 222 323 350 q 220 11 290 163 q 163 -73 201 -37 q 68 -127 88 -127 l 62 -127 q 22 -87 22 -123 l 22 -84 q 79 -24 22 -51 q 141 52 121 -3 q 209 241 176 108 q 247 418 209 256 l 247 507 q 222 754 247 566 q 160 857 197 825 q 30 996 133 897 q 22 1020 22 1006 l 22 1023 q 62 1063 26 1063 z "},"*":{"ha":444,"x_min":27,"x_max":377,"o":"m 190 1004 l 193 1004 q 233 963 233 999 l 233 922 q 285 949 266 949 l 288 949 q 328 909 328 945 l 328 906 q 263 833 328 878 l 263 830 q 342 757 274 830 q 377 711 377 740 l 377 708 q 336 667 372 667 l 331 667 q 250 724 304 667 l 250 722 q 252 675 252 684 q 209 637 240 637 l 206 637 q 163 694 163 637 l 163 743 q 95 684 100 684 q 81 681 90 681 l 79 681 q 35 722 46 681 l 35 724 q 119 825 35 753 q 27 901 33 881 l 27 914 q 68 955 32 955 l 71 955 q 144 914 90 955 l 146 914 l 146 947 q 190 1004 146 1004 z "},"+":{"ha":536,"x_min":-3,"x_max":467,"o":"m 193 600 l 195 600 q 244 537 234 600 q 263 418 263 459 l 263 369 q 345 366 317 366 q 420 372 393 366 q 467 328 467 364 l 467 326 q 380 279 467 279 l 315 279 q 269 282 300 279 l 269 258 q 277 144 269 195 l 277 98 q 236 57 272 57 l 233 57 q 190 130 190 57 q 182 258 182 180 l 182 282 q 122 279 141 279 l 54 279 q -3 323 -3 279 l -3 326 q 38 366 2 366 l 130 366 q 176 369 144 366 l 176 418 q 152 553 176 450 l 152 559 q 193 600 157 600 z "},",":{"ha":205,"x_min":11,"x_max":138,"o":"m 52 94 l 54 94 q 125 34 83 94 q 138 1 138 19 l 138 -61 q 76 -148 123 -148 l 68 -148 q 27 -107 27 -143 l 27 -104 q 46 -69 27 -83 q 52 -45 52 -52 l 52 -15 q 11 50 11 27 l 11 53 q 52 94 16 94 z "},"-":{"ha":489,"x_min":11,"x_max":418,"o":"m 54 437 q 301 418 105 423 l 355 418 q 418 374 418 418 l 418 372 q 377 331 413 331 l 288 331 q 16 374 16 337 q 11 393 12 374 l 11 396 q 52 437 16 437 l 54 437 z "},".":{"ha":203,"x_min":16,"x_max":125,"o":"m 71 117 q 125 68 125 111 l 125 65 q 73 5 116 5 l 62 5 q 16 54 27 5 q 68 117 16 105 l 71 117 z "},"/":{"ha":386,"x_min":5,"x_max":292,"o":"m 249 967 l 252 967 q 292 926 292 962 q 238 723 292 898 q 211 642 232 718 q 170 452 211 629 l 121 199 q 102 96 121 163 q 54 1 102 1 l 48 1 q 5 50 10 1 q 24 153 16 90 q 40 243 34 153 q 127 652 94 512 q 170 799 127 680 q 214 948 208 937 q 249 967 227 967 z "},":":{"ha":221,"x_min":5,"x_max":151,"o":"m 56 600 q 149 556 126 600 l 151 540 l 151 521 q 100 464 151 485 l 56 464 q 5 532 5 478 l 5 537 q 54 600 5 592 l 56 600 m 59 168 q 135 133 135 150 q 143 98 143 125 l 143 73 q 105 27 143 45 l 81 27 q 13 98 37 27 l 10 111 q 59 168 21 168 z "},";":{"ha":256,"x_min":35,"x_max":174,"o":"m 95 618 q 171 570 140 618 q 174 556 174 565 l 174 551 q 119 480 174 502 l 92 480 q 35 559 35 498 q 90 618 43 618 l 95 618 m 103 133 l 106 133 q 149 84 143 133 q 155 62 155 74 l 155 5 q 87 -90 129 -90 l 84 -90 q 43 -49 43 -85 q 65 11 43 -26 l 68 24 l 68 43 q 60 84 60 80 q 103 133 65 133 z "},"<":{"ha":688,"x_min":14,"x_max":551,"o":"m 477 958 l 480 958 q 521 917 521 953 l 521 914 q 434 811 521 883 q 355 724 434 807 q 222 567 296 643 q 117 458 117 465 l 117 456 q 222 388 136 451 q 309 317 264 357 q 442 206 368 279 q 548 98 488 170 l 551 81 l 551 76 q 510 35 546 35 l 507 35 q 423 109 475 35 q 353 171 397 125 q 203 290 297 218 q 27 410 143 342 q 14 461 14 429 q 206 678 14 488 q 288 781 254 731 q 374 871 362 862 q 431 928 374 879 q 477 958 448 958 z "},"=":{"ha":636,"x_min":7,"x_max":563,"o":"m 47 583 l 77 583 q 411 567 347 572 l 500 567 q 563 524 563 567 l 563 521 q 522 480 558 480 l 397 480 q 77 496 294 488 l 64 496 q 7 540 7 496 l 7 543 q 47 583 12 583 m 72 315 l 161 301 l 273 301 q 427 293 361 293 q 522 301 473 301 q 563 258 555 301 l 563 255 q 506 214 563 214 q 430 206 492 214 q 273 214 351 206 l 153 214 q 37 252 37 227 q 31 271 32 252 l 31 274 q 72 315 36 315 z "},">":{"ha":616,"x_min":5,"x_max":529,"o":"m 46 939 l 49 939 q 119 868 81 939 l 171 811 q 358 616 323 665 q 431 537 418 564 q 526 445 450 537 l 529 429 l 529 423 q 464 347 529 395 q 250 171 309 217 q 146 87 230 168 q 92 33 146 81 q 65 19 75 19 l 54 19 q 11 60 22 19 l 11 62 q 46 111 11 85 q 98 165 94 155 q 231 266 176 233 l 423 429 q 361 483 393 464 q 320 532 361 496 q 228 635 286 558 q 62 803 100 748 q 5 895 5 871 l 5 898 q 46 939 10 939 z "},"?":{"ha":538,"x_min":7,"x_max":457,"o":"m 232 952 q 384 882 298 947 q 446 773 437 829 q 457 741 457 756 l 457 697 q 408 570 457 635 q 229 442 351 483 q 142 396 142 425 q 118 298 129 383 l 118 222 q 123 201 123 203 l 123 171 q 83 130 119 130 l 80 130 q 34 203 34 130 q 31 228 31 203 l 31 293 q 50 410 31 317 q 145 510 87 492 l 237 540 q 338 624 296 562 q 370 692 370 667 l 370 722 q 327 814 358 785 q 237 863 307 837 l 232 863 q 140 827 164 853 q 77 749 113 808 q 50 741 60 741 l 47 741 q 7 781 7 745 l 7 798 q 77 890 57 878 q 199 944 142 944 q 232 952 199 947 m 99 98 l 102 98 q 151 54 151 92 l 151 41 q 110 0 146 0 l 104 0 q 53 49 66 0 q 99 98 64 98 z "},"@":{"ha":817,"x_min":9,"x_max":744,"o":"m 408 948 q 543 921 504 948 q 709 769 671 865 q 736 701 736 724 l 736 601 q 711 468 729 490 q 635 378 686 404 q 595 362 604 362 l 551 362 q 462 411 521 363 q 318 300 391 300 l 310 300 q 169 357 231 300 q 142 425 144 389 q 180 590 142 536 q 253 671 180 614 q 294 682 256 671 q 494 647 494 669 q 503 623 503 637 l 503 536 q 578 449 524 449 q 635 508 620 473 q 649 605 648 541 l 649 685 q 570 804 624 772 q 492 849 550 824 q 402 861 448 860 q 291 826 338 861 q 237 788 285 826 q 153 696 202 760 q 104 560 112 626 q 96 471 98 522 l 96 408 q 131 275 96 377 q 215 175 147 234 l 307 126 q 375 115 365 115 l 429 115 q 527 140 475 123 l 633 205 q 673 248 641 205 q 701 256 691 256 l 703 256 q 744 216 744 252 l 744 208 q 673 126 722 152 q 649 110 667 126 q 587 72 624 98 q 524 47 570 60 q 429 28 524 40 l 378 28 q 239 58 314 28 q 153 110 239 62 q 47 248 69 191 q 9 408 9 363 l 9 471 q 58 701 32 655 q 182 859 77 761 q 239 902 205 880 q 313 937 260 913 q 408 948 362 948 m 229 422 q 282 388 269 389 q 304 387 296 387 l 315 387 q 399 481 357 397 q 413 585 408 501 l 362 593 l 307 595 q 261 560 283 589 q 229 422 229 508 z "},"A":{"ha":488,"x_min":0,"x_max":404,"o":"m 136 968 l 141 968 q 217 947 193 968 q 277 890 255 930 q 342 741 323 848 q 396 488 372 671 l 396 345 q 391 271 391 279 l 391 266 q 399 144 399 203 q 404 127 404 135 l 404 54 q 363 14 399 14 l 361 14 q 317 60 324 14 l 317 87 l 304 266 l 304 271 q 309 345 309 337 l 309 486 l 247 486 q 100 477 134 477 q 111 404 111 414 l 111 260 q 117 239 117 241 l 117 43 q 76 3 112 3 l 73 3 q 30 60 30 3 l 30 198 q 24 263 24 259 l 24 399 l 0 586 l 0 635 q 14 749 0 648 l 14 781 q 71 941 14 856 q 136 968 100 968 m 100 787 l 100 757 l 87 635 l 87 578 l 90 564 q 247 572 189 567 l 296 572 q 255 730 296 602 q 212 830 241 808 q 149 882 188 871 l 141 882 q 103 803 116 861 l 100 787 z "},"B":{"ha":454,"x_min":5,"x_max":387,"o":"m 157 968 q 233 928 199 968 q 303 852 256 922 q 341 754 341 796 l 341 640 q 287 518 323 557 l 254 483 l 254 480 q 374 361 334 436 q 387 296 387 336 l 387 228 q 363 127 377 127 q 281 19 349 68 q 146 -22 196 -22 l 124 -22 q 59 38 59 -22 q 32 464 43 328 l 32 510 q 13 646 32 536 q 5 879 7 746 q 78 958 5 919 q 157 968 132 968 m 92 863 q 94 822 94 836 q 113 567 94 654 q 119 510 119 533 l 119 507 q 205 559 170 526 q 252 643 243 593 q 254 656 254 648 l 254 754 q 197 846 254 777 q 151 882 174 862 q 92 863 119 882 m 143 404 l 124 404 l 124 399 l 135 233 l 135 201 q 146 65 140 161 q 254 114 254 94 q 290 176 267 117 q 300 228 296 176 l 300 301 q 211 407 300 340 q 176 412 186 412 q 143 404 169 412 z "},"C":{"ha":439,"x_min":14,"x_max":363,"o":"m 176 968 q 255 944 215 968 q 326 844 321 867 q 339 692 335 844 q 298 656 339 663 l 296 656 q 252 730 252 656 q 228 836 248 836 q 182 879 203 879 q 127 760 127 863 q 117 597 123 760 l 117 521 q 111 469 111 475 l 111 453 q 103 353 111 387 q 100 195 103 317 q 144 87 100 159 q 187 71 161 75 l 233 71 q 274 195 274 100 q 320 231 293 231 l 323 231 q 363 190 363 226 l 363 182 q 353 95 358 165 q 239 -16 305 -16 l 160 -16 q 73 38 73 13 q 14 195 14 122 q 16 372 16 314 q 24 420 24 411 l 24 469 q 30 521 30 515 l 30 597 q 49 846 35 765 q 109 939 73 914 q 176 968 109 954 z "},"D":{"ha":507,"x_min":-3,"x_max":434,"o":"m 79 979 q 138 958 88 979 q 236 917 205 946 q 298 860 258 917 q 366 762 338 823 q 399 694 366 758 q 431 553 418 624 q 434 429 434 467 l 426 363 l 426 336 l 399 247 q 328 109 370 168 q 225 14 267 35 q 130 -24 157 -22 q 111 -30 130 -30 l 68 -30 q 5 14 5 -18 l 5 22 q 14 43 5 42 q 16 152 16 112 l 16 377 q 11 442 16 381 l 11 610 q 0 770 11 691 l 0 865 q -3 930 0 892 q 46 977 -3 966 q 79 979 60 977 m 87 882 l 87 770 q 98 608 98 704 l 98 442 q 103 399 103 403 l 103 127 q 100 60 103 104 q 236 138 193 82 q 309 260 287 193 q 331 331 313 261 q 347 437 338 331 l 347 442 q 307 686 347 589 q 274 754 291 708 q 171 854 209 841 q 87 882 161 863 z "},"E":{"ha":437,"x_min":-5,"x_max":380,"o":"m 60 971 l 79 971 q 165 966 159 966 l 250 966 q 312 922 312 966 l 312 920 q 271 879 307 879 l 149 879 q 81 884 139 879 l 81 882 q 84 817 84 844 l 84 792 q 90 749 90 753 l 90 621 q 100 548 100 556 q 109 526 103 526 l 127 526 q 307 510 307 522 q 323 477 323 499 l 323 475 q 282 434 318 434 l 244 434 q 136 439 147 439 l 109 439 q 114 269 114 345 l 114 252 q 103 114 103 151 q 98 95 98 114 l 98 71 l 157 76 q 372 43 372 60 q 380 16 380 26 l 380 14 q 339 -27 375 -27 l 298 -27 l 163 -11 q 81 -16 151 -14 q 11 46 11 -16 l 11 92 q 19 152 11 115 l 19 171 q 27 258 19 182 l 27 279 q 3 616 27 473 l 3 724 q -5 901 -3 768 q 38 968 5 968 q 60 971 49 971 z "},"F":{"ha":477,"x_min":0,"x_max":404,"o":"m 307 970 l 363 970 q 404 929 404 965 l 404 926 q 342 883 404 883 l 334 883 q 90 872 281 883 l 90 853 q 87 804 90 810 q 90 736 90 764 l 90 598 l 106 598 q 298 609 200 609 q 353 566 353 609 l 353 560 q 307 517 353 524 l 301 517 q 279 522 290 517 q 109 511 218 522 l 92 511 q 95 457 95 475 l 95 408 q 106 243 95 264 q 109 140 109 163 q 114 115 114 122 l 114 102 q 117 9 114 66 q 76 -23 106 -23 l 73 -23 q 27 58 27 -23 l 27 94 q 16 254 22 137 q 3 628 9 254 l 3 709 q 0 796 3 754 q 3 869 3 812 l 3 899 q 35 954 7 954 q 307 970 35 959 z "},"G":{"ha":509,"x_min":6,"x_max":427,"o":"m 199 966 l 204 966 q 323 933 269 966 q 380 846 380 878 q 402 779 402 793 l 402 773 q 361 732 397 732 l 359 732 q 296 830 315 732 q 255 874 271 871 q 215 879 239 877 l 199 879 q 137 853 151 865 q 109 789 122 841 q 112 624 109 743 l 104 572 q 93 366 104 528 q 117 141 93 150 q 163 98 138 98 q 204 92 165 98 l 250 92 q 323 157 323 123 q 340 252 340 183 l 326 372 l 326 396 q 267 399 286 399 l 256 399 q 212 439 223 399 l 212 442 q 258 488 224 488 l 275 486 q 394 461 394 482 q 421 277 413 461 q 427 247 427 277 q 402 117 427 163 q 337 35 402 87 q 231 5 286 5 l 177 5 l 109 19 q 52 81 73 37 q 12 198 12 134 q 9 212 9 198 q 6 374 6 351 q 25 629 17 584 q 22 773 22 713 l 22 787 q 71 906 22 848 q 199 966 118 966 z "},"H":{"ha":568,"x_min":3,"x_max":491,"o":"m 43 958 l 46 958 q 92 914 79 958 q 109 770 100 914 q 125 529 115 770 l 125 521 l 138 524 l 184 524 q 339 532 258 532 l 385 532 l 385 534 q 380 909 385 587 q 423 958 385 958 l 426 958 q 467 917 467 953 q 472 589 467 834 q 469 445 472 545 q 486 79 472 91 q 491 33 491 57 l 491 30 q 450 -11 486 -11 l 448 -11 q 404 35 410 -11 q 385 293 385 104 q 382 442 385 334 l 369 445 l 339 445 q 184 437 258 445 l 133 437 q 127 431 127 436 l 127 282 q 122 217 127 241 q 125 100 125 144 l 125 38 q 84 -3 120 -3 l 81 -3 q 38 54 38 -3 l 38 100 q 35 214 38 152 q 41 290 41 250 q 14 873 41 646 l 3 906 l 3 917 q 43 958 7 958 z "},"I":{"ha":373,"x_min":-1,"x_max":295,"o":"m 132 966 q 176 964 160 964 l 224 964 q 287 920 287 964 l 287 918 q 246 877 282 877 l 192 877 l 192 793 q 203 641 192 700 q 189 199 189 224 q 200 79 190 143 l 233 79 q 295 36 295 79 l 295 33 q 254 -7 290 -7 l 64 -7 q 24 33 24 -3 l 24 36 q 81 79 24 79 l 111 79 q 102 207 105 113 q 116 646 116 640 q 105 793 105 692 l 105 877 q 35 871 75 871 q -1 912 6 871 l -1 915 q 86 961 -1 961 q 132 966 130 964 z "},"J":{"ha":604,"x_min":1,"x_max":566,"o":"m 487 966 q 566 925 566 964 l 566 922 q 528 879 566 890 l 509 879 q 354 876 456 879 q 368 507 368 772 l 378 345 q 376 168 376 214 q 332 57 376 121 q 221 -8 289 -8 l 189 -8 q 91 41 146 -8 q 28 133 68 60 q 1 260 1 231 l 1 307 q 45 363 1 363 l 47 363 q 88 323 88 359 l 88 255 q 151 106 109 143 q 194 79 166 90 l 218 79 q 289 168 260 79 l 289 176 q 292 353 289 220 l 281 513 q 267 876 281 770 l 227 876 q 47 871 194 876 q 12 911 19 871 l 12 914 q 53 958 12 947 q 227 963 186 963 l 311 963 q 487 966 368 963 z "},"K":{"ha":514,"x_min":6,"x_max":440,"o":"m 329 985 l 332 985 q 372 944 372 980 l 372 941 q 345 882 372 923 q 321 806 329 844 q 294 743 299 770 q 191 583 219 636 q 153 526 191 574 q 250 410 227 463 q 383 163 287 368 q 437 38 408 128 q 440 27 440 38 l 440 22 q 399 -19 435 -19 l 394 -19 q 340 52 355 -19 q 291 149 328 87 q 210 315 291 157 q 125 431 175 378 q 147 60 147 252 l 144 54 q 147 43 147 50 l 147 8 q 106 -33 142 -33 l 104 -33 q 60 5 72 -33 q 58 27 60 12 q 60 103 58 42 q 17 659 60 248 l 17 700 q 6 789 6 736 l 6 917 q 50 974 6 974 l 52 974 q 93 933 93 969 l 93 773 q 104 678 104 707 l 104 656 q 109 621 104 646 l 193 751 q 220 806 216 777 q 264 920 238 831 q 307 979 297 975 q 329 985 317 985 z "},"L":{"ha":540,"x_min":3,"x_max":469,"o":"m 46 974 l 49 974 q 90 933 90 969 q 98 852 92 933 q 90 705 98 789 l 90 651 q 95 621 90 648 l 95 556 q 111 410 95 519 q 117 347 111 392 q 122 68 117 178 l 179 68 q 339 87 322 87 l 372 87 q 429 95 409 95 q 469 52 462 95 l 469 49 q 401 5 469 5 q 298 -3 401 1 q 179 -19 196 -19 l 103 -19 q 38 41 38 -19 q 30 334 32 41 q 14 491 30 351 q 8 551 8 514 l 8 600 q 3 665 8 604 l 3 713 q 11 852 11 798 q 3 930 6 930 q 46 974 12 974 z "},"M":{"ha":680,"x_min":8,"x_max":597,"o":"m 439 982 q 496 911 486 982 q 562 505 540 744 q 591 225 591 318 l 591 100 q 597 35 591 86 q 556 0 597 7 l 551 0 q 505 87 505 0 l 505 225 q 472 524 505 317 q 431 814 453 722 l 429 814 q 404 732 424 783 q 374 564 382 678 q 331 312 339 376 q 293 290 315 290 l 290 290 q 247 326 260 290 q 220 515 231 457 q 176 708 203 557 q 127 817 146 806 q 114 751 125 790 l 114 730 q 95 502 114 607 l 95 347 l 106 54 l 106 41 q 65 0 101 0 l 62 0 q 19 60 19 0 l 8 347 l 8 502 q 27 746 27 614 q 65 914 27 770 q 122 979 90 979 l 127 979 q 171 917 171 979 q 271 665 260 789 q 288 583 273 663 l 290 583 q 339 814 290 683 q 391 941 339 826 q 439 982 410 982 z "},"N":{"ha":550,"x_min":5,"x_max":469,"o":"m 423 982 l 426 982 q 469 909 469 982 l 469 873 q 453 629 469 868 l 453 589 q 448 534 453 573 q 450 355 448 501 q 426 152 450 287 q 407 22 426 82 q 372 3 393 3 l 366 3 q 312 57 332 3 q 269 176 304 57 q 201 388 201 330 l 141 659 q 125 700 138 659 l 122 700 q 119 646 119 663 l 119 597 q 100 298 109 560 q 95 46 100 241 q 52 -8 95 -8 l 49 -8 q 5 33 16 -8 q 8 41 8 38 q 30 591 14 447 q 33 602 33 591 q 35 751 33 623 l 33 779 q 52 952 38 952 q 84 968 62 968 l 87 968 q 160 860 130 968 q 201 741 179 821 q 252 545 234 669 q 293 353 271 492 q 350 217 337 232 q 363 355 363 288 q 361 540 361 499 q 372 754 366 568 q 382 901 380 760 q 372 930 372 917 l 372 933 q 423 982 372 972 z "},"O":{"ha":611,"x_min":6,"x_max":532,"o":"m 191 966 q 288 939 255 966 q 378 880 319 930 q 473 768 435 838 q 532 576 496 745 l 532 410 q 508 299 532 401 q 467 144 492 207 q 277 -2 408 -2 l 264 -2 q 182 25 215 -2 q 96 101 168 25 q 50 191 62 152 q 14 326 14 275 q 17 462 14 368 q 6 616 9 522 q 25 793 12 741 q 68 882 51 838 q 147 947 85 909 q 191 966 162 966 m 93 614 q 104 462 98 493 q 101 315 101 377 q 142 196 119 244 q 196 128 146 171 q 231 98 201 112 q 264 85 248 85 l 283 85 q 356 123 323 89 q 413 261 376 137 q 446 418 429 353 l 446 546 q 405 717 446 588 q 318 814 360 788 q 204 877 245 874 q 134 806 134 844 q 96 654 96 765 q 93 614 93 627 z "},"P":{"ha":478,"x_min":1,"x_max":403,"o":"m 153 978 q 232 948 178 978 q 281 921 254 948 q 397 764 345 892 q 403 707 403 749 l 403 696 q 359 560 403 640 q 259 460 306 470 q 132 433 245 441 q 151 80 139 433 l 151 28 q 107 -28 151 -28 l 104 -28 q 61 12 72 -28 q 64 20 64 18 q 39 454 56 454 q 23 604 39 467 l 7 739 q 1 869 7 795 l 1 886 q 42 948 1 935 q 151 978 59 964 l 153 978 m 88 875 l 88 867 q 99 685 94 746 q 110 636 99 682 l 110 628 q 121 522 110 567 l 137 522 q 262 571 227 522 q 316 682 288 600 l 316 731 q 267 823 305 764 q 172 878 212 867 l 151 891 q 99 880 134 883 q 88 875 99 875 z "},"Q":{"ha":611,"x_min":1,"x_max":536,"o":"m 224 970 q 305 941 290 958 q 362 900 336 936 q 408 843 385 892 q 476 713 467 761 q 536 501 536 574 l 536 447 q 506 211 536 263 q 430 83 468 119 q 465 -14 452 14 q 479 -47 479 -29 l 479 -55 q 438 -96 474 -96 l 435 -96 q 389 -55 406 -96 q 357 26 372 -28 q 229 -17 288 -17 q 132 21 175 -17 q 64 97 90 38 q 9 344 50 115 l 1 395 q 45 764 1 652 q 107 916 47 816 q 189 957 121 928 q 224 970 189 964 m 88 401 q 129 186 104 278 q 161 108 144 110 q 224 70 210 70 l 229 70 q 324 108 256 70 q 292 208 292 194 l 292 216 q 332 257 296 257 l 335 257 q 392 176 375 257 l 395 176 q 449 366 449 286 l 449 501 q 406 653 449 551 q 343 781 378 741 q 294 843 332 812 q 259 865 290 852 q 235 878 259 868 q 161 835 161 853 q 94 585 133 801 q 88 401 88 432 z "},"R":{"ha":475,"x_min":5,"x_max":393,"o":"m 206 982 q 317 882 241 982 q 358 760 339 842 l 358 703 q 298 556 358 640 q 203 488 242 494 q 171 469 203 484 q 231 345 197 429 q 298 241 269 279 q 331 155 307 233 q 393 30 393 59 l 393 27 q 353 -14 389 -14 l 347 -14 q 298 41 309 -14 q 241 152 241 132 q 184 252 228 193 q 117 385 144 320 l 114 385 q 103 141 103 349 q 71 5 97 5 q 52 0 71 0 l 49 0 q 5 41 16 0 q 22 369 16 85 q 38 510 31 369 q 41 583 41 548 l 41 597 q 27 732 41 659 q 19 852 27 762 l 19 876 q 52 949 19 932 q 171 979 52 965 q 206 982 197 979 m 106 882 l 106 849 q 111 819 111 823 q 127 629 111 764 l 127 545 q 198 581 168 570 q 271 692 258 636 l 271 749 q 220 860 241 860 q 190 892 194 892 l 168 892 q 106 882 110 882 z "},"S":{"ha":524,"x_min":-3,"x_max":448,"o":"m 220 962 q 350 918 281 962 q 410 799 410 850 l 410 731 q 369 690 405 690 l 366 690 q 323 747 323 690 l 323 793 q 282 856 323 824 q 225 875 264 865 q 163 864 205 867 q 92 693 92 799 q 130 623 110 623 q 222 590 151 602 q 288 571 233 578 q 407 503 359 555 q 448 359 448 428 l 448 273 q 388 110 448 224 q 236 23 313 23 l 184 23 q 35 118 99 23 q 8 191 14 155 q -3 218 -3 200 l -3 221 q 49 275 9 275 l 52 275 q 95 202 95 275 q 152 121 100 163 q 182 110 175 110 l 231 110 q 320 164 268 110 q 361 283 361 257 l 361 351 q 326 460 361 422 q 239 492 326 469 q 176 511 217 492 q 46 576 120 511 q 5 699 5 642 q 38 845 16 815 q 127 943 94 934 q 193 956 127 951 q 220 962 193 961 z "},"T":{"ha":583,"x_min":5,"x_max":502,"o":"m 456 960 q 502 917 502 957 q 458 860 502 860 l 456 860 q 429 871 437 860 l 293 854 l 285 724 l 285 654 q 274 407 274 479 l 274 301 q 277 184 274 258 q 271 119 271 160 l 271 46 q 231 5 267 5 l 228 5 q 184 62 184 5 l 184 119 q 190 182 184 168 q 187 301 187 253 l 187 407 q 198 654 187 479 l 198 724 q 206 852 198 736 l 62 852 q 5 895 5 852 l 5 898 q 46 939 10 939 l 236 939 q 456 960 282 939 z "},"U":{"ha":498,"x_min":-3,"x_max":426,"o":"m 54 977 l 57 977 q 98 939 98 971 q 95 789 98 888 q 98 659 98 700 q 84 499 84 570 l 84 385 q 103 141 92 319 q 133 65 115 65 q 171 57 147 57 q 271 76 271 64 q 320 140 307 109 q 336 222 336 161 q 339 255 339 222 q 336 534 339 287 q 309 882 317 673 q 298 917 304 882 l 298 928 q 342 974 298 960 q 388 928 388 968 q 404 732 397 905 q 423 532 404 688 q 426 239 426 310 q 412 133 426 209 q 374 62 398 98 q 263 -24 332 -3 q 193 -30 211 -24 l 138 -30 q 71 3 90 -20 q 33 54 44 23 q 11 206 16 113 q -3 385 5 315 l -3 499 q 11 667 -3 568 q 8 792 11 701 q 11 930 11 888 q 54 977 18 977 z "},"V":{"ha":555,"x_min":2,"x_max":479,"o":"m 433 994 q 479 953 479 985 q 463 858 479 930 q 439 706 463 835 q 398 516 417 585 q 376 310 390 465 q 306 28 373 309 q 265 -2 292 -2 l 262 -2 q 214 55 226 -2 q 165 180 183 110 q 127 294 154 189 q 83 503 83 418 q 40 763 40 725 l 2 918 l 2 926 q 43 966 7 966 l 45 966 q 94 907 84 966 q 157 565 129 767 q 178 424 172 494 q 252 191 216 286 l 252 185 l 254 185 q 300 421 300 351 q 344 663 300 492 q 382 909 374 819 q 401 975 394 958 q 433 994 401 982 z "},"W":{"ha":698,"x_min":7,"x_max":623,"o":"m 452 981 l 454 981 q 514 916 487 981 q 541 854 527 897 q 598 683 584 802 q 617 569 598 669 q 623 485 623 530 l 623 366 q 579 154 601 203 q 454 -22 517 -22 l 452 -22 q 400 26 418 -22 q 370 83 391 33 q 340 162 370 94 q 332 197 332 191 l 330 197 q 259 59 319 155 q 199 10 229 10 l 191 10 q 121 86 158 10 q 69 211 95 102 q 47 333 62 211 q 31 488 47 351 q 12 702 31 572 q 7 829 7 794 q 39 973 12 973 q 58 979 39 978 l 61 979 q 102 938 102 974 q 94 829 102 922 q 115 564 94 730 q 134 357 115 483 q 159 211 134 288 q 199 127 179 136 q 245 214 245 212 q 275 295 245 221 q 311 439 275 439 q 324 441 315 441 l 327 441 q 373 385 366 441 q 433 165 403 250 q 452 113 444 152 q 460 97 457 113 l 463 97 l 498 186 q 536 366 519 238 l 536 471 q 511 675 536 553 q 454 835 511 738 q 433 884 447 860 q 408 938 416 907 q 452 981 417 981 z "},"X":{"ha":630,"x_min":7,"x_max":557,"o":"m 47 969 l 50 969 q 118 893 85 969 q 216 739 166 823 l 259 676 q 378 907 259 700 q 416 956 385 908 q 446 966 431 966 l 449 966 q 490 926 490 962 l 490 923 q 435 833 490 895 q 311 578 368 718 q 395 391 346 513 q 500 182 446 293 q 525 128 510 182 q 557 68 557 85 l 557 58 q 517 17 553 17 l 514 17 q 468 58 484 17 q 430 136 446 81 q 359 272 410 163 q 275 448 336 304 q 273 459 273 458 q 218 323 265 453 q 148 139 181 201 q 77 12 102 12 l 64 12 q 23 52 23 16 l 23 63 q 102 250 23 71 q 180 470 140 372 q 216 568 205 540 q 107 749 197 617 l 7 912 l 7 928 q 47 969 12 969 z "},"Y":{"ha":597,"x_min":-1,"x_max":503,"o":"m 457 974 q 503 930 503 966 l 503 925 l 479 846 q 444 779 479 830 q 376 589 430 749 l 305 461 q 308 361 308 393 l 308 146 q 316 30 316 53 q 275 -3 305 -3 l 270 -3 q 227 71 227 -3 q 221 127 227 82 l 221 336 q 218 477 221 379 q 164 572 187 517 q 126 662 155 581 q 53 789 126 679 q -1 906 23 831 l -1 917 q 39 958 3 958 l 42 958 q 104 871 82 958 q 194 732 147 798 q 262 570 213 667 l 264 570 q 354 798 297 612 q 406 909 399 863 q 457 971 420 971 l 457 974 z "},"Z":{"ha":644,"x_min":3,"x_max":589,"o":"m 415 968 q 494 922 494 968 l 494 909 q 458 811 475 866 q 350 600 425 715 q 282 431 320 507 q 187 255 250 394 q 133 149 149 200 q 109 90 133 132 l 109 87 l 111 87 q 347 114 241 114 q 439 122 347 117 q 581 100 581 122 q 589 76 589 90 l 589 73 q 553 30 589 42 l 439 35 l 193 16 q 98 -11 149 8 q 52 -19 62 -19 l 46 -19 q 3 27 10 -19 q 22 95 3 34 q 52 171 22 117 q 87 260 52 199 q 125 331 95 264 q 212 486 165 416 q 269 632 238 539 q 388 879 368 791 l 385 879 q 290 868 311 868 l 247 868 q 106 871 186 868 q 43 865 74 865 q 8 906 15 865 l 8 909 q 73 952 8 952 q 106 958 73 955 q 247 955 186 955 l 290 955 l 415 968 z "},"[":{"ha":366,"x_min":-1,"x_max":303,"o":"m 151 1044 q 279 1011 279 1036 q 284 992 284 1011 l 284 989 q 243 949 279 949 q 147 951 151 951 q 135 951 142 951 l 105 951 q 86 721 94 881 l 86 648 q 94 16 94 307 q 108 -33 94 -33 q 149 -36 132 -36 q 257 -25 189 -36 q 303 -68 303 -33 l 303 -71 q 227 -117 303 -117 q 149 -123 227 -123 q 26 -93 45 -123 q 7 10 7 -50 q -1 621 7 340 l -1 721 q 35 1019 16 1019 q 140 1041 35 1040 q 151 1044 140 1044 z "},"\\":{"ha":386,"x_min":14,"x_max":372,"o":"m 54 1044 l 57 1044 q 119 955 98 1044 q 155 849 126 955 q 214 616 190 760 q 244 448 233 536 q 277 320 252 425 q 350 95 320 210 q 372 5 358 54 l 372 -3 q 331 -43 367 -43 l 326 -43 q 277 19 287 -43 q 203 260 239 189 q 127 618 160 411 q 90 768 108 718 l 54 879 q 14 993 46 907 l 14 1004 q 54 1044 18 1044 z "},"]":{"ha":366,"x_min":3,"x_max":286,"o":"m 226 1067 q 277 977 277 1067 q 286 823 286 959 l 286 690 q 280 638 280 644 l 280 511 q 264 299 267 373 q 250 101 253 299 q 264 -78 261 37 q 215 -111 256 -111 q 134 -113 184 -113 l 50 -113 q 9 -73 9 -109 l 9 -70 q 66 -26 9 -26 l 174 -26 l 174 -21 q 163 96 174 25 q 180 342 163 241 q 193 508 180 382 l 193 638 q 199 703 193 642 l 199 839 q 191 977 199 926 l 44 977 q 3 1018 3 982 l 3 1021 q 60 1064 3 1064 l 201 1064 q 226 1067 211 1064 z "},"^":{"ha":481,"x_min":22,"x_max":396,"o":"m 209 1042 q 263 998 240 1042 q 345 825 308 953 q 396 697 396 705 l 396 689 q 355 648 391 648 l 353 648 q 301 705 317 648 q 222 906 280 745 q 220 911 220 906 l 217 911 q 184 846 217 907 l 136 743 q 71 654 98 654 l 62 654 q 22 694 22 659 l 22 705 q 71 811 22 711 l 168 1012 q 209 1042 183 1036 z "},"_":{"ha":610,"x_min":-4,"x_max":544,"o":"m 37 92 q 172 87 141 87 l 335 87 q 441 84 374 87 q 498 90 455 90 l 498 92 q 544 49 544 85 l 544 43 q 487 3 544 3 q 441 -3 460 3 q 308 0 357 0 l 172 0 q 1 27 1 0 q -4 49 -4 37 l -4 52 q 37 92 1 92 z "},"`":{"ha":368,"x_min":14,"x_max":296,"o":"m 54 1152 l 65 1152 q 144 1111 72 1152 q 217 1078 154 1111 q 279 1059 262 1074 q 296 1024 296 1042 l 296 1021 q 255 981 291 981 l 247 981 q 138 1019 165 998 q 22 1081 85 1036 q 14 1108 14 1099 l 14 1111 q 54 1152 18 1152 z "},"a":{"ha":550,"x_min":5,"x_max":507,"o":"m 195 703 q 374 656 326 703 q 454 534 450 595 l 456 467 q 477 187 464 270 l 507 38 q 467 -3 503 -3 l 464 -3 q 415 54 427 -3 q 396 146 412 58 l 393 146 q 336 57 382 102 q 241 14 311 29 l 182 10 l 127 14 q 59 37 73 27 q 38 60 45 47 q 22 111 31 72 q 19 141 22 117 q 41 241 30 241 q 127 334 58 290 q 209 363 166 363 q 336 374 209 369 q 369 442 355 374 l 369 488 q 350 556 369 541 q 206 616 314 616 q 125 576 179 616 q 57 480 80 484 l 46 480 q 5 521 5 485 l 5 532 q 62 643 26 592 q 195 703 144 703 m 336 285 l 312 285 q 174 258 191 285 q 106 141 106 222 q 141 103 106 105 q 157 100 141 100 l 217 100 q 277 122 248 100 q 334 255 319 166 l 342 288 l 336 285 z "},"b":{"ha":609,"x_min":5,"x_max":534,"o":"m 49 970 l 52 970 q 92 929 92 965 q 122 736 92 883 q 138 669 132 669 q 228 685 178 685 l 274 685 q 339 669 322 685 q 445 582 386 647 q 472 544 445 574 q 534 389 534 444 l 534 330 q 480 161 534 256 q 328 56 381 66 q 296 42 328 51 q 152 -1 280 24 l 146 -1 q 100 58 107 -1 q 73 397 87 259 q 46 674 54 629 q 8 902 8 858 l 8 924 q 5 926 8 926 q 49 970 14 970 m 144 579 l 144 576 q 182 140 174 273 l 182 115 q 187 96 182 96 q 279 132 243 109 q 415 224 340 144 q 448 321 448 293 l 448 378 q 358 547 448 440 q 293 593 333 572 q 279 598 293 597 l 233 598 q 144 579 201 598 z "},"c":{"ha":584,"x_min":5,"x_max":488,"o":"m 252 689 q 342 654 342 676 q 347 635 347 654 l 347 632 q 307 591 342 591 l 304 591 l 239 602 q 95 407 141 602 q 92 382 92 392 q 141 163 94 266 q 271 84 220 84 l 304 84 q 377 123 362 107 q 412 179 392 138 q 442 193 425 186 q 488 149 488 185 l 488 141 q 420 43 484 111 q 336 -3 381 16 l 263 -3 q 109 73 190 -3 q 27 225 55 110 q 5 382 5 309 q 87 610 5 483 q 228 686 151 686 q 252 689 228 689 z "},"d":{"ha":565,"x_min":8,"x_max":507,"o":"m 342 929 l 345 929 q 385 888 385 924 q 380 810 385 878 q 388 731 388 753 l 388 609 q 401 576 401 593 l 401 574 q 396 552 401 562 q 450 235 412 372 l 483 134 q 507 53 491 96 l 507 45 q 467 4 503 4 l 464 4 q 412 58 423 4 q 301 -1 345 12 l 258 -1 q 79 66 142 -1 q 8 240 8 160 l 8 289 q 49 473 8 378 q 98 552 64 490 q 266 644 189 644 q 301 639 277 644 l 301 731 q 293 812 301 749 q 320 924 298 924 q 342 929 330 929 m 95 289 l 95 254 q 136 137 95 190 q 250 85 175 85 l 279 85 q 385 148 313 94 q 317 468 345 276 q 309 547 312 505 q 269 557 277 557 q 163 492 228 557 l 119 416 q 95 289 95 347 z "},"e":{"ha":542,"x_min":2,"x_max":482,"o":"m 211 634 q 330 607 260 634 q 479 395 479 506 q 447 333 479 333 q 368 319 425 323 q 287 303 345 303 q 216 290 275 298 q 100 262 170 274 l 100 257 q 176 127 137 164 q 249 97 203 97 l 279 97 q 393 197 339 97 q 436 227 411 222 q 482 184 482 220 l 482 181 q 447 119 482 164 q 336 18 411 54 q 276 10 311 10 l 230 10 q 146 37 185 12 q 73 121 87 83 q 5 268 42 152 q 2 314 2 300 l 2 317 q 21 458 2 401 q 35 490 28 463 q 54 528 39 492 q 162 618 125 618 q 211 634 165 625 m 89 349 l 92 349 q 219 379 106 349 q 355 406 326 393 q 387 409 369 409 l 390 409 l 390 412 q 374 452 382 427 q 265 534 301 534 q 219 547 258 542 q 127 477 154 526 q 89 349 89 401 z "},"f":{"ha":511,"x_min":0,"x_max":450,"o":"m 277 952 q 355 939 300 952 q 418 892 392 928 q 450 830 450 839 l 450 822 q 410 781 446 781 l 407 781 q 342 849 376 781 l 279 865 q 225 768 240 865 q 212 581 212 717 l 228 578 l 239 578 q 298 583 250 578 q 355 540 355 583 l 355 534 q 317 491 347 491 q 290 494 300 491 q 250 491 267 491 l 228 491 l 209 494 l 209 480 q 217 331 217 432 l 217 282 q 225 130 225 229 q 236 33 236 101 q 195 -3 236 4 l 193 -3 q 149 38 160 -3 q 133 258 138 126 q 130 282 130 258 l 130 345 q 122 486 130 413 l 119 486 q 109 483 115 483 l 41 483 q 0 524 0 488 l 0 526 q 57 570 0 570 l 109 570 l 122 572 q 141 808 122 680 q 152 846 146 808 l 176 901 q 277 952 226 952 z "},"g":{"ha":610,"x_min":11,"x_max":510,"o":"m 304 635 l 328 635 q 412 616 373 635 q 445 632 423 632 l 448 632 q 496 572 486 632 l 510 494 q 507 331 510 471 q 510 98 507 281 q 448 -155 510 -24 q 334 -255 400 -231 q 298 -266 302 -266 l 252 -266 q 122 -231 199 -266 q 43 -149 60 -180 q 22 -109 30 -140 q 65 -65 31 -65 l 68 -65 q 125 -114 97 -65 q 206 -168 178 -168 q 250 -179 206 -173 l 269 -179 q 353 -138 309 -179 q 423 117 423 -35 q 307 30 381 55 q 255 19 306 28 l 193 19 q 81 81 142 19 q 11 282 11 205 l 11 288 q 33 434 17 416 q 138 572 42 494 q 304 635 229 635 m 98 277 q 155 130 98 235 q 228 106 181 106 q 380 225 338 106 q 410 296 410 260 q 418 336 418 315 l 418 366 q 420 404 418 387 q 404 515 416 515 q 328 548 363 548 l 298 548 q 214 518 260 540 q 122 431 171 492 q 100 309 100 378 q 98 277 98 309 z "},"h":{"ha":501,"x_min":3,"x_max":434,"o":"m 46 968 l 49 968 q 95 909 88 968 q 106 727 106 812 l 106 673 q 231 705 156 705 q 358 646 288 705 q 415 491 415 573 q 434 298 429 491 q 420 81 420 184 l 420 35 q 380 -5 416 -5 l 374 -5 q 331 35 342 -5 l 331 38 q 347 309 339 254 q 328 502 347 399 q 285 594 318 564 q 228 618 246 614 q 106 564 164 618 l 106 562 q 119 391 106 484 q 133 152 119 210 l 133 100 q 136 35 133 73 q 95 3 125 3 l 92 3 q 46 62 46 3 l 46 136 q 33 393 33 226 q 19 589 19 471 l 19 727 q 3 925 19 857 q 46 968 12 968 z "},"i":{"ha":182,"x_min":0,"x_max":117,"o":"m 52 890 l 54 890 q 109 844 109 883 l 109 838 q 54 779 94 779 l 46 779 q 0 830 0 785 l 0 836 q 52 890 7 890 m 52 681 l 54 681 q 95 640 95 676 q 103 562 103 602 l 103 488 q 111 334 103 468 l 111 323 q 117 46 111 206 q 76 14 106 14 l 73 14 q 30 54 41 14 q 24 312 24 177 l 24 334 q 16 488 16 468 l 16 562 q 8 637 16 606 q 52 681 17 681 z "},"j":{"ha":346,"x_min":3,"x_max":263,"o":"m 184 852 l 187 852 q 236 806 236 843 l 236 795 q 193 751 229 751 l 184 751 q 136 803 142 751 q 184 852 144 852 m 195 665 l 198 665 q 239 624 239 660 q 252 407 247 604 q 260 339 257 407 q 263 -19 260 263 q 260 -114 260 -90 q 198 -258 237 -220 q 165 -274 174 -274 l 144 -274 q 38 -212 66 -274 q 3 -92 3 -136 l 3 -90 q 43 -49 7 -49 l 46 -49 q 100 -141 90 -49 q 130 -187 117 -183 l 141 -187 q 165 -137 150 -186 q 174 -109 170 -119 q 176 -22 174 -85 q 174 342 174 267 q 157 586 163 437 q 152 624 153 586 q 195 665 159 665 z "},"k":{"ha":505,"x_min":11,"x_max":439,"o":"m 57 955 l 60 955 q 100 920 100 948 q 98 781 98 798 q 106 572 106 678 l 106 518 q 231 637 119 522 q 271 681 256 659 l 298 692 q 345 648 345 684 l 345 646 q 279 562 345 618 q 149 442 179 456 l 149 439 q 317 236 191 378 q 437 62 397 104 l 439 46 l 439 38 q 399 -3 435 -3 l 396 -3 q 298 109 357 -3 q 122 328 242 194 l 122 298 q 130 260 130 263 l 130 225 q 152 30 146 143 q 111 -5 152 1 l 109 -5 q 60 98 60 -5 q 19 469 19 425 l 19 572 q 11 789 19 667 q 30 947 11 947 q 57 955 47 955 z "},"l":{"ha":201,"x_min":11,"x_max":122,"o":"m 54 963 l 57 963 q 98 928 98 956 q 109 206 98 543 l 122 65 l 122 46 q 81 5 117 5 l 79 5 q 35 71 35 5 q 11 917 14 172 q 54 963 18 963 z "},"m":{"ha":621,"x_min":3,"x_max":551,"o":"m 168 700 q 285 629 237 700 q 290 618 285 618 l 293 618 q 412 678 321 678 q 494 648 472 678 q 537 545 537 602 q 548 483 548 509 q 551 282 548 393 l 537 84 l 537 38 q 496 -3 532 -3 l 494 -3 q 450 41 450 4 l 450 87 q 464 282 450 96 q 461 483 461 393 q 426 591 448 591 l 420 591 q 350 545 361 591 q 331 448 331 481 l 331 328 q 290 288 326 288 l 288 288 q 244 345 244 288 l 244 391 q 228 543 233 510 q 189 608 210 602 q 171 613 180 612 q 98 494 119 613 q 90 382 95 427 l 90 250 q 106 43 90 196 l 106 41 q 65 5 106 12 l 62 5 q 16 92 16 5 q 3 250 3 166 l 3 382 q 30 586 14 549 q 168 700 79 700 z "},"n":{"ha":519,"x_min":5,"x_max":439,"o":"m 49 713 l 52 713 q 92 673 92 709 l 92 659 l 95 659 q 231 686 168 686 q 366 608 305 686 q 429 391 408 555 q 439 274 439 292 q 437 -3 439 206 q 396 -38 437 -31 l 393 -38 q 350 11 355 -38 q 353 277 353 195 q 315 513 336 477 q 260 589 300 565 q 231 600 235 600 l 214 600 q 92 564 191 600 q 98 363 98 473 q 92 165 98 247 q 100 3 100 88 q 60 -33 100 -26 l 57 -33 q 14 14 20 -33 q 5 165 11 125 q 11 369 11 248 q 5 643 11 382 l 5 656 q 49 713 5 713 z "},"o":{"ha":620,"x_min":5,"x_max":556,"o":"m 214 652 q 342 627 313 652 q 480 543 465 578 q 545 386 504 521 q 556 315 556 349 q 469 74 556 216 q 320 6 408 6 l 315 6 q 54 115 151 6 q 5 261 20 157 l 8 267 l 8 272 q 41 467 8 340 q 84 546 62 523 q 168 630 84 557 q 214 652 168 647 m 95 272 l 95 267 q 92 264 95 264 q 130 161 103 186 q 260 96 183 115 q 320 93 308 93 q 453 242 410 93 q 469 321 469 274 q 420 478 469 351 q 336 532 401 509 q 252 557 292 557 l 228 559 q 133 462 161 518 q 95 272 95 355 z "},"p":{"ha":581,"x_min":22,"x_max":499,"o":"m 68 689 q 109 648 109 684 l 109 637 q 171 651 150 648 q 309 610 260 639 q 401 529 352 581 q 461 434 429 502 q 499 315 499 392 l 499 293 q 450 163 499 237 q 374 84 426 119 q 241 43 335 62 l 190 43 q 114 49 161 43 l 114 8 q 125 -103 125 -63 q 122 -165 125 -116 q 130 -239 130 -184 l 130 -244 q 90 -285 125 -285 l 87 -285 q 41 -244 52 -285 l 41 -233 q 43 -220 41 -224 l 35 -168 q 38 -98 38 -117 q 27 8 38 -73 l 27 52 q 22 193 27 140 q 24 277 22 211 q 22 637 22 526 q 62 689 27 689 l 68 689 m 109 548 q 111 296 109 518 q 109 190 111 273 q 111 136 111 176 q 209 130 179 130 q 342 168 270 130 q 391 236 385 212 q 412 288 412 269 l 412 334 q 350 453 406 369 q 301 505 350 458 q 168 562 241 562 q 109 548 115 548 z "},"q":{"ha":544,"x_min":14,"x_max":600,"o":"m 271 689 q 355 662 306 689 q 358 665 358 662 q 391 681 369 681 l 393 681 q 434 651 420 681 q 431 456 431 526 l 431 155 q 453 117 453 138 l 453 111 q 437 79 453 90 q 461 -138 450 -62 l 461 -141 l 464 -141 q 551 -79 502 -79 q 600 -119 600 -83 l 600 -122 q 562 -165 600 -153 q 518 -212 551 -165 q 448 -258 472 -258 l 437 -258 q 385 -198 399 -258 q 363 -79 372 -132 q 358 22 358 12 l 353 24 q 296 5 315 5 l 212 5 q 114 46 146 5 q 14 274 14 102 l 14 288 q 41 499 14 433 q 79 581 49 546 q 184 667 100 626 q 271 689 203 681 m 100 269 q 114 184 100 214 q 190 98 114 146 q 209 92 190 92 l 279 92 q 345 119 295 92 l 345 572 q 269 602 339 572 q 163 551 235 602 q 112 456 119 488 q 100 269 100 426 z "},"r":{"ha":469,"x_min":11,"x_max":391,"o":"m 54 724 l 57 724 q 98 670 98 724 q 231 705 127 705 q 328 662 270 705 q 391 529 391 576 l 391 515 q 350 475 386 475 l 347 475 q 301 543 301 475 q 241 613 268 606 l 225 618 q 144 594 161 618 q 106 572 114 574 q 114 494 114 534 l 114 250 q 122 103 114 214 l 122 33 q 81 -8 117 -8 l 79 -8 q 35 49 35 -8 l 35 119 q 27 266 27 178 l 27 494 q 11 635 27 525 l 11 667 q 54 724 11 724 z "},"s":{"ha":476,"x_min":-11,"x_max":382,"o":"m 203 708 l 236 708 q 353 640 301 708 q 382 553 366 622 l 382 548 q 342 507 378 507 l 339 507 q 279 594 298 507 q 233 621 248 621 l 206 621 q 125 586 165 621 q 95 477 105 543 q 92 461 92 477 l 92 448 q 125 404 92 414 q 206 369 189 369 q 334 285 319 328 q 363 220 363 246 q 366 187 366 212 q 279 33 366 83 q 203 0 239 9 q 165 -3 180 -3 l 100 -3 q 8 49 50 6 q -11 90 -11 75 l -11 92 q 30 136 -11 125 q 90 95 54 136 q 144 84 109 84 l 160 84 q 233 109 196 84 q 271 157 271 127 q 279 174 279 160 l 279 201 q 244 258 277 223 q 187 282 234 258 q 114 312 127 296 q 30 369 52 332 q 5 450 5 406 l 5 458 q 30 583 22 583 q 90 673 57 654 q 203 708 145 708 z "},"t":{"ha":475,"x_min":1,"x_max":427,"o":"m 161 830 l 164 830 q 205 789 205 825 l 205 713 q 199 627 199 633 l 199 613 l 332 613 q 358 611 335 613 q 389 570 381 610 l 389 567 q 349 526 385 526 l 194 526 q 186 326 189 526 q 216 95 186 128 q 235 90 224 90 q 335 160 300 90 q 340 195 338 163 q 335 217 335 205 l 335 220 q 376 263 335 252 q 427 209 417 263 l 427 206 q 397 90 427 130 q 273 8 332 8 q 227 3 273 3 l 221 3 q 132 65 168 3 q 102 190 113 98 q 99 336 99 319 q 105 524 104 510 l 42 524 q 1 564 1 528 l 1 567 q 58 610 1 610 l 107 610 q 113 616 113 610 l 113 627 q 118 713 118 707 l 118 773 q 161 830 118 830 z "},"u":{"ha":581,"x_min":24,"x_max":510,"o":"m 382 708 q 423 651 423 708 q 448 456 437 525 q 467 231 461 379 q 480 152 477 223 q 491 95 487 140 q 510 41 510 52 l 510 33 q 469 -8 505 -8 l 467 -8 q 404 98 420 -8 l 401 98 q 274 0 328 0 l 233 0 q 73 92 111 0 q 43 233 43 157 q 33 426 37 233 q 24 499 30 426 l 24 635 q 68 692 24 692 l 71 692 q 111 651 111 687 l 111 486 q 125 260 125 396 q 152 138 140 138 q 214 87 152 100 l 263 87 q 334 157 285 87 q 355 250 355 231 l 355 382 q 336 621 350 517 l 336 656 q 377 708 342 708 l 382 708 z "},"v":{"ha":529,"x_min":4,"x_max":441,"o":"m 397 697 l 400 697 q 441 656 441 692 l 441 635 q 414 464 427 521 q 381 334 414 426 q 330 165 381 302 q 264 27 330 138 q 221 -11 252 -11 l 216 -11 q 167 46 178 -11 q 134 193 153 87 q 104 320 122 205 q 58 469 94 398 q 9 624 47 488 q 4 646 4 634 l 4 654 q 45 694 9 694 l 47 694 q 99 629 85 694 q 161 456 129 513 q 205 247 175 419 q 229 152 229 193 l 235 152 q 289 312 262 239 q 324 442 300 372 q 343 562 324 461 l 359 675 q 397 697 376 697 z "},"w":{"ha":726,"x_min":27,"x_max":637,"o":"m 551 681 q 610 610 602 681 q 637 363 618 582 q 616 163 637 220 q 594 109 610 132 q 510 24 581 85 q 480 16 481 16 l 420 16 q 342 81 363 40 l 342 87 q 298 33 322 56 q 201 -11 247 -6 l 198 -11 q 65 87 101 -11 q 30 271 30 155 l 30 345 q 27 518 30 426 q 30 618 30 543 q 73 667 35 667 l 76 667 q 117 627 117 663 q 114 518 117 545 q 117 345 117 426 l 117 263 q 152 109 117 174 q 193 76 152 88 q 252 111 224 83 q 290 220 290 157 q 309 377 290 377 q 336 385 327 385 l 339 385 q 396 282 385 385 q 434 109 416 109 l 442 103 l 458 103 q 513 146 471 103 q 551 366 551 187 q 510 618 531 618 l 507 635 l 507 637 q 548 681 507 670 l 551 681 z "},"x":{"ha":588,"x_min":-8,"x_max":510,"o":"m 38 686 l 41 686 q 160 581 76 686 q 250 456 199 511 q 336 578 286 511 l 377 654 q 412 670 395 670 l 415 670 q 456 629 456 665 l 456 621 q 377 483 435 566 q 312 382 325 422 q 426 195 417 255 q 507 68 460 131 l 510 52 l 510 49 q 469 8 505 8 l 464 8 q 399 71 429 8 q 342 171 388 81 q 266 304 342 199 l 263 304 q 133 114 263 299 q 57 -5 81 20 q 35 -11 47 -11 l 33 -11 q -8 30 -8 -6 l -8 46 q 193 350 64 176 q 203 374 203 366 q 76 548 145 439 q -3 640 -3 618 l -3 646 q 38 686 2 686 z "},"y":{"ha":589,"x_min":14,"x_max":488,"o":"m 445 654 l 448 654 q 488 613 488 649 l 488 608 q 426 420 453 486 q 374 236 426 409 q 342 109 374 230 q 298 -106 328 12 q 241 -239 282 -198 q 168 -271 208 -271 l 133 -271 q 81 -241 109 -271 q 60 -190 60 -202 l 60 -187 q 100 -144 60 -155 q 152 -184 133 -144 l 160 -184 q 214 -73 199 -184 q 250 92 250 47 q 255 117 252 98 q 171 274 171 250 q 149 336 161 288 q 106 418 119 381 q 19 572 75 464 q 14 583 19 576 l 14 600 q 54 640 18 640 l 57 640 q 119 570 92 640 q 190 445 156 498 q 233 361 190 438 q 282 239 242 317 q 307 320 289 243 q 347 467 336 403 q 404 629 361 487 q 445 654 424 654 z "},"z":{"ha":614,"x_min":8,"x_max":532,"o":"m 458 694 q 513 651 513 694 l 513 640 q 458 564 513 621 q 331 363 400 460 q 247 225 294 292 q 195 152 205 181 q 157 87 158 101 l 160 87 q 480 119 361 100 q 532 79 532 114 l 532 73 q 458 30 532 30 q 195 3 364 14 q 109 -5 185 3 l 65 -5 q 24 35 24 -1 l 24 38 q 79 127 24 61 q 157 258 144 243 q 241 385 216 321 q 372 594 346 533 q 380 605 376 594 l 369 605 q 46 594 110 594 q 8 635 14 594 l 8 637 q 62 681 8 681 q 458 694 407 694 z "},"{":{"ha":433,"x_min":-11,"x_max":412,"o":"m 201 1074 l 203 1074 q 244 1034 244 1069 l 244 1031 q 176 963 244 1000 q 122 838 136 922 l 122 781 q 171 708 122 753 l 231 618 q 244 559 244 564 q 247 529 247 549 l 247 515 q 187 434 247 474 l 228 410 q 247 339 247 380 l 247 304 q 228 228 247 286 q 214 133 222 208 l 214 41 q 250 -16 214 9 q 331 -43 262 -43 q 366 -19 331 -31 q 412 -62 412 -26 l 412 -68 q 358 -127 412 -106 q 320 -130 335 -130 q 168 -60 216 -130 q 127 46 127 -30 l 127 133 q 160 309 128 201 l 160 347 q 117 366 131 356 l 90 366 q -8 401 -8 366 q -11 412 -11 401 l -11 415 q 49 464 -11 454 q 160 529 160 503 q 136 602 150 602 q 79 678 120 634 q 35 787 35 724 l 35 806 q 117 1028 35 943 q 201 1074 184 1074 z "},"|":{"ha":209,"x_min":5,"x_max":114,"o":"m 71 1072 l 73 1072 q 114 1031 114 1067 l 114 873 q 92 589 98 683 q 106 79 92 549 l 106 -119 q 65 -160 101 -160 l 62 -160 q 19 -111 24 -160 l 19 -33 q 5 515 19 203 l 5 589 q 27 873 11 683 l 27 1015 q 71 1072 27 1072 z "},"}":{"ha":423,"x_min":7,"x_max":340,"o":"m 137 1082 q 256 1017 220 1082 q 321 860 321 913 l 321 825 q 227 675 287 734 q 197 629 222 674 q 243 597 241 597 l 278 597 q 340 553 340 597 l 340 548 q 283 496 340 509 q 224 431 259 477 q 218 393 218 419 q 254 342 218 383 q 300 252 254 334 q 321 206 321 216 l 321 119 q 278 -38 321 58 q 175 -111 233 -94 l 129 -111 q 45 -71 62 -111 l 45 -57 q 85 -14 45 -24 q 129 -24 121 -24 l 151 -24 q 202 11 202 -7 q 235 106 210 11 l 235 184 q 180 288 235 196 q 148 334 180 294 q 132 404 132 359 q 186 524 132 471 l 189 529 q 107 616 107 570 l 104 627 q 167 743 104 656 q 235 846 227 804 l 235 849 q 180 977 235 886 q 145 996 159 996 l 132 996 q 56 971 62 971 l 47 971 q 7 1012 7 976 l 7 1015 q 113 1080 7 1061 q 137 1082 113 1082 z "},"~":{"ha":632,"x_min":0,"x_max":553,"o":"m 510 521 l 513 521 q 553 480 553 516 l 553 415 q 510 323 553 376 q 407 282 455 282 l 377 282 q 274 353 314 282 q 225 412 271 353 q 182 431 190 431 l 179 431 q 117 415 127 431 q 73 336 113 414 q 43 326 57 326 l 41 326 q 0 366 0 330 l 0 377 q 98 510 37 481 q 163 518 142 518 l 165 518 q 301 458 254 518 q 363 377 311 448 q 382 369 374 369 l 401 369 q 467 434 467 378 q 496 518 467 518 q 510 521 501 521 z "},"":{"ha":456,"x_min":5,"x_max":138,"o":"m 68 678 q 119 643 101 678 q 138 608 138 630 l 138 602 q 87 548 125 548 l 79 548 q 19 578 19 557 q 5 621 10 580 q 68 678 5 665 m 76 499 l 79 499 q 119 458 119 494 q 114 326 114 359 l 114 260 q 106 -190 106 -61 q 109 -236 109 -222 q 68 -269 98 -269 l 65 -269 q 19 -214 26 -269 l 19 -206 q 27 260 19 -60 l 27 326 q 54 494 27 494 q 76 499 64 499 z "},"":{"ha":479,"x_min":14,"x_max":410,"o":"m 244 844 l 247 844 q 288 803 288 839 q 274 716 274 727 l 274 675 q 355 648 330 675 q 410 591 410 623 l 410 589 q 369 548 405 548 l 358 548 q 288 589 348 548 l 277 589 q 266 496 270 589 q 239 168 239 316 l 239 103 l 260 103 q 339 163 289 103 l 363 174 q 410 130 410 166 l 410 127 q 320 30 410 88 q 277 16 290 16 l 236 16 l 241 -33 q 212 -119 241 -119 q 198 -122 207 -122 l 195 -122 q 152 -73 157 -122 q 155 -35 152 -69 q 149 16 149 7 l 152 35 q 52 144 52 108 q 14 290 14 227 l 14 350 q 54 540 14 497 q 106 610 87 594 q 184 659 127 644 l 187 659 l 187 716 q 225 838 201 838 q 244 844 225 843 m 100 350 l 100 279 q 136 163 100 259 l 152 149 l 152 168 q 184 564 152 296 q 117 477 144 530 q 100 350 100 451 z "},"":{"ha":571,"x_min":5,"x_max":502,"o":"m 244 966 q 382 890 317 966 q 415 827 415 836 l 415 819 q 374 779 410 779 l 372 779 q 312 838 340 779 q 241 879 290 867 l 236 879 q 195 863 220 879 q 152 724 159 812 l 152 687 q 182 526 161 583 l 279 526 q 363 477 363 526 l 363 475 q 323 434 359 434 l 309 434 q 279 439 283 439 l 214 439 q 239 323 229 399 l 239 290 q 212 144 239 247 q 187 95 198 125 l 258 95 q 439 111 319 95 q 502 62 494 111 l 502 54 q 461 14 497 14 l 458 14 q 434 22 444 14 l 426 22 q 258 8 307 8 l 163 8 q 81 41 81 8 q 76 60 76 41 q 100 114 76 89 l 130 184 q 152 285 142 209 l 152 317 q 122 439 152 372 q 18 454 31 441 q 5 486 5 465 l 5 488 q 46 529 10 529 l 90 529 q 63 684 74 585 l 64 706 l 65 724 q 95 865 65 771 q 179 955 140 947 q 244 966 179 960 z "},"":{"ha":644,"x_min":0,"x_max":562,"o":"m 43 700 q 127 651 64 700 q 157 613 157 620 l 163 613 q 274 656 187 637 l 285 656 q 361 640 312 648 q 410 610 367 633 q 477 684 473 684 l 494 686 l 496 686 q 537 646 537 682 l 537 640 q 464 540 537 612 q 494 461 494 475 l 494 429 q 467 353 494 381 q 551 269 485 309 q 562 241 562 248 l 562 231 q 521 190 557 190 l 518 190 q 480 212 496 190 q 401 290 437 235 q 274 244 348 244 l 241 244 q 190 252 227 244 q 95 149 155 217 l 76 146 l 71 146 q 27 187 38 146 l 27 190 q 122 309 27 214 q 73 453 73 396 q 98 548 73 503 q 11 621 77 589 q 0 654 0 644 l 0 656 q 41 700 0 689 l 43 700 m 160 464 l 160 448 q 220 339 191 339 q 247 331 229 331 l 290 331 q 407 418 355 349 l 407 448 q 342 545 374 545 q 290 564 323 564 l 274 564 q 174 505 228 564 q 160 464 160 475 z "},"":{"ha":612,"x_min":5,"x_max":521,"o":"m 477 966 l 480 966 q 521 925 521 961 l 521 920 q 410 689 521 888 q 347 532 347 566 q 334 483 347 514 l 334 437 q 347 399 334 399 q 494 369 494 399 q 499 350 499 369 l 499 347 q 464 307 492 307 q 339 312 367 309 q 342 250 342 262 q 345 247 345 250 q 499 225 499 247 q 507 201 507 215 l 507 198 q 467 157 503 157 l 396 157 q 355 160 382 157 l 355 57 q 315 16 351 16 l 312 16 q 269 73 269 16 l 269 133 l 266 165 l 250 165 q 103 198 103 170 q 98 217 98 198 l 98 220 q 138 260 102 260 q 250 252 233 252 l 255 252 q 252 320 252 310 l 231 320 q 122 340 137 330 q 106 369 106 350 l 106 372 q 146 412 111 412 q 231 407 212 407 l 254 407 l 250 502 q 163 635 163 619 q 98 743 144 679 q 14 879 48 831 q 5 903 5 889 l 5 906 q 46 947 10 947 l 49 947 q 117 879 81 947 q 225 711 180 775 q 274 616 247 652 q 309 684 281 616 q 399 849 338 745 q 448 955 437 939 q 477 966 464 966 z "},"":{"ha":203,"x_min":3,"x_max":106,"o":"m 46 1096 l 49 1096 q 92 1034 92 1096 l 92 949 q 98 884 98 888 l 98 830 q 103 800 103 804 l 103 708 q 62 667 98 667 l 60 667 q 16 724 16 667 l 16 784 q 11 836 11 830 l 11 876 q 5 941 11 880 l 5 1050 q 3 1053 5 1053 q 46 1096 12 1096 m 62 505 l 65 505 q 106 472 95 505 q 98 33 103 215 q 100 -30 100 -4 q 60 -62 90 -62 l 57 -62 q 11 16 11 -62 q 19 458 19 404 q 62 505 26 505 z "},"":{"ha":404,"x_min":5,"x_max":334,"o":"m 220 890 q 255 850 248 890 l 255 847 q 168 801 255 801 q 130 779 130 799 q 117 741 124 779 l 117 714 q 201 657 117 657 q 290 616 251 657 q 334 522 334 591 l 334 500 q 269 353 334 413 l 266 353 q 328 242 328 307 q 331 215 331 242 l 331 180 q 225 14 331 62 q 190 12 224 14 q 65 58 121 12 l 30 117 q 27 131 27 122 l 27 134 q 68 177 27 166 q 127 120 103 177 q 190 98 165 98 q 244 174 244 115 l 244 231 q 201 286 244 269 q 117 299 175 296 q 22 375 61 320 q 5 408 5 386 l 5 470 q 30 541 5 516 q 81 600 49 567 l 81 603 q 35 673 57 612 q 30 720 30 710 l 30 739 q 81 861 30 804 q 220 890 102 890 m 92 478 l 92 432 q 136 405 115 405 l 179 405 q 236 451 205 405 q 247 492 247 481 l 247 532 q 168 543 191 543 l 152 543 q 92 478 102 498 z "},"":{"ha":494,"x_min":35,"x_max":418,"o":"m 90 1118 q 144 1061 131 1118 l 144 1055 q 95 1006 134 1006 q 35 1061 35 1006 q 90 1118 45 1118 m 366 1115 q 418 1055 418 1115 l 418 1050 q 377 1009 413 1009 l 366 1009 q 315 1061 315 1019 q 366 1115 315 1102 z "},"":{"ha":793,"x_min":11,"x_max":703,"o":"m 290 951 q 426 926 426 951 q 456 907 426 914 q 616 777 564 867 q 678 631 678 694 q 703 487 703 507 l 703 427 q 648 256 703 363 q 529 85 608 134 q 380 23 441 23 q 298 15 380 16 l 274 15 q 46 170 140 15 q 16 321 16 268 l 16 357 q 11 495 16 383 q 65 734 11 589 q 285 951 117 852 l 290 951 m 98 492 q 103 357 103 388 l 103 321 q 225 113 103 175 q 263 102 252 102 l 298 102 q 448 137 391 102 q 548 237 519 175 q 608 381 548 247 q 616 425 616 411 l 616 487 q 578 677 597 627 q 502 783 558 715 q 361 845 458 817 q 331 864 361 847 l 315 864 q 184 761 286 860 q 119 625 151 725 q 98 492 98 538 m 322 711 q 479 662 396 711 q 490 632 490 646 l 490 629 q 450 589 486 589 l 439 589 q 347 621 355 621 l 314 621 q 249 483 249 554 q 246 431 246 483 q 279 328 256 328 q 319 309 283 319 l 338 309 q 422 380 364 309 q 466 420 433 420 l 469 420 q 509 380 509 416 l 509 369 q 417 250 509 328 q 360 222 372 222 l 300 222 q 205 274 236 239 q 159 431 159 336 q 176 556 159 556 q 243 675 176 593 q 322 708 269 708 l 322 711 z "},"":{"ha":439,"x_min":16,"x_max":323,"o":"m 130 963 q 206 939 206 954 q 266 884 250 920 q 274 814 271 878 q 290 711 290 758 q 323 621 298 675 l 323 608 q 282 567 318 567 l 277 567 q 236 605 236 572 l 233 605 q 165 581 197 581 l 152 581 q 33 643 81 581 q 22 681 22 659 q 35 738 22 694 q 92 803 57 789 q 184 825 127 819 l 184 846 q 127 876 151 876 q 52 863 73 863 q 16 903 23 863 l 16 906 q 65 949 16 944 l 130 963 m 114 692 l 114 684 q 155 667 114 677 q 201 722 190 667 l 198 738 q 114 692 114 738 z "},"":{"ha":640,"x_min":8,"x_max":537,"o":"m 239 705 l 241 705 q 282 665 282 701 l 282 659 q 220 581 282 628 q 114 469 199 546 q 217 309 183 376 q 290 198 290 224 l 290 193 q 250 152 286 152 l 247 152 q 187 209 214 152 q 111 323 152 244 q 57 401 95 340 q 8 472 8 446 l 8 475 q 57 537 8 505 q 179 662 75 548 q 209 694 199 677 q 239 705 223 705 m 491 684 q 537 640 537 676 l 537 637 q 496 586 537 612 q 358 448 496 575 q 437 326 376 427 q 480 271 454 318 q 486 252 486 271 l 486 250 q 445 209 481 209 l 442 209 q 388 255 407 209 q 307 372 372 256 q 255 448 255 422 l 255 450 q 315 526 255 476 q 464 675 411 619 q 491 684 467 675 z "},"":{"ha":688,"x_min":27,"x_max":597,"o":"m 68 583 q 220 575 206 575 l 534 575 q 597 532 597 575 l 597 404 q 556 363 592 363 l 553 363 q 510 407 510 370 l 510 488 l 220 488 q 43 507 43 495 q 27 540 27 518 l 27 543 q 68 583 32 583 z "},"":{"ha":718,"x_min":3,"x_max":646,"o":"m 309 966 q 469 930 429 954 q 559 857 523 897 q 602 795 602 798 q 646 637 646 701 l 646 594 q 629 477 646 573 q 597 401 629 439 q 456 298 520 325 q 353 282 402 282 l 220 282 q 95 336 160 282 q 30 445 55 361 q 3 610 3 549 q 73 825 12 730 q 138 901 86 848 q 236 949 173 949 l 277 949 q 309 966 289 959 m 293 863 l 233 863 q 165 800 218 863 q 117 724 153 791 q 90 608 90 637 q 133 420 90 528 q 228 369 184 369 l 353 369 q 543 475 455 369 q 559 591 543 490 l 559 646 q 524 760 559 670 q 388 865 450 858 q 323 873 388 871 q 293 863 307 863 m 274 838 q 431 757 322 838 q 453 681 453 723 l 453 654 q 361 556 453 611 l 361 553 q 431 461 431 492 l 431 458 q 391 418 427 418 l 385 418 q 334 458 352 418 l 277 510 q 247 410 272 410 q 228 404 247 404 l 225 404 q 182 445 193 404 q 190 524 190 484 q 222 817 190 817 q 274 838 248 838 m 285 746 q 279 673 285 739 l 279 629 l 282 629 q 363 667 333 629 l 366 667 l 366 686 q 301 735 366 706 q 285 746 301 740 z "},"":{"ha":454,"x_min":8,"x_max":431,"o":"m 49 1107 q 388 1090 123 1090 q 431 1047 431 1082 l 431 1044 q 399 1004 431 1015 q 19 1036 19 1004 q 8 1063 8 1045 l 8 1066 q 49 1107 13 1107 z "},"":{"ha":457,"x_min":0,"x_max":298,"o":"m 136 993 q 296 898 235 993 l 298 882 l 298 836 q 244 735 291 787 q 174 692 200 692 l 165 692 q 5 792 43 692 q 0 841 0 829 q 27 930 8 907 q 92 982 69 953 q 136 993 112 993 m 87 836 q 149 779 87 790 l 157 779 q 209 829 206 813 q 212 852 212 838 l 212 865 q 155 903 188 895 l 146 903 q 87 852 87 869 l 87 836 z "},"":{"ha":536,"x_min":-3,"x_max":467,"o":"m 192 101 q 190 130 190 114 q 182 258 182 180 l 182 282 q 122 279 141 279 l 54 279 q -3 323 -3 279 l -3 326 q 38 366 2 366 l 130 366 q 176 369 144 366 l 176 418 q 152 553 176 450 l 152 559 q 193 600 157 600 l 195 600 q 244 537 234 600 q 263 418 263 459 l 263 369 q 345 366 317 366 q 420 372 393 366 q 467 328 467 364 l 467 326 q 380 279 467 279 l 315 279 q 269 282 300 279 l 269 258 q 277 144 269 195 l 277 98 q 313 96 294 97 l 368 96 q 430 53 430 96 l 430 50 q 389 9 425 9 l 300 9 q 28 53 28 16 q 23 72 24 53 l 23 75 q 64 115 28 115 l 66 115 q 192 101 99 106 z "},"":{"ha":431,"x_min":30,"x_max":353,"o":"m 141 941 q 255 895 223 941 q 296 806 296 859 l 296 789 q 228 656 296 718 q 168 570 210 617 q 301 583 252 572 q 353 543 353 578 l 353 537 q 285 494 353 494 q 90 480 285 486 l 71 480 q 30 521 30 485 l 30 524 q 71 586 30 551 q 138 670 75 600 q 195 749 161 718 q 209 781 209 774 l 209 800 q 174 849 209 829 q 146 854 169 852 q 81 822 90 822 l 71 822 q 30 863 30 827 l 30 865 q 98 928 30 899 q 141 941 113 941 z "},"":{"ha":409,"x_min":15,"x_max":319,"o":"m 186 928 q 283 887 258 914 q 313 819 313 852 l 313 768 q 278 708 298 708 q 319 618 319 679 l 319 605 q 189 467 319 528 q 145 464 161 464 l 123 464 q 26 496 63 464 q 15 524 20 504 q 61 570 25 570 l 64 570 q 115 551 73 570 l 151 551 q 232 605 184 551 l 232 629 q 194 656 206 656 l 161 656 q 121 697 121 661 l 121 700 q 183 751 121 737 q 227 779 217 767 l 227 803 q 197 833 227 833 q 164 841 197 838 q 94 833 117 833 q 58 873 65 833 l 58 876 q 137 922 58 922 q 186 928 137 928 z "},"":{"ha":340,"x_min":3,"x_max":266,"o":"m 217 1139 l 225 1139 q 266 1099 266 1135 l 266 1096 q 206 1044 266 1058 l 90 993 q 49 979 56 979 l 43 979 q 3 1020 3 984 l 3 1023 q 87 1085 3 1067 q 217 1139 102 1104 z "},"":{"ha":497,"x_min":27,"x_max":439,"o":"m 71 673 l 73 673 q 114 632 114 668 l 114 526 q 119 431 119 439 l 119 347 q 117 165 119 284 q 157 130 128 142 l 182 130 q 269 241 222 130 q 285 353 285 340 l 285 526 q 312 643 290 643 q 334 648 322 648 l 336 648 q 380 575 380 648 l 380 570 l 377 532 q 426 125 407 125 q 439 81 439 95 l 439 73 q 399 33 435 33 l 396 33 q 342 98 359 33 q 328 157 328 122 l 326 157 q 260 71 308 120 q 184 43 224 43 l 152 43 q 117 49 129 43 q 119 -38 119 -9 l 119 -190 q 76 -260 119 -260 l 73 -260 q 30 -231 49 -260 q 33 -174 30 -221 q 30 122 33 -51 q 33 448 33 314 q 27 526 27 500 l 27 616 q 71 673 27 673 z "},"":{"ha":694,"x_min":5,"x_max":608,"o":"m 328 990 l 358 990 q 600 963 600 983 q 608 936 608 945 l 608 933 q 567 892 603 892 l 559 892 q 562 700 559 869 q 556 665 556 675 l 556 586 q 548 540 548 551 l 548 475 q 556 415 548 466 l 556 345 q 564 171 564 233 l 564 111 q 572 38 564 98 q 532 -3 568 -3 l 526 -3 q 483 60 483 -3 q 477 92 478 60 l 477 157 q 469 345 477 233 l 469 393 q 461 488 461 469 l 461 537 q 469 602 469 597 l 469 665 q 475 719 469 680 q 472 898 472 859 l 469 898 q 385 903 405 903 l 404 632 l 404 616 q 401 564 404 594 q 412 499 412 513 l 412 456 q 426 312 426 343 l 426 282 q 434 176 434 248 l 434 84 q 418 -8 434 -8 q 391 -19 409 -19 l 385 -19 q 345 11 358 -19 q 347 84 347 61 l 347 187 q 339 288 347 228 l 339 326 q 323 521 326 436 q 320 529 320 521 l 317 529 q 288 524 314 529 l 212 524 q 133 540 200 524 q 30 621 98 540 q 8 667 30 627 q 5 703 5 685 l 5 719 q 41 887 5 789 q 109 952 85 952 q 328 990 109 969 z "},"":{"ha":205,"x_min":14,"x_max":119,"o":"m 65 505 l 68 505 q 119 453 103 505 l 119 437 q 73 393 119 400 l 62 393 q 14 448 18 393 q 65 505 24 505 z "},"":{"ha":694,"x_min":106,"x_max":323,"o":"m 171 83 l 174 83 q 214 42 214 78 l 214 -28 l 225 -28 q 315 -102 286 -47 q 323 -132 323 -123 l 323 -170 q 277 -237 323 -197 q 220 -262 241 -262 q 109 -221 109 -262 q 106 -210 106 -221 l 106 -208 q 146 -164 106 -175 q 209 -175 182 -175 q 236 -153 227 -165 l 236 -148 q 206 -115 236 -127 q 174 -123 182 -123 l 171 -123 q 127 -66 127 -123 l 127 26 q 171 83 127 83 z "},"":{"ha":688,"x_min":5,"x_max":176,"o":"m 133 966 l 136 966 q 176 933 165 966 q 174 836 176 923 q 176 629 174 810 q 133 591 165 591 l 130 591 q 87 632 98 591 q 90 648 87 634 q 87 836 87 776 l 62 819 l 46 819 q 5 860 5 824 l 5 863 q 73 930 5 895 q 133 966 109 966 z "},"":{"ha":487,"x_min":8,"x_max":263,"o":"m 144 966 q 225 911 196 966 q 263 833 253 884 l 263 711 q 228 618 263 648 q 163 572 211 586 q 149 567 163 567 l 106 567 q 33 610 33 583 q 11 667 22 610 q 8 743 8 722 q 73 920 8 878 q 144 966 122 966 m 95 730 q 98 670 95 724 q 127 654 106 654 q 176 694 151 654 l 176 814 q 149 868 176 836 q 95 754 95 842 l 95 730 z "},"":{"ha":640,"x_min":3,"x_max":548,"o":"m 43 608 l 46 608 q 146 518 77 608 q 228 420 194 476 q 258 366 258 402 l 258 358 q 168 198 246 315 q 119 122 140 148 q 81 65 98 96 q 54 57 64 57 l 49 57 q 8 98 8 62 l 8 100 q 71 203 8 127 q 163 361 163 348 q 68 475 144 399 q 14 534 68 479 q 3 564 3 551 l 3 567 q 43 608 7 608 m 353 602 l 355 602 q 431 524 387 602 q 496 434 456 498 q 548 358 548 385 l 548 345 q 442 146 509 251 q 388 52 414 102 q 358 41 372 41 l 355 41 q 312 81 323 41 l 312 84 q 385 222 312 104 q 453 353 428 281 q 385 445 428 375 q 312 559 312 533 l 312 562 q 353 602 317 602 z "},"":{"ha":1002,"x_min":5,"x_max":911,"o":"m 803 876 q 849 833 849 869 l 849 830 q 779 751 849 800 q 326 301 520 489 q 146 117 232 199 q 68 27 146 105 l 49 24 l 46 24 q 5 65 5 29 l 5 68 q 81 168 5 96 q 231 328 81 176 q 412 510 231 333 q 675 773 417 510 q 768 863 768 857 q 803 876 779 871 m 206 901 q 252 854 252 895 q 266 651 255 766 l 266 540 q 222 486 266 486 l 217 486 q 176 515 190 486 q 179 575 179 556 l 179 665 q 171 738 171 724 l 171 760 l 168 765 l 155 762 l 149 762 q 109 803 109 767 l 109 806 q 193 898 109 837 q 206 901 201 898 m 773 448 l 776 448 q 819 374 819 448 q 825 231 822 231 q 876 233 840 231 q 911 193 905 233 l 911 187 q 838 144 911 144 q 822 141 822 144 q 808 16 822 16 q 779 5 792 5 l 776 5 q 732 52 740 5 q 735 133 735 100 l 735 138 l 613 138 q 567 212 567 138 l 567 388 q 610 445 567 445 l 613 445 q 654 404 654 440 l 654 225 l 735 225 l 735 228 q 732 404 735 271 l 730 404 q 773 448 739 448 z "},"":{"ha":958,"x_min":5,"x_max":849,"o":"m 803 876 q 849 833 849 869 l 849 830 q 779 751 849 800 q 326 301 520 489 q 146 117 232 199 q 68 27 146 105 l 49 24 l 46 24 q 5 65 5 29 l 5 68 q 81 168 5 96 q 231 328 81 176 q 412 510 231 333 q 675 773 417 510 q 768 863 768 857 q 803 876 779 871 m 203 887 q 250 854 233 887 q 247 760 247 791 l 247 583 q 198 480 247 480 l 195 480 q 152 537 152 480 q 160 581 152 544 l 160 760 l 157 760 q 117 741 135 741 l 114 741 q 73 781 73 745 l 73 784 q 155 863 73 817 q 203 887 180 884 m 640 426 q 722 388 722 410 q 743 334 743 351 q 724 228 743 249 q 632 130 698 195 l 618 114 l 624 114 q 730 127 698 114 q 776 84 776 120 l 776 81 q 640 27 776 27 q 532 24 560 24 q 496 65 503 24 l 496 76 q 575 201 505 120 q 656 298 656 270 l 656 317 q 646 336 656 329 q 578 309 587 309 l 567 309 q 526 350 526 314 l 526 353 q 640 426 526 396 z "},"":{"ha":951,"x_min":5,"x_max":849,"o":"m 803 876 q 849 833 849 869 l 849 830 q 779 751 849 800 q 326 301 520 489 q 146 117 232 199 q 68 27 146 105 l 49 24 l 46 24 q 5 65 5 29 l 5 68 q 81 168 5 96 q 231 328 81 176 q 412 510 231 333 q 675 773 417 510 q 768 863 768 857 q 803 876 779 871 m 111 833 l 187 833 q 320 800 320 833 q 326 781 326 800 l 326 768 q 271 703 326 741 l 263 692 l 263 689 q 307 624 287 689 q 309 600 309 609 l 309 597 q 212 483 309 535 q 122 472 138 472 l 109 472 q 35 515 53 486 q 27 548 31 548 q 71 591 36 591 l 73 591 q 117 562 98 591 l 130 559 q 217 594 187 559 l 220 594 l 220 605 q 157 640 220 631 q 136 678 136 656 l 136 681 q 187 741 136 713 l 190 746 l 95 746 q 54 787 54 751 l 54 789 q 111 833 54 833 m 570 391 l 572 391 q 613 350 613 386 l 602 225 q 646 195 602 207 l 646 317 q 689 374 646 374 l 692 374 q 732 334 732 370 l 732 190 l 770 190 q 814 146 814 183 l 814 144 q 773 103 809 103 l 735 103 q 738 62 738 76 l 738 46 q 697 5 733 5 l 694 5 q 648 92 648 5 q 637 109 648 109 q 545 152 545 129 q 513 214 513 198 l 515 220 q 551 385 522 385 q 570 391 551 390 z "},"":{"ha":507,"x_min":-3,"x_max":431,"o":"m 138 667 l 138 665 l 144 667 q 206 621 191 667 l 206 608 q 160 556 206 570 l 138 556 q 87 618 87 574 q 138 667 87 661 m 155 505 l 157 505 q 198 464 198 500 l 198 412 q 214 279 198 387 l 214 233 q 174 193 210 193 l 155 193 l 136 195 q 92 111 95 154 q 84 68 84 87 l 84 60 q 171 -46 122 -46 q 203 -60 191 -60 l 279 -60 q 361 -11 340 -41 q 388 0 370 0 l 391 0 q 431 -41 431 -5 l 431 -52 q 369 -119 431 -81 q 266 -146 319 -146 l 187 -146 q 54 -73 87 -121 q 0 33 24 -28 q -3 65 -3 47 l -3 68 q 30 206 -3 118 q 125 285 88 285 l 127 285 q 111 412 119 315 l 111 448 q 155 505 111 505 z "},"":{"ha":488,"x_min":0,"x_max":404,"o":"m 136 968 l 141 968 q 217 947 193 968 q 277 890 255 930 q 342 741 323 848 q 396 488 372 671 l 396 345 q 391 271 391 279 l 391 266 q 399 144 399 203 q 404 127 404 135 l 404 54 q 363 14 399 14 l 361 14 q 317 60 324 14 l 317 87 l 304 266 l 304 271 q 309 345 309 337 l 309 486 l 247 486 q 100 477 134 477 q 111 404 111 414 l 111 260 q 117 239 117 241 l 117 43 q 76 3 112 3 l 73 3 q 30 60 30 3 l 30 198 q 24 263 24 259 l 24 399 l 0 586 l 0 635 q 14 749 0 648 l 14 781 q 71 941 14 856 q 136 968 100 968 m 100 787 l 100 757 l 87 635 l 87 578 l 90 564 q 247 572 189 567 l 296 572 q 255 730 296 602 q 212 830 241 808 q 149 882 188 871 l 141 882 q 103 803 116 861 l 100 787 m 60 1145 l 71 1145 q 209 1082 170 1108 q 252 1034 252 1063 l 252 1031 q 212 990 248 990 l 203 990 q 130 1025 185 990 q 19 1096 19 1063 l 19 1104 q 60 1145 24 1145 z "},"":{"ha":488,"x_min":0,"x_max":404,"o":"m 136 968 l 141 968 q 217 947 193 968 q 277 890 255 930 q 342 741 323 848 q 396 488 372 671 l 396 345 q 391 271 391 279 l 391 266 q 399 144 399 203 q 404 127 404 135 l 404 54 q 363 14 399 14 l 361 14 q 317 60 324 14 l 317 87 l 304 266 l 304 271 q 309 345 309 337 l 309 486 l 247 486 q 100 477 134 477 q 111 404 111 414 l 111 260 q 117 239 117 241 l 117 43 q 76 3 112 3 l 73 3 q 30 60 30 3 l 30 198 q 24 263 24 259 l 24 399 l 0 586 l 0 635 q 14 749 0 648 l 14 781 q 71 941 14 856 q 136 968 100 968 m 100 787 l 100 757 l 87 635 l 87 578 l 90 564 q 247 572 189 567 l 296 572 q 255 730 296 602 q 212 830 241 808 q 149 882 188 871 l 141 882 q 103 803 116 861 l 100 787 m 201 1142 q 247 1099 247 1135 l 247 1096 q 190 1044 247 1060 q 76 987 149 1015 l 65 987 q 24 1028 24 992 l 24 1031 q 117 1101 24 1070 q 201 1142 159 1131 z "},"":{"ha":488,"x_min":0,"x_max":404,"o":"m 136 968 l 141 968 q 217 947 193 968 q 277 890 255 930 q 342 741 323 848 q 396 488 372 671 l 396 345 q 391 271 391 279 l 391 266 q 399 144 399 203 q 404 127 404 135 l 404 54 q 363 14 399 14 l 361 14 q 317 60 324 14 l 317 87 l 304 266 l 304 271 q 309 345 309 337 l 309 486 l 247 486 q 100 477 134 477 q 111 404 111 414 l 111 260 q 117 239 117 241 l 117 43 q 76 3 112 3 l 73 3 q 30 60 30 3 l 30 198 q 24 263 24 259 l 24 399 l 0 586 l 0 635 q 14 749 0 648 l 14 781 q 71 941 14 856 q 136 968 100 968 m 100 787 l 100 757 l 87 635 l 87 578 l 90 564 q 247 572 189 567 l 296 572 q 255 730 296 602 q 212 830 241 808 q 149 882 188 871 l 141 882 q 103 803 116 861 l 100 787 m 163 1156 l 165 1156 q 241 1112 185 1156 q 350 1020 350 1046 l 350 1012 q 309 971 345 971 l 304 971 q 233 1015 285 971 q 165 1058 229 1015 l 160 1058 q 49 987 71 987 l 46 987 q 5 1028 5 992 l 5 1031 q 73 1101 5 1061 q 163 1156 140 1156 z "},"":{"ha":488,"x_min":0,"x_max":404,"o":"m 136 968 l 141 968 q 217 947 193 968 q 277 890 255 930 q 342 741 323 848 q 396 488 372 671 l 396 345 q 391 271 391 279 l 391 266 q 399 144 399 203 q 404 127 404 135 l 404 54 q 363 14 399 14 l 361 14 q 317 60 324 14 l 317 87 l 304 266 l 304 271 q 309 345 309 337 l 309 486 l 247 486 q 100 477 134 477 q 111 404 111 414 l 111 260 q 117 239 117 241 l 117 43 q 76 3 112 3 l 73 3 q 30 60 30 3 l 30 198 q 24 263 24 259 l 24 399 l 0 586 l 0 635 q 14 749 0 648 l 14 781 q 71 941 14 856 q 136 968 100 968 m 100 787 l 100 757 l 87 635 l 87 578 l 90 564 q 247 572 189 567 l 296 572 q 255 730 296 602 q 212 830 241 808 q 149 882 188 871 l 141 882 q 103 803 116 861 l 100 787 m 304 1158 l 307 1158 q 347 1118 347 1154 l 347 1101 q 269 998 328 998 q 250 996 265 996 l 217 996 q 141 1058 186 996 q 127 1066 132 1066 q 84 1015 123 1066 q 57 1006 66 1006 l 54 1006 q 14 1047 14 1011 l 14 1050 q 79 1145 14 1078 q 138 1153 126 1153 q 225 1093 185 1153 l 236 1082 l 247 1082 q 269 1139 255 1089 q 304 1158 282 1158 z "},"":{"ha":488,"x_min":0,"x_max":404,"o":"m 136 968 l 141 968 q 217 947 193 968 q 277 890 255 930 q 342 741 323 848 q 396 488 372 671 l 396 345 q 391 271 391 279 l 391 266 q 399 144 399 203 q 404 127 404 135 l 404 54 q 363 14 399 14 l 361 14 q 317 60 324 14 l 317 87 l 304 266 l 304 271 q 309 345 309 337 l 309 486 l 247 486 q 100 477 134 477 q 111 404 111 414 l 111 260 q 117 239 117 241 l 117 43 q 76 3 112 3 l 73 3 q 30 60 30 3 l 30 198 q 24 263 24 259 l 24 399 l 0 586 l 0 635 q 14 749 0 648 l 14 781 q 71 941 14 856 q 136 968 100 968 m 100 787 l 100 757 l 87 635 l 87 578 l 90 564 q 247 572 189 567 l 296 572 q 255 730 296 602 q 212 830 241 808 q 149 882 188 871 l 141 882 q 103 803 116 861 l 100 787 m 60 1126 q 111 1066 103 1126 l 111 1063 q 68 1020 104 1020 l 65 1020 q 14 1069 14 1027 q 60 1126 14 1113 m 252 1123 l 255 1123 q 298 1061 298 1123 q 250 1023 288 1023 l 244 1023 q 201 1072 206 1023 q 252 1123 212 1123 z "},"":{"ha":488,"x_min":0,"x_max":404,"o":"m 100 787 l 100 757 l 87 635 l 87 578 l 90 564 q 247 572 189 567 l 296 572 q 255 730 296 602 q 212 830 241 808 q 149 882 188 871 l 141 882 q 103 803 116 861 l 100 787 m 153 1069 q 118 1044 153 1066 q 104 1009 104 1014 l 104 1004 q 142 996 125 996 q 202 1047 202 1017 l 202 1050 q 153 1069 176 1069 m 229 941 q 277 890 258 924 q 342 741 323 848 q 396 488 372 671 l 396 345 q 391 271 391 279 l 391 266 q 399 144 399 203 q 404 127 404 135 l 404 54 q 363 14 399 14 l 361 14 q 317 60 324 14 l 317 87 l 304 266 l 304 271 q 309 345 309 337 l 309 486 l 247 486 q 100 477 134 477 q 111 404 111 414 l 111 260 q 117 239 117 241 l 117 43 q 76 3 112 3 l 73 3 q 30 60 30 3 l 30 198 q 24 263 24 259 l 24 399 l 0 586 l 0 635 q 14 749 0 648 l 14 781 q 61 927 14 850 q 18 1009 18 954 q 64 1115 18 1065 q 132 1153 123 1153 l 145 1153 q 156 1150 151 1153 q 175 1156 175 1153 q 289 1063 289 1131 l 289 1055 q 229 941 289 975 z "},"":{"ha":759,"x_min":8,"x_max":689,"o":"m 176 977 q 236 963 199 977 l 391 968 q 621 947 621 968 q 629 920 629 929 l 629 917 q 594 876 623 876 q 385 882 536 876 q 315 879 369 879 l 315 873 q 347 635 347 731 l 350 635 q 526 648 490 648 l 586 648 q 610 651 595 648 q 656 608 656 644 l 656 605 q 594 562 656 562 l 526 562 q 350 548 490 562 q 355 401 355 477 q 380 174 363 367 l 380 152 q 388 100 388 115 l 388 92 q 654 109 433 100 q 689 62 689 92 l 689 60 q 651 19 684 19 q 374 -3 374 16 q 350 -11 364 -11 l 347 -11 q 301 71 301 -11 l 301 100 q 285 288 293 117 q 263 548 269 359 l 258 545 l 146 545 q 98 537 138 545 l 98 358 q 106 231 98 342 l 106 119 q 114 54 114 84 l 114 38 q 73 -3 109 -3 l 71 -3 q 24 84 24 -3 q 19 125 20 84 l 19 220 q 11 361 11 329 l 11 453 q 8 600 11 534 q 11 713 11 628 q 41 849 20 804 q 92 933 69 918 q 144 971 92 944 q 176 977 163 977 m 176 890 q 109 776 134 864 l 98 705 l 98 624 q 149 632 128 632 l 241 632 q 260 637 260 632 q 225 857 247 823 q 176 890 199 886 z "},"":{"ha":439,"x_min":14,"x_max":363,"o":"m 144 -11 q 73 38 73 16 q 14 195 14 122 q 16 372 16 314 q 24 420 24 411 l 24 469 q 30 521 30 515 l 30 597 q 49 846 35 765 q 109 939 73 914 q 176 968 109 954 q 255 944 215 968 q 326 844 321 867 q 339 692 335 844 q 298 656 339 663 l 296 656 q 252 730 252 656 q 228 836 248 836 q 182 879 203 879 q 127 760 127 863 q 117 597 123 760 l 117 521 q 111 469 111 475 l 111 453 q 103 353 111 387 q 100 195 103 317 q 144 87 100 159 q 187 71 161 75 l 233 71 q 274 195 274 100 q 320 231 293 231 l 323 231 q 363 190 363 226 l 363 182 q 353 95 358 165 q 239 -16 305 -16 l 231 -16 l 231 -27 q 274 -49 231 -29 q 334 -157 334 -103 l 334 -171 q 296 -239 334 -201 q 184 -269 254 -269 q 114 -233 114 -257 q 109 -214 109 -233 l 109 -212 q 149 -171 113 -171 l 152 -171 q 190 -182 184 -176 l 201 -182 q 247 -163 247 -172 l 247 -160 q 193 -111 228 -111 q 144 -54 144 -111 l 144 -11 z "},"":{"ha":437,"x_min":-5,"x_max":380,"o":"m 60 971 l 79 971 q 165 966 159 966 l 250 966 q 312 922 312 966 l 312 920 q 271 879 307 879 l 149 879 q 81 884 139 879 l 81 882 q 84 817 84 844 l 84 792 q 90 749 90 753 l 90 621 q 100 548 100 556 q 109 526 103 526 l 127 526 q 307 510 307 522 q 323 477 323 499 l 323 475 q 282 434 318 434 l 244 434 q 136 439 147 439 l 109 439 q 114 269 114 345 l 114 252 q 103 114 103 151 q 98 95 98 114 l 98 71 l 157 76 q 372 43 372 60 q 380 16 380 26 l 380 14 q 339 -27 375 -27 l 298 -27 l 163 -11 q 81 -16 151 -14 q 11 46 11 -16 l 11 92 q 19 152 11 115 l 19 171 q 27 258 19 182 l 27 279 q 3 616 27 473 l 3 724 q -5 901 -3 768 q 38 968 5 968 q 60 971 49 971 m 95 1147 l 98 1147 q 225 1050 133 1147 q 233 1025 233 1040 l 233 1023 q 193 982 229 982 l 187 982 q 103 1047 162 982 q 54 1104 54 1074 l 54 1107 q 95 1147 59 1147 z "},"":{"ha":437,"x_min":-5,"x_max":380,"o":"m 60 971 l 79 971 q 165 966 159 966 l 250 966 q 312 922 312 966 l 312 920 q 271 879 307 879 l 149 879 q 81 884 139 879 l 81 882 q 84 817 84 844 l 84 792 q 90 749 90 753 l 90 621 q 100 548 100 556 q 109 526 103 526 l 127 526 q 307 510 307 522 q 323 477 323 499 l 323 475 q 282 434 318 434 l 244 434 q 136 439 147 439 l 109 439 q 114 269 114 345 l 114 252 q 103 114 103 151 q 98 95 98 114 l 98 71 l 157 76 q 372 43 372 60 q 380 16 380 26 l 380 14 q 339 -27 375 -27 l 298 -27 l 163 -11 q 81 -16 151 -14 q 11 46 11 -16 l 11 92 q 19 152 11 115 l 19 171 q 27 258 19 182 l 27 279 q 3 616 27 473 l 3 724 q -5 901 -3 768 q 38 968 5 968 q 60 971 49 971 m 209 1147 q 255 1104 255 1140 l 255 1101 q 198 1044 255 1069 q 117 1001 129 1001 l 106 1001 q 65 1042 65 1006 l 65 1044 q 149 1115 65 1081 q 209 1147 180 1141 z "},"":{"ha":437,"x_min":-5,"x_max":380,"o":"m 60 971 l 79 971 q 165 966 159 966 l 250 966 q 312 922 312 966 l 312 920 q 271 879 307 879 l 149 879 q 81 884 139 879 l 81 882 q 84 817 84 844 l 84 792 q 90 749 90 753 l 90 621 q 100 548 100 556 q 109 526 103 526 l 127 526 q 307 510 307 522 q 323 477 323 499 l 323 475 q 282 434 318 434 l 244 434 q 136 439 147 439 l 109 439 q 114 269 114 345 l 114 252 q 103 114 103 151 q 98 95 98 114 l 98 71 l 157 76 q 372 43 372 60 q 380 16 380 26 l 380 14 q 339 -27 375 -27 l 298 -27 l 163 -11 q 81 -16 151 -14 q 11 46 11 -16 l 11 92 q 19 152 11 115 l 19 171 q 27 258 19 182 l 27 279 q 3 616 27 473 l 3 724 q -5 901 -3 768 q 38 968 5 968 q 60 971 49 971 m 141 1150 q 266 1072 187 1150 q 274 1047 274 1061 l 274 1044 q 233 1004 269 1004 l 228 1004 q 187 1025 209 1004 q 149 1055 169 1043 l 141 1055 q 68 1015 136 1055 l 54 1015 q 14 1055 14 1019 l 14 1058 q 98 1134 14 1092 l 141 1150 z "},"":{"ha":437,"x_min":-5,"x_max":380,"o":"m 60 971 l 79 971 q 165 966 159 966 l 250 966 q 312 922 312 966 l 312 920 q 271 879 307 879 l 149 879 q 81 884 139 879 l 81 882 q 84 817 84 844 l 84 792 q 90 749 90 753 l 90 621 q 100 548 100 556 q 109 526 103 526 l 127 526 q 307 510 307 522 q 323 477 323 499 l 323 475 q 282 434 318 434 l 244 434 q 136 439 147 439 l 109 439 q 114 269 114 345 l 114 252 q 103 114 103 151 q 98 95 98 114 l 98 71 l 157 76 q 372 43 372 60 q 380 16 380 26 l 380 14 q 339 -27 375 -27 l 298 -27 l 163 -11 q 81 -16 151 -14 q 11 46 11 -16 l 11 92 q 19 152 11 115 l 19 171 q 27 258 19 182 l 27 279 q 3 616 27 473 l 3 724 q -5 901 -3 768 q 38 968 5 968 q 60 971 49 971 m 60 1120 q 122 1080 122 1114 l 122 1063 q 81 1023 117 1023 l 54 1023 q 11 1063 22 1023 l 11 1066 q 60 1120 11 1105 m 233 1109 q 293 1072 293 1100 l 293 1055 q 247 1009 285 1009 l 225 1009 q 184 1061 194 1009 q 233 1109 193 1109 z "},"":{"ha":373,"x_min":-1,"x_max":295,"o":"m 132 966 q 176 964 160 964 l 224 964 q 287 920 287 964 l 287 918 q 246 877 282 877 l 192 877 l 192 793 q 203 641 192 700 q 189 199 189 224 q 200 79 190 143 l 233 79 q 295 36 295 79 l 295 33 q 254 -7 290 -7 l 64 -7 q 24 33 24 -3 l 24 36 q 81 79 24 79 l 111 79 q 102 207 105 113 q 116 646 116 640 q 105 793 105 692 l 105 877 q 35 871 75 871 q -1 912 6 871 l -1 915 q 86 961 -1 961 q 132 966 130 964 m 90 1139 l 100 1139 q 212 1074 107 1139 q 239 1031 239 1055 l 239 1028 q 198 987 234 987 l 193 987 q 114 1031 175 987 q 49 1096 49 1065 l 49 1099 q 90 1139 54 1139 z "},"":{"ha":373,"x_min":-1,"x_max":295,"o":"m 132 966 q 176 964 160 964 l 224 964 q 287 920 287 964 l 287 918 q 246 877 282 877 l 192 877 l 192 793 q 203 641 192 700 q 189 199 189 224 q 200 79 190 143 l 233 79 q 295 36 295 79 l 295 33 q 254 -7 290 -7 l 64 -7 q 24 33 24 -3 l 24 36 q 81 79 24 79 l 111 79 q 102 207 105 113 q 116 646 116 640 q 105 793 105 692 l 105 877 q 35 871 75 871 q -1 912 6 871 l -1 915 q 86 961 -1 961 q 132 966 130 964 m 195 1131 l 206 1131 q 247 1090 247 1126 l 247 1088 q 184 1034 247 1049 q 90 987 97 987 l 79 987 q 38 1028 38 992 l 38 1031 q 92 1085 38 1064 q 195 1131 132 1109 z "},"":{"ha":373,"x_min":-1,"x_max":295,"o":"m 132 966 q 176 964 160 964 l 224 964 q 287 920 287 964 l 287 918 q 246 877 282 877 l 192 877 l 192 793 q 203 641 192 700 q 189 199 189 224 q 200 79 190 143 l 233 79 q 295 36 295 79 l 295 33 q 254 -7 290 -7 l 64 -7 q 24 33 24 -3 l 24 36 q 81 79 24 79 l 111 79 q 102 207 105 113 q 116 646 116 640 q 105 793 105 692 l 105 877 q 35 871 75 871 q -1 912 6 871 l -1 915 q 86 961 -1 961 q 132 966 130 964 m 125 1150 q 263 1055 186 1150 q 279 1023 279 1044 l 279 1020 q 239 979 275 979 l 225 979 q 146 1053 208 979 q 136 1055 137 1055 q 49 987 78 987 l 46 987 q 5 1028 5 992 l 5 1031 q 62 1104 5 1057 q 125 1150 101 1150 z "},"":{"ha":373,"x_min":-1,"x_max":295,"o":"m 132 966 q 176 964 160 964 l 224 964 q 287 920 287 964 l 287 918 q 246 877 282 877 l 192 877 l 192 793 q 203 641 192 700 q 189 199 189 224 q 200 79 190 143 l 233 79 q 295 36 295 79 l 295 33 q 254 -7 290 -7 l 64 -7 q 24 33 24 -3 l 24 36 q 81 79 24 79 l 111 79 q 102 207 105 113 q 116 646 116 640 q 105 793 105 692 l 105 877 q 35 871 75 871 q -1 912 6 871 l -1 915 q 86 961 -1 961 q 132 966 130 964 m 236 1115 l 239 1115 q 285 1066 276 1115 l 285 1055 q 239 1009 277 1009 l 236 1009 q 187 1063 199 1009 l 187 1066 q 236 1115 197 1115 m 60 1112 l 62 1112 q 114 1066 114 1103 l 114 1053 q 73 1012 103 1012 l 54 1012 q 11 1058 18 1012 q 60 1112 22 1112 z "},"":{"ha":612,"x_min":3,"x_max":543,"o":"m 210 416 q 212 399 212 401 l 212 127 q 209 60 212 104 q 345 138 302 82 q 418 260 395 193 q 439 331 422 261 q 456 437 447 331 l 456 442 q 415 686 456 589 q 382 754 399 708 q 279 854 317 841 q 195 882 269 863 l 195 770 q 206 608 206 704 l 206 507 l 233 502 l 279 502 q 317 510 315 510 l 320 510 q 361 469 361 505 l 361 458 q 304 418 361 418 q 231 415 288 415 l 217 415 q 210 416 214 415 m 119 503 l 119 610 q 109 770 119 691 l 109 865 q 106 930 109 892 q 155 977 106 966 q 187 979 168 977 q 247 958 197 979 q 345 917 314 946 q 407 860 366 917 q 475 762 446 823 q 507 694 475 758 q 540 553 526 624 q 543 429 543 467 l 534 363 l 534 336 l 507 247 q 437 109 479 168 q 334 14 375 35 q 239 -24 265 -22 q 220 -30 239 -30 l 176 -30 q 114 14 114 -18 l 114 22 q 122 43 114 42 q 125 152 125 112 l 125 377 q 121 416 125 380 q 106 415 109 415 l 43 415 q 3 456 3 420 l 3 458 q 60 502 3 502 l 106 502 l 119 503 z "},"":{"ha":550,"x_min":5,"x_max":469,"o":"m 423 982 l 426 982 q 469 909 469 982 l 469 873 q 453 629 469 868 l 453 589 q 448 534 453 573 q 450 355 448 501 q 426 152 450 287 q 407 22 426 82 q 372 3 393 3 l 366 3 q 312 57 332 3 q 269 176 304 57 q 201 388 201 330 l 141 659 q 125 700 138 659 l 122 700 q 119 646 119 663 l 119 597 q 100 298 109 560 q 95 46 100 241 q 52 -8 95 -8 l 49 -8 q 5 33 16 -8 q 8 41 8 38 q 30 591 14 447 q 33 602 33 591 q 35 751 33 623 l 33 779 q 52 952 38 952 q 84 968 62 968 l 87 968 q 160 860 130 968 q 201 741 179 821 q 252 545 234 669 q 293 353 271 492 q 350 217 337 232 q 363 355 363 288 q 361 540 361 499 q 372 754 366 568 q 382 901 380 760 q 372 930 372 917 l 372 933 q 423 982 372 972 m 179 1126 l 195 1126 q 293 1080 239 1126 q 315 1074 296 1080 l 326 1074 q 353 1096 349 1074 q 388 1118 362 1118 l 391 1118 q 431 1077 431 1113 l 431 1061 q 385 998 419 1019 q 312 987 345 987 l 307 987 q 203 1036 258 987 l 187 1039 l 171 1039 q 106 1004 115 1004 l 95 1004 q 54 1044 54 1008 l 54 1047 q 100 1099 54 1078 q 179 1126 132 1126 z "},"":{"ha":611,"x_min":6,"x_max":532,"o":"m 191 966 q 288 939 255 966 q 378 880 319 930 q 473 768 435 838 q 532 576 496 745 l 532 410 q 508 299 532 401 q 467 144 492 207 q 277 -2 408 -2 l 264 -2 q 182 25 215 -2 q 96 101 168 25 q 50 191 62 152 q 14 326 14 275 q 17 462 14 368 q 6 616 9 522 q 25 793 12 741 q 68 882 51 838 q 147 947 85 909 q 191 966 162 966 m 93 614 q 104 462 98 493 q 101 315 101 377 q 142 196 119 244 q 196 128 146 171 q 231 98 201 112 q 264 85 248 85 l 283 85 q 356 123 323 89 q 413 261 376 137 q 446 418 429 353 l 446 546 q 405 717 446 588 q 318 814 360 788 q 204 877 245 874 q 134 806 134 844 q 96 654 96 765 q 93 614 93 627 m 130 1153 l 133 1153 q 241 1088 153 1153 q 274 1047 274 1077 l 274 1042 q 233 1001 269 1001 l 228 1001 q 152 1044 208 1001 q 90 1109 90 1080 l 90 1112 q 130 1153 94 1153 z "},"":{"ha":611,"x_min":6,"x_max":532,"o":"m 191 966 q 288 939 255 966 q 378 880 319 930 q 473 768 435 838 q 532 576 496 745 l 532 410 q 508 299 532 401 q 467 144 492 207 q 277 -2 408 -2 l 264 -2 q 182 25 215 -2 q 96 101 168 25 q 50 191 62 152 q 14 326 14 275 q 17 462 14 368 q 6 616 9 522 q 25 793 12 741 q 68 882 51 838 q 147 947 85 909 q 191 966 162 966 m 93 614 q 104 462 98 493 q 101 315 101 377 q 142 196 119 244 q 196 128 146 171 q 231 98 201 112 q 264 85 248 85 l 283 85 q 356 123 323 89 q 413 261 376 137 q 446 418 429 353 l 446 546 q 405 717 446 588 q 318 814 360 788 q 204 877 245 874 q 134 806 134 844 q 96 654 96 765 q 93 614 93 627 m 279 1142 l 288 1142 q 328 1101 328 1137 l 328 1099 q 241 1034 328 1057 q 157 990 241 1025 l 146 990 q 106 1031 106 995 l 106 1034 q 195 1104 106 1072 q 258 1134 201 1114 q 279 1142 260 1142 z "},"":{"ha":611,"x_min":6,"x_max":532,"o":"m 191 966 q 288 939 255 966 q 378 880 319 930 q 473 768 435 838 q 532 576 496 745 l 532 410 q 508 299 532 401 q 467 144 492 207 q 277 -2 408 -2 l 264 -2 q 182 25 215 -2 q 96 101 168 25 q 50 191 62 152 q 14 326 14 275 q 17 462 14 368 q 6 616 9 522 q 25 793 12 741 q 68 882 51 838 q 147 947 85 909 q 191 966 162 966 m 93 614 q 104 462 98 493 q 101 315 101 377 q 142 196 119 244 q 196 128 146 171 q 231 98 201 112 q 264 85 248 85 l 283 85 q 356 123 323 89 q 413 261 376 137 q 446 418 429 353 l 446 546 q 405 717 446 588 q 318 814 360 788 q 204 877 245 874 q 134 806 134 844 q 96 654 96 765 q 93 614 93 627 m 236 1147 q 334 1077 262 1147 q 380 1025 380 1056 l 380 1020 q 339 979 375 979 l 334 979 q 233 1047 309 979 l 231 1047 q 125 985 135 985 l 114 985 q 73 1025 73 989 l 73 1028 q 155 1101 73 1062 q 236 1147 196 1133 z "},"":{"ha":611,"x_min":6,"x_max":532,"o":"m 191 966 q 288 939 255 966 q 378 880 319 930 q 473 768 435 838 q 532 576 496 745 l 532 410 q 508 299 532 401 q 467 144 492 207 q 277 -2 408 -2 l 264 -2 q 182 25 215 -2 q 96 101 168 25 q 50 191 62 152 q 14 326 14 275 q 17 462 14 368 q 6 616 9 522 q 25 793 12 741 q 68 882 51 838 q 147 947 85 909 q 191 966 162 966 m 93 614 q 104 462 98 493 q 101 315 101 377 q 142 196 119 244 q 196 128 146 171 q 231 98 201 112 q 264 85 248 85 l 283 85 q 356 123 323 89 q 413 261 376 137 q 446 418 429 353 l 446 546 q 405 717 446 588 q 318 814 360 788 q 204 877 245 874 q 134 806 134 844 q 96 654 96 765 q 93 614 93 627 m 182 1120 q 271 1072 223 1120 l 293 1072 q 345 1112 314 1072 q 369 1120 355 1120 l 372 1120 q 412 1080 412 1116 l 412 1069 q 339 990 412 1040 q 282 985 287 985 q 193 1023 226 985 l 182 1031 q 111 1004 153 1031 q 87 993 97 993 l 76 993 q 35 1034 35 998 l 35 1036 q 111 1104 35 1071 q 182 1120 111 1112 z "},"":{"ha":611,"x_min":6,"x_max":532,"o":"m 191 966 q 288 939 255 966 q 378 880 319 930 q 473 768 435 838 q 532 576 496 745 l 532 410 q 508 299 532 401 q 467 144 492 207 q 277 -2 408 -2 l 264 -2 q 182 25 215 -2 q 96 101 168 25 q 50 191 62 152 q 14 326 14 275 q 17 462 14 368 q 6 616 9 522 q 25 793 12 741 q 68 882 51 838 q 147 947 85 909 q 191 966 162 966 m 93 614 q 104 462 98 493 q 101 315 101 377 q 142 196 119 244 q 196 128 146 171 q 231 98 201 112 q 264 85 248 85 l 283 85 q 356 123 323 89 q 413 261 376 137 q 446 418 429 353 l 446 546 q 405 717 446 588 q 318 814 360 788 q 204 877 245 874 q 134 806 134 844 q 96 654 96 765 q 93 614 93 627 m 79 1118 q 130 1077 117 1118 l 130 1061 q 84 1012 121 1012 l 81 1012 q 30 1069 41 1012 q 79 1118 39 1118 m 326 1118 q 388 1063 388 1101 l 388 1047 q 347 1006 383 1006 l 334 1006 q 279 1055 295 1006 q 277 1063 279 1058 q 326 1118 277 1103 z "},"":{"ha":548,"x_min":33,"x_max":458,"o":"m 81 621 l 84 621 q 157 564 110 621 q 247 486 177 552 q 328 572 247 491 q 385 613 358 613 l 388 613 q 429 572 429 608 l 429 570 q 391 513 429 543 q 309 426 391 509 q 412 336 322 410 q 453 285 412 331 q 458 260 458 267 l 458 255 q 418 214 454 214 l 412 214 q 361 260 379 214 q 260 347 325 300 q 255 361 255 356 q 146 271 208 319 q 76 217 102 217 l 73 217 q 33 258 33 222 l 33 260 q 179 410 33 300 l 187 420 q 43 564 43 547 q 41 578 41 569 l 41 581 q 81 621 45 621 z "},"":{"ha":611,"x_min":6,"x_max":532,"o":"m 357 781 q 318 814 338 802 q 204 877 245 874 q 134 806 134 844 q 96 654 96 765 q 93 614 93 627 q 104 462 98 493 q 101 315 101 377 q 114 268 107 290 q 279 605 253 563 q 357 781 292 630 m 413 691 q 363 572 389 635 q 203 250 336 538 q 162 161 196 239 q 196 128 175 146 q 231 98 201 112 q 264 85 248 85 l 283 85 q 356 123 323 89 q 413 261 376 137 q 446 418 429 353 l 446 546 q 413 691 446 583 m 64 153 q 50 191 55 174 q 14 326 14 275 q 17 462 14 368 q 6 616 9 522 q 25 793 12 741 q 68 882 51 838 q 147 947 85 909 q 191 966 162 966 q 288 939 255 966 q 378 880 319 930 q 392 869 385 874 q 445 963 404 903 q 477 979 454 979 l 480 979 q 521 939 521 975 l 521 933 q 496 879 507 879 q 459 792 478 857 q 473 768 466 781 q 532 576 496 745 l 532 410 q 508 299 532 401 q 467 144 492 207 q 277 -2 408 -2 l 264 -2 q 182 25 215 -2 q 121 75 171 25 q 79 27 90 28 q 65 24 74 24 l 62 24 q 22 65 22 29 l 22 81 q 64 153 47 115 z "},"":{"ha":498,"x_min":-3,"x_max":426,"o":"m 54 977 l 57 977 q 98 939 98 971 q 95 789 98 888 q 98 659 98 700 q 84 499 84 570 l 84 385 q 103 141 92 319 q 133 65 115 65 q 171 57 147 57 q 271 76 271 64 q 320 140 307 109 q 336 222 336 161 q 339 255 339 222 q 336 534 339 287 q 309 882 317 673 q 298 917 304 882 l 298 928 q 342 974 298 960 q 388 928 388 968 q 404 732 397 905 q 423 532 404 688 q 426 239 426 310 q 412 133 426 209 q 374 62 398 98 q 263 -24 332 -3 q 193 -30 211 -24 l 138 -30 q 71 3 90 -20 q 33 54 44 23 q 11 206 16 113 q -3 385 5 315 l -3 499 q 11 667 -3 568 q 8 792 11 701 q 11 930 11 888 q 54 977 18 977 m 130 1156 l 133 1156 q 247 1074 165 1156 q 255 1047 255 1057 l 255 1044 q 214 1004 250 1004 l 206 1004 q 163 1036 179 1004 q 90 1101 100 1078 l 90 1115 q 130 1156 94 1156 z "},"":{"ha":498,"x_min":-3,"x_max":426,"o":"m 54 977 l 57 977 q 98 939 98 971 q 95 789 98 888 q 98 659 98 700 q 84 499 84 570 l 84 385 q 103 141 92 319 q 133 65 115 65 q 171 57 147 57 q 271 76 271 64 q 320 140 307 109 q 336 222 336 161 q 339 255 339 222 q 336 534 339 287 q 309 882 317 673 q 298 917 304 882 l 298 928 q 342 974 298 960 q 388 928 388 968 q 404 732 397 905 q 423 532 404 688 q 426 239 426 310 q 412 133 426 209 q 374 62 398 98 q 263 -24 332 -3 q 193 -30 211 -24 l 138 -30 q 71 3 90 -20 q 33 54 44 23 q 11 206 16 113 q -3 385 5 315 l -3 499 q 11 667 -3 568 q 8 792 11 701 q 11 930 11 888 q 54 977 18 977 m 290 1134 q 336 1090 336 1126 l 336 1088 q 247 1031 336 1046 q 171 996 181 996 l 160 996 q 119 1036 119 1000 l 119 1039 q 290 1134 119 1090 z "},"":{"ha":498,"x_min":-3,"x_max":426,"o":"m 54 977 l 57 977 q 98 939 98 971 q 95 789 98 888 q 98 659 98 700 q 84 499 84 570 l 84 385 q 103 141 92 319 q 133 65 115 65 q 171 57 147 57 q 271 76 271 64 q 320 140 307 109 q 336 222 336 161 q 339 255 339 222 q 336 534 339 287 q 309 882 317 673 q 298 917 304 882 l 298 928 q 342 974 298 960 q 388 928 388 968 q 404 732 397 905 q 423 532 404 688 q 426 239 426 310 q 412 133 426 209 q 374 62 398 98 q 263 -24 332 -3 q 193 -30 211 -24 l 138 -30 q 71 3 90 -20 q 33 54 44 23 q 11 206 16 113 q -3 385 5 315 l -3 499 q 11 667 -3 568 q 8 792 11 701 q 11 930 11 888 q 54 977 18 977 m 214 1137 q 279 1085 239 1137 q 315 1034 315 1059 l 315 1028 q 274 987 310 987 l 271 987 q 206 1036 246 987 q 119 996 199 1036 l 106 996 q 65 1036 65 1000 l 65 1039 q 141 1104 65 1076 q 195 1137 186 1128 l 214 1137 z "},"":{"ha":498,"x_min":-3,"x_max":426,"o":"m 54 977 l 57 977 q 98 939 98 971 q 95 789 98 888 q 98 659 98 700 q 84 499 84 570 l 84 385 q 103 141 92 319 q 133 65 115 65 q 171 57 147 57 q 271 76 271 64 q 320 140 307 109 q 336 222 336 161 q 339 255 339 222 q 336 534 339 287 q 309 882 317 673 q 298 917 304 882 l 298 928 q 342 974 298 960 q 388 928 388 968 q 404 732 397 905 q 423 532 404 688 q 426 239 426 310 q 412 133 426 209 q 374 62 398 98 q 263 -24 332 -3 q 193 -30 211 -24 l 138 -30 q 71 3 90 -20 q 33 54 44 23 q 11 206 16 113 q -3 385 5 315 l -3 499 q 11 667 -3 568 q 8 792 11 701 q 11 930 11 888 q 54 977 18 977 m 95 1128 l 98 1128 q 144 1082 144 1120 l 144 1077 q 100 1034 137 1034 l 95 1034 q 52 1069 64 1034 l 52 1082 q 95 1128 58 1128 m 293 1115 l 296 1115 q 345 1072 345 1109 l 345 1063 q 304 1023 340 1023 l 290 1023 q 250 1063 250 1027 l 250 1072 q 293 1115 257 1115 z "},"":{"ha":597,"x_min":-1,"x_max":503,"o":"m 457 974 q 503 930 503 966 l 503 925 l 479 846 q 444 779 479 830 q 376 589 430 749 l 305 461 q 308 361 308 393 l 308 146 q 316 30 316 53 q 275 -3 305 -3 l 270 -3 q 227 71 227 -3 q 221 127 227 82 l 221 336 q 218 477 221 379 q 164 572 187 517 q 126 662 155 581 q 53 789 126 679 q -1 906 23 831 l -1 917 q 39 958 3 958 l 42 958 q 104 871 82 958 q 194 732 147 798 q 262 570 213 667 l 264 570 q 354 798 297 612 q 406 909 399 863 q 457 971 420 971 l 457 974 m 293 1134 q 339 1090 339 1126 l 339 1088 q 255 1025 339 1049 q 195 996 208 996 l 184 996 q 144 1036 144 1000 l 144 1039 q 269 1123 144 1083 q 293 1134 269 1129 z "},"":{"ha":734,"x_min":8,"x_max":648,"o":"m 68 958 l 71 958 q 111 920 111 952 q 109 776 109 797 l 298 776 q 526 749 395 776 q 635 581 616 669 q 648 515 648 553 l 648 491 q 578 304 648 408 q 442 198 482 211 q 323 163 442 190 q 212 149 237 149 l 198 149 q 103 152 167 149 l 103 149 q 114 46 114 90 l 114 41 q 73 0 109 0 l 71 0 q 27 41 38 0 q 8 323 8 233 l 8 336 q 22 651 8 513 l 22 749 q 35 941 22 941 q 68 958 46 958 m 109 689 l 109 651 q 95 334 95 500 l 95 301 q 103 239 95 239 q 214 236 181 236 q 410 282 366 252 q 521 374 452 296 q 562 483 557 441 l 562 518 q 521 629 545 589 q 477 670 481 670 q 304 689 371 689 l 109 689 z "},"":{"ha":618,"x_min":8,"x_max":534,"o":"m 201 926 q 307 897 248 926 q 418 821 393 869 q 445 736 445 764 l 445 701 q 401 587 445 637 q 361 528 401 583 q 456 463 399 520 q 534 262 534 390 l 534 240 q 475 115 534 191 q 315 31 381 31 q 266 26 288 26 q 201 47 212 26 l 193 72 q 231 115 204 115 q 271 113 237 115 q 374 148 330 113 q 448 245 448 201 l 448 270 q 342 441 448 377 q 252 460 316 452 q 228 500 228 482 q 266 555 228 530 q 355 682 340 633 q 358 712 358 697 q 290 810 358 789 q 203 840 212 840 l 201 840 q 114 804 114 825 q 95 774 95 787 l 95 718 q 114 555 95 676 q 122 354 114 465 l 122 302 q 138 194 138 210 l 138 28 q 95 -34 138 -34 l 92 -34 q 52 12 60 -34 l 52 194 l 35 302 l 35 354 q 27 555 27 465 q 8 731 8 655 l 8 764 q 49 864 8 828 q 106 907 71 893 q 201 926 165 926 z "},"":{"ha":550,"x_min":5,"x_max":507,"o":"m 195 703 q 374 656 326 703 q 454 534 450 595 l 456 467 q 477 187 464 270 l 507 38 q 467 -3 503 -3 l 464 -3 q 415 54 427 -3 q 396 146 412 58 l 393 146 q 336 57 382 102 q 241 14 311 29 l 182 10 l 127 14 q 59 37 73 27 q 38 60 45 47 q 22 111 31 72 q 19 141 22 117 q 41 241 30 241 q 127 334 58 290 q 209 363 166 363 q 336 374 209 369 q 369 442 355 374 l 369 488 q 350 556 369 541 q 206 616 314 616 q 125 576 179 616 q 57 480 80 484 l 46 480 q 5 521 5 485 l 5 532 q 62 643 26 592 q 195 703 144 703 m 336 285 l 312 285 q 174 258 191 285 q 106 141 106 222 q 141 103 106 105 q 157 100 141 100 l 217 100 q 277 122 248 100 q 334 255 319 166 l 342 288 l 336 285 m 155 922 l 163 922 q 269 871 269 891 q 320 803 320 830 l 320 798 q 279 757 315 757 l 277 757 q 228 789 252 757 q 138 838 199 823 q 114 879 114 857 l 114 882 q 155 922 119 922 z "},"":{"ha":550,"x_min":5,"x_max":507,"o":"m 195 703 q 374 656 326 703 q 454 534 450 595 l 456 467 q 477 187 464 270 l 507 38 q 467 -3 503 -3 l 464 -3 q 415 54 427 -3 q 396 146 412 58 l 393 146 q 336 57 382 102 q 241 14 311 29 l 182 10 l 127 14 q 59 37 73 27 q 38 60 45 47 q 22 111 31 72 q 19 141 22 117 q 41 241 30 241 q 127 334 58 290 q 209 363 166 363 q 336 374 209 369 q 369 442 355 374 l 369 488 q 350 556 369 541 q 206 616 314 616 q 125 576 179 616 q 57 480 80 484 l 46 480 q 5 521 5 485 l 5 532 q 62 643 26 592 q 195 703 144 703 m 336 285 l 312 285 q 174 258 191 285 q 106 141 106 222 q 141 103 106 105 q 157 100 141 100 l 217 100 q 277 122 248 100 q 334 255 319 166 l 342 288 l 336 285 m 263 892 l 274 892 q 315 852 315 888 l 315 849 q 220 773 315 806 q 152 735 164 735 l 141 735 q 100 776 100 740 l 100 779 q 171 844 100 812 q 233 876 179 850 q 263 892 251 892 z "},"":{"ha":550,"x_min":5,"x_max":507,"o":"m 195 703 q 374 656 326 703 q 454 534 450 595 l 456 467 q 477 187 464 270 l 507 38 q 467 -3 503 -3 l 464 -3 q 415 54 427 -3 q 396 146 412 58 l 393 146 q 336 57 382 102 q 241 14 311 29 l 182 10 l 127 14 q 59 37 73 27 q 38 60 45 47 q 22 111 31 72 q 19 141 22 117 q 41 241 30 241 q 127 334 58 290 q 209 363 166 363 q 336 374 209 369 q 369 442 355 374 l 369 488 q 350 556 369 541 q 206 616 314 616 q 125 576 179 616 q 57 480 80 484 l 46 480 q 5 521 5 485 l 5 532 q 62 643 26 592 q 195 703 144 703 m 336 285 l 312 285 q 174 258 191 285 q 106 141 106 222 q 141 103 106 105 q 157 100 141 100 l 217 100 q 277 122 248 100 q 334 255 319 166 l 342 288 l 336 285 m 220 930 q 296 887 250 930 q 391 792 354 846 l 391 779 q 350 738 386 738 l 342 738 q 285 784 314 738 l 222 833 q 98 757 108 757 l 87 757 q 46 798 46 762 l 46 800 q 130 876 46 834 q 220 930 210 930 z "},"":{"ha":550,"x_min":5,"x_max":507,"o":"m 195 703 q 374 656 326 703 q 454 534 450 595 l 456 467 q 477 187 464 270 l 507 38 q 467 -3 503 -3 l 464 -3 q 415 54 427 -3 q 396 146 412 58 l 393 146 q 336 57 382 102 q 241 14 311 29 l 182 10 l 127 14 q 59 37 73 27 q 38 60 45 47 q 22 111 31 72 q 19 141 22 117 q 41 241 30 241 q 127 334 58 290 q 209 363 166 363 q 336 374 209 369 q 369 442 355 374 l 369 488 q 350 556 369 541 q 206 616 314 616 q 125 576 179 616 q 57 480 80 484 l 46 480 q 5 521 5 485 l 5 532 q 62 643 26 592 q 195 703 144 703 m 336 285 l 312 285 q 174 258 191 285 q 106 141 106 222 q 141 103 106 105 q 157 100 141 100 l 217 100 q 277 122 248 100 q 334 255 319 166 l 342 288 l 336 285 m 182 917 q 296 852 237 917 l 317 841 q 334 884 326 847 q 372 906 350 906 l 374 906 q 415 865 415 901 q 353 760 415 791 q 317 754 340 754 q 201 822 261 754 q 174 830 181 830 q 111 776 139 830 q 73 757 92 757 l 71 757 q 30 798 30 762 l 30 800 q 90 890 30 827 q 182 917 118 917 z "},"":{"ha":550,"x_min":5,"x_max":507,"o":"m 195 703 q 374 656 326 703 q 454 534 450 595 l 456 467 q 477 187 464 270 l 507 38 q 467 -3 503 -3 l 464 -3 q 415 54 427 -3 q 396 146 412 58 l 393 146 q 336 57 382 102 q 241 14 311 29 l 182 10 l 127 14 q 59 37 73 27 q 38 60 45 47 q 22 111 31 72 q 19 141 22 117 q 41 241 30 241 q 127 334 58 290 q 209 363 166 363 q 336 374 209 369 q 369 442 355 374 l 369 488 q 350 556 369 541 q 206 616 314 616 q 125 576 179 616 q 57 480 80 484 l 46 480 q 5 521 5 485 l 5 532 q 62 643 26 592 q 195 703 144 703 m 336 285 l 312 285 q 174 258 191 285 q 106 141 106 222 q 141 103 106 105 q 157 100 141 100 l 217 100 q 277 122 248 100 q 334 255 319 166 l 342 288 l 336 285 m 114 906 q 165 868 140 906 l 168 852 l 168 844 q 125 789 168 810 l 111 789 q 60 846 69 789 q 106 906 60 888 l 114 906 m 369 887 l 372 887 q 412 846 412 882 l 412 819 q 374 776 412 787 l 355 776 q 309 827 318 776 q 369 887 325 887 z "},"":{"ha":550,"x_min":5,"x_max":507,"o":"m 195 703 q 374 656 326 703 q 454 534 450 595 l 456 467 q 477 187 464 270 l 507 38 q 467 -3 503 -3 l 464 -3 q 415 54 427 -3 q 396 146 412 58 l 393 146 q 336 57 382 102 q 241 14 311 29 l 182 10 l 127 14 q 59 37 73 27 q 38 60 45 47 q 22 111 31 72 q 19 141 22 117 q 41 241 30 241 q 127 334 58 290 q 209 363 166 363 q 336 374 209 369 q 369 442 355 374 l 369 488 q 350 556 369 541 q 206 616 314 616 q 125 576 179 616 q 57 480 80 484 l 46 480 q 5 521 5 485 l 5 532 q 62 643 26 592 q 195 703 144 703 m 336 285 l 312 285 q 174 258 191 285 q 106 141 106 222 q 141 103 106 105 q 157 100 141 100 l 217 100 q 277 122 248 100 q 334 255 319 166 l 342 288 l 336 285 z "},"":{"ha":849,"x_min":9,"x_max":777,"o":"m 161 703 l 172 703 q 278 670 221 703 q 362 618 312 666 l 362 613 l 365 613 q 484 684 407 662 q 560 694 549 694 q 650 662 623 694 q 720 562 697 636 q 742 477 742 513 q 745 399 745 464 l 745 380 q 690 336 745 336 q 435 353 604 336 q 427 355 435 355 l 427 353 q 463 198 452 218 q 525 103 463 133 q 568 92 543 92 q 642 127 609 92 q 677 171 667 144 q 715 255 696 245 l 734 258 l 736 258 q 777 217 777 253 l 777 195 q 739 109 752 110 q 639 16 728 71 l 582 5 q 406 95 453 5 q 392 122 392 113 l 389 122 q 351 57 389 98 q 251 -3 319 15 q 229 -5 249 -3 q 134 -3 176 -3 q 69 41 110 5 q 28 87 28 64 q 9 146 24 87 q 34 307 21 307 q 161 464 73 418 q 262 496 201 483 q 319 515 271 496 l 319 524 q 256 586 294 572 q 183 616 248 586 l 159 616 l 69 591 l 61 591 q 20 632 20 596 l 20 635 q 104 692 20 678 q 161 703 104 699 m 411 496 q 425 442 414 466 q 658 423 564 426 l 658 429 q 636 532 658 497 q 574 608 636 572 l 563 608 q 441 567 505 608 q 411 496 435 541 m 96 155 q 110 119 106 123 q 164 84 153 84 l 170 84 q 227 81 191 84 q 286 114 264 94 l 305 141 q 330 206 325 186 q 340 317 340 302 l 340 323 q 327 423 340 347 l 227 396 q 180 374 227 393 q 126 298 130 324 q 96 155 96 245 z "},"":{"ha":584,"x_min":5,"x_max":488,"o":"m 203 9 q 109 73 157 28 q 27 225 55 110 q 5 382 5 309 q 87 610 5 483 q 228 686 151 686 q 252 689 228 689 q 342 654 342 676 q 347 635 347 654 l 347 632 q 307 591 342 591 l 304 591 l 239 602 q 95 407 141 602 q 92 382 92 392 q 141 163 94 266 q 271 84 220 84 l 304 84 q 377 123 362 107 q 412 179 392 138 q 442 193 425 186 q 488 149 488 185 l 488 141 q 420 43 484 111 q 336 -3 381 16 l 290 -3 l 290 -24 q 355 -122 355 -64 l 355 -144 q 304 -214 355 -174 l 288 -217 l 279 -217 q 182 -157 182 -202 l 182 -155 q 222 -114 186 -114 l 225 -114 q 269 -122 239 -114 q 225 -98 264 -108 q 203 -46 203 -83 l 203 9 z "},"":{"ha":542,"x_min":2,"x_max":482,"o":"m 211 634 q 330 607 260 634 q 479 395 479 506 q 447 333 479 333 q 368 319 425 323 q 287 303 345 303 q 216 290 275 298 q 100 262 170 274 l 100 257 q 176 127 137 164 q 249 97 203 97 l 279 97 q 393 197 339 97 q 436 227 411 222 q 482 184 482 220 l 482 181 q 447 119 482 164 q 336 18 411 54 q 276 10 311 10 l 230 10 q 146 37 185 12 q 73 121 87 83 q 5 268 42 152 q 2 314 2 300 l 2 317 q 21 458 2 401 q 35 490 28 463 q 54 528 39 492 q 162 618 125 618 q 211 634 165 625 m 89 349 l 92 349 q 219 379 106 349 q 355 406 326 393 q 387 409 369 409 l 390 409 l 390 412 q 374 452 382 427 q 265 534 301 534 q 219 547 258 542 q 127 477 154 526 q 89 349 89 401 m 157 898 l 174 898 q 282 806 241 862 q 312 789 282 802 q 328 749 328 765 l 328 743 q 288 703 323 703 l 282 703 q 187 784 244 703 q 117 854 117 823 l 117 857 q 157 898 121 898 z "},"":{"ha":542,"x_min":2,"x_max":482,"o":"m 211 634 q 330 607 260 634 q 479 395 479 506 q 447 333 479 333 q 368 319 425 323 q 287 303 345 303 q 216 290 275 298 q 100 262 170 274 l 100 257 q 176 127 137 164 q 249 97 203 97 l 279 97 q 393 197 339 97 q 436 227 411 222 q 482 184 482 220 l 482 181 q 447 119 482 164 q 336 18 411 54 q 276 10 311 10 l 230 10 q 146 37 185 12 q 73 121 87 83 q 5 268 42 152 q 2 314 2 300 l 2 317 q 21 458 2 401 q 35 490 28 463 q 54 528 39 492 q 162 618 125 618 q 211 634 165 625 m 89 349 l 92 349 q 219 379 106 349 q 355 406 326 393 q 387 409 369 409 l 390 409 l 390 412 q 374 452 382 427 q 265 534 301 534 q 219 547 258 542 q 127 477 154 526 q 89 349 89 401 m 298 892 l 309 892 q 347 849 338 892 l 347 846 q 258 770 347 808 q 152 708 188 721 l 141 708 q 100 749 100 713 l 100 751 q 176 819 100 787 l 266 876 q 298 892 277 892 z "},"":{"ha":542,"x_min":2,"x_max":482,"o":"m 211 634 q 330 607 260 634 q 479 395 479 506 q 447 333 479 333 q 368 319 425 323 q 287 303 345 303 q 216 290 275 298 q 100 262 170 274 l 100 257 q 176 127 137 164 q 249 97 203 97 l 279 97 q 393 197 339 97 q 436 227 411 222 q 482 184 482 220 l 482 181 q 447 119 482 164 q 336 18 411 54 q 276 10 311 10 l 230 10 q 146 37 185 12 q 73 121 87 83 q 5 268 42 152 q 2 314 2 300 l 2 317 q 21 458 2 401 q 35 490 28 463 q 54 528 39 492 q 162 618 125 618 q 211 634 165 625 m 89 349 l 92 349 q 219 379 106 349 q 355 406 326 393 q 387 409 369 409 l 390 409 l 390 412 q 374 452 382 427 q 265 534 301 534 q 219 547 258 542 q 127 477 154 526 q 89 349 89 401 m 228 903 q 309 838 261 903 q 347 787 337 790 q 372 749 372 775 l 372 746 q 331 705 367 705 l 320 705 q 269 741 269 724 q 233 798 265 741 q 228 803 228 798 q 138 732 189 775 q 109 722 122 722 l 106 722 q 65 762 65 726 l 65 765 q 122 830 65 795 q 228 903 191 892 z "},"":{"ha":542,"x_min":2,"x_max":482,"o":"m 211 634 q 330 607 260 634 q 479 395 479 506 q 447 333 479 333 q 368 319 425 323 q 287 303 345 303 q 216 290 275 298 q 100 262 170 274 l 100 257 q 176 127 137 164 q 249 97 203 97 l 279 97 q 393 197 339 97 q 436 227 411 222 q 482 184 482 220 l 482 181 q 447 119 482 164 q 336 18 411 54 q 276 10 311 10 l 230 10 q 146 37 185 12 q 73 121 87 83 q 5 268 42 152 q 2 314 2 300 l 2 317 q 21 458 2 401 q 35 490 28 463 q 54 528 39 492 q 162 618 125 618 q 211 634 165 625 m 89 349 l 92 349 q 219 379 106 349 q 355 406 326 393 q 387 409 369 409 l 390 409 l 390 412 q 374 452 382 427 q 265 534 301 534 q 219 547 258 542 q 127 477 154 526 q 89 349 89 401 m 103 827 q 155 781 155 820 l 155 765 q 106 716 140 716 l 84 716 q 43 762 56 716 q 103 827 66 827 m 331 827 l 334 827 q 385 789 363 827 q 388 776 388 785 l 388 765 q 336 713 376 713 l 320 713 q 277 754 288 713 l 277 757 q 331 827 288 827 z "},"":{"ha":182,"x_min":-92,"x_max":117,"o":"m 52 681 l 54 681 q 95 640 95 676 q 103 562 103 602 l 103 488 q 111 334 103 468 l 111 323 q 117 46 111 206 q 76 14 106 14 l 73 14 q 30 54 41 14 q 24 312 24 177 l 24 334 q 16 488 16 468 l 16 562 q 8 637 16 606 q 52 681 17 681 m -52 939 l -49 939 q 65 863 -20 939 q 95 819 79 836 q 111 787 111 808 l 111 779 q 71 738 106 738 l 68 738 q 0 803 37 738 q -84 868 -23 826 q -92 895 -92 886 l -92 898 q -52 939 -87 939 z "},"":{"ha":182,"x_min":8,"x_max":195,"o":"m 52 681 l 54 681 q 95 640 95 676 q 103 562 103 602 l 103 488 q 111 334 103 468 l 111 323 q 117 46 111 206 q 76 14 106 14 l 73 14 q 30 54 41 14 q 24 312 24 177 l 24 334 q 16 488 16 468 l 16 562 q 8 637 16 606 q 52 681 17 681 m 146 947 q 195 903 195 941 l 195 901 q 171 860 195 878 l 114 800 q 52 760 76 760 l 49 760 q 8 800 8 764 l 8 803 q 62 871 8 831 q 130 941 121 941 l 146 947 z "},"":{"ha":182,"x_min":-100,"x_max":184,"o":"m 52 681 l 54 681 q 95 640 95 676 q 103 562 103 602 l 103 488 q 111 334 103 468 l 111 323 q 117 46 111 206 q 76 14 106 14 l 73 14 q 30 54 41 14 q 24 312 24 177 l 24 334 q 16 488 16 468 l 16 562 q 8 637 16 606 q 52 681 17 681 m 30 928 l 33 928 q 109 863 66 928 q 136 830 113 863 q 184 773 184 796 l 184 768 q 144 727 180 727 l 141 727 q 49 800 103 727 l 33 817 q -54 746 -35 746 l -60 746 q -100 787 -100 751 l -100 789 q -27 882 -100 819 q 30 928 -1 928 z "},"":{"ha":182,"x_min":-90,"x_max":182,"o":"m -38 892 l -35 892 q 19 846 19 885 l 19 840 q -35 781 5 781 l -43 781 q -90 832 -90 787 l -90 838 q -38 892 -82 892 m 52 681 l 54 681 q 95 640 95 676 q 103 562 103 602 l 103 488 q 111 334 103 468 l 111 323 q 117 46 111 206 q 76 14 106 14 l 73 14 q 30 54 41 14 q 24 312 24 177 l 24 334 q 16 488 16 468 l 16 562 q 8 637 16 606 q 52 681 17 681 m 125 892 l 128 892 q 182 846 182 885 l 182 840 q 128 781 168 781 l 120 781 q 74 832 74 787 l 74 838 q 125 892 81 892 z "},"":{"ha":610,"x_min":1,"x_max":538,"o":"m 101 204 l 101 199 q 142 112 101 164 q 207 87 195 87 l 223 87 q 332 109 300 87 q 394 163 368 125 q 451 313 451 248 l 451 408 q 424 421 445 408 q 380 432 386 432 l 340 432 q 109 269 214 432 q 101 204 101 234 m 288 749 q 158 795 214 783 l 123 795 q 50 771 57 771 l 41 771 q 1 812 1 776 l 1 814 q 120 882 1 864 l 147 882 q 356 809 233 882 l 368 798 q 473 856 450 856 l 476 856 q 517 815 517 851 l 517 807 q 438 742 517 774 q 432 736 435 740 q 462 695 458 709 q 519 513 519 572 q 538 348 538 484 l 538 315 q 511 191 538 249 q 416 58 467 99 q 258 1 338 1 l 177 1 q 60 74 73 38 q 14 199 14 140 q 66 359 14 308 q 163 459 86 399 q 348 519 241 519 l 370 519 q 432 511 405 519 q 367 682 432 566 l 359 688 q 294 650 331 671 q 229 609 254 609 l 227 609 q 186 650 186 614 l 186 652 q 288 749 186 688 z "},"":{"ha":519,"x_min":5,"x_max":439,"o":"m 49 713 l 52 713 q 92 673 92 709 l 92 659 l 95 659 q 231 686 168 686 q 366 608 305 686 q 429 391 408 555 q 439 274 439 292 q 437 -3 439 206 q 396 -38 437 -31 l 393 -38 q 350 11 355 -38 q 353 277 353 195 q 315 513 336 477 q 260 589 300 565 q 231 600 235 600 l 214 600 q 92 564 191 600 q 98 363 98 473 q 92 165 98 247 q 100 3 100 88 q 60 -33 100 -26 l 57 -33 q 14 14 20 -33 q 5 165 11 125 q 11 369 11 248 q 5 643 11 382 l 5 656 q 49 713 5 713 m 146 922 q 247 865 210 922 q 298 849 269 849 l 301 849 q 347 887 321 859 l 366 890 l 369 890 q 410 849 410 885 l 410 844 q 328 762 410 806 l 285 762 q 176 814 220 762 q 141 836 163 836 q 65 789 85 789 l 62 789 q 22 830 22 794 l 22 833 q 103 914 22 867 q 146 922 117 920 z "},"":{"ha":620,"x_min":5,"x_max":556,"o":"m 214 652 q 342 627 313 652 q 480 543 465 578 q 545 386 504 521 q 556 315 556 349 q 469 74 556 216 q 320 6 408 6 l 315 6 q 54 115 151 6 q 5 261 20 157 l 8 267 l 8 272 q 41 467 8 340 q 84 546 62 523 q 168 630 84 557 q 214 652 168 647 m 95 272 l 95 267 q 92 264 95 264 q 130 161 103 186 q 260 96 183 115 q 320 93 308 93 q 453 242 410 93 q 469 321 469 274 q 420 478 469 351 q 336 532 401 509 q 252 557 292 557 l 228 559 q 133 462 161 518 q 95 272 95 355 m 203 914 l 206 914 q 298 841 238 914 q 334 795 298 836 l 336 779 l 336 773 q 296 732 332 732 l 293 732 q 220 800 259 732 q 163 871 163 844 l 163 873 q 203 914 168 914 z "},"":{"ha":620,"x_min":5,"x_max":556,"o":"m 214 652 q 342 627 313 652 q 480 543 465 578 q 545 386 504 521 q 556 315 556 349 q 469 74 556 216 q 320 6 408 6 l 315 6 q 54 115 151 6 q 5 261 20 157 l 8 267 l 8 272 q 41 467 8 340 q 84 546 62 523 q 168 630 84 557 q 214 652 168 647 m 95 272 l 95 267 q 92 264 95 264 q 130 161 103 186 q 260 96 183 115 q 320 93 308 93 q 453 242 410 93 q 469 321 469 274 q 420 478 469 351 q 336 532 401 509 q 252 557 292 557 l 228 559 q 133 462 161 518 q 95 272 95 355 m 323 892 q 369 849 369 885 l 369 846 q 290 779 369 808 q 222 741 233 741 l 212 741 q 171 781 171 745 l 171 784 q 231 844 171 817 q 323 892 257 863 z "},"":{"ha":620,"x_min":5,"x_max":556,"o":"m 214 652 q 342 627 313 652 q 480 543 465 578 q 545 386 504 521 q 556 315 556 349 q 469 74 556 216 q 320 6 408 6 l 315 6 q 54 115 151 6 q 5 261 20 157 l 8 267 l 8 272 q 41 467 8 340 q 84 546 62 523 q 168 630 84 557 q 214 652 168 647 m 95 272 l 95 267 q 92 264 95 264 q 130 161 103 186 q 260 96 183 115 q 320 93 308 93 q 453 242 410 93 q 469 321 469 274 q 420 478 469 351 q 336 532 401 509 q 252 557 292 557 l 228 559 q 133 462 161 518 q 95 272 95 355 m 263 914 q 350 849 289 914 q 396 792 396 817 l 396 784 q 355 743 391 743 l 353 743 q 260 814 326 743 l 258 814 q 157 743 182 743 l 155 743 q 114 784 114 748 l 114 787 q 206 882 114 819 q 263 914 209 895 z "},"":{"ha":620,"x_min":5,"x_max":556,"o":"m 214 652 q 342 627 313 652 q 480 543 465 578 q 545 386 504 521 q 556 315 556 349 q 469 74 556 216 q 320 6 408 6 l 315 6 q 54 115 151 6 q 5 261 20 157 l 8 267 l 8 272 q 41 467 8 340 q 84 546 62 523 q 168 630 84 557 q 214 652 168 647 m 95 272 l 95 267 q 92 264 95 264 q 130 161 103 186 q 260 96 183 115 q 320 93 308 93 q 453 242 410 93 q 469 321 469 274 q 420 478 469 351 q 336 532 401 509 q 252 557 292 557 l 228 559 q 133 462 161 518 q 95 272 95 355 m 220 890 l 222 890 q 309 849 309 865 l 342 819 l 347 819 q 399 849 385 819 q 437 876 408 876 l 439 876 q 480 836 480 871 l 480 825 q 361 732 447 732 l 339 732 q 241 792 296 732 q 209 803 235 792 q 144 757 186 793 q 114 746 127 746 l 111 746 q 71 787 71 751 l 71 789 q 174 884 71 827 q 220 890 210 890 z "},"":{"ha":620,"x_min":5,"x_max":556,"o":"m 214 652 q 342 627 313 652 q 480 543 465 578 q 545 386 504 521 q 556 315 556 349 q 469 74 556 216 q 320 6 408 6 l 315 6 q 54 115 151 6 q 5 261 20 157 l 8 267 l 8 272 q 41 467 8 340 q 84 546 62 523 q 168 630 84 557 q 214 652 168 647 m 95 272 l 95 267 q 92 264 95 264 q 130 161 103 186 q 260 96 183 115 q 320 93 308 93 q 453 242 410 93 q 469 321 469 274 q 420 478 469 351 q 336 532 401 509 q 252 557 292 557 l 228 559 q 133 462 161 518 q 95 272 95 355 m 141 846 l 152 846 q 203 800 190 846 l 203 795 q 157 749 195 749 l 138 749 q 95 798 109 749 q 130 844 104 844 q 141 846 130 846 m 391 844 q 445 803 422 844 q 448 789 448 798 l 448 781 q 407 741 443 741 l 391 741 q 345 792 352 741 q 391 844 345 831 z "},"":{"ha":688,"x_min":38,"x_max":586,"o":"m 309 627 q 361 578 361 616 l 361 567 q 315 518 352 518 l 304 518 q 260 567 266 518 q 298 621 273 621 q 309 627 309 625 m 328 467 l 334 467 q 515 458 479 467 q 553 461 532 461 q 586 418 586 446 l 586 415 q 515 372 586 372 l 505 372 q 350 380 456 380 l 345 380 q 71 377 247 380 q 38 418 38 388 l 38 420 q 79 464 38 453 l 81 464 q 328 467 239 467 m 304 307 q 363 263 340 307 q 366 250 366 258 l 366 239 q 326 198 361 198 l 312 198 q 255 260 267 198 q 304 307 255 296 z "},"":{"ha":620,"x_min":5,"x_max":556,"o":"m 332 535 q 252 557 290 557 l 228 559 q 133 462 161 518 q 95 272 95 355 l 95 267 q 92 264 95 264 q 111 191 98 219 q 114 195 112 193 q 190 315 166 273 q 293 475 190 328 q 332 535 310 505 m 409 492 q 393 475 401 484 q 271 288 369 434 q 172 130 264 256 q 260 96 212 108 q 320 93 308 93 q 453 242 410 93 q 469 321 469 274 q 420 478 469 351 q 409 492 416 486 m 54 115 q 5 261 20 157 l 8 267 l 8 272 q 41 467 8 340 q 84 546 62 523 q 168 630 84 557 q 214 652 168 647 q 342 627 313 652 q 390 606 368 616 q 399 616 395 611 q 469 700 429 665 l 486 703 l 488 703 q 529 662 529 698 l 529 654 q 483 586 529 629 q 466 562 477 576 q 480 543 476 552 q 545 386 504 521 q 556 315 556 349 q 469 74 556 216 q 320 6 408 6 l 315 6 q 120 58 201 6 q 65 3 97 3 l 62 3 q 22 43 22 7 l 22 60 q 54 115 36 87 z "},"":{"ha":581,"x_min":24,"x_max":510,"o":"m 382 708 q 423 651 423 708 q 448 456 437 525 q 467 231 461 379 q 480 152 477 223 q 491 95 487 140 q 510 41 510 52 l 510 33 q 469 -8 505 -8 l 467 -8 q 404 98 420 -8 l 401 98 q 274 0 328 0 l 233 0 q 73 92 111 0 q 43 233 43 157 q 33 426 37 233 q 24 499 30 426 l 24 635 q 68 692 24 692 l 71 692 q 111 651 111 687 l 111 486 q 125 260 125 396 q 152 138 140 138 q 214 87 152 100 l 263 87 q 334 157 285 87 q 355 250 355 231 l 355 382 q 336 621 350 517 l 336 656 q 377 708 342 708 l 382 708 m 138 936 l 141 936 q 225 879 165 936 q 285 822 239 879 q 290 800 290 812 l 290 798 q 250 757 286 757 l 244 757 q 182 806 220 757 q 98 892 98 859 l 98 895 q 138 936 102 936 z "},"":{"ha":581,"x_min":24,"x_max":510,"o":"m 382 708 q 423 651 423 708 q 448 456 437 525 q 467 231 461 379 q 480 152 477 223 q 491 95 487 140 q 510 41 510 52 l 510 33 q 469 -8 505 -8 l 467 -8 q 404 98 420 -8 l 401 98 q 274 0 328 0 l 233 0 q 73 92 111 0 q 43 233 43 157 q 33 426 37 233 q 24 499 30 426 l 24 635 q 68 692 24 692 l 71 692 q 111 651 111 687 l 111 486 q 125 260 125 396 q 152 138 140 138 q 214 87 152 100 l 263 87 q 334 157 285 87 q 355 250 355 231 l 355 382 q 336 621 350 517 l 336 656 q 377 708 342 708 l 382 708 m 290 952 l 293 952 q 334 911 334 947 l 334 906 q 255 833 334 872 q 171 781 194 781 l 168 781 q 127 822 127 786 l 127 825 q 193 892 127 856 q 290 952 271 952 z "},"":{"ha":581,"x_min":24,"x_max":510,"o":"m 382 708 q 423 651 423 708 q 448 456 437 525 q 467 231 461 379 q 480 152 477 223 q 491 95 487 140 q 510 41 510 52 l 510 33 q 469 -8 505 -8 l 467 -8 q 404 98 420 -8 l 401 98 q 274 0 328 0 l 233 0 q 73 92 111 0 q 43 233 43 157 q 33 426 37 233 q 24 499 30 426 l 24 635 q 68 692 24 692 l 71 692 q 111 651 111 687 l 111 486 q 125 260 125 396 q 152 138 140 138 q 214 87 152 100 l 263 87 q 334 157 285 87 q 355 250 355 231 l 355 382 q 336 621 350 517 l 336 656 q 377 708 342 708 l 382 708 m 228 949 q 296 895 260 949 q 355 857 325 872 q 380 817 380 839 l 380 811 q 339 770 375 770 l 331 770 q 296 789 309 770 q 220 846 286 789 q 111 776 133 776 l 109 776 q 68 817 68 781 l 68 819 q 141 895 68 850 q 228 949 195 941 z "},"":{"ha":581,"x_min":24,"x_max":510,"o":"m 382 708 q 423 651 423 708 q 448 456 437 525 q 467 231 461 379 q 480 152 477 223 q 491 95 487 140 q 510 41 510 52 l 510 33 q 469 -8 505 -8 l 467 -8 q 404 98 420 -8 l 401 98 q 274 0 328 0 l 233 0 q 73 92 111 0 q 43 233 43 157 q 33 426 37 233 q 24 499 30 426 l 24 635 q 68 692 24 692 l 71 692 q 111 651 111 687 l 111 486 q 125 260 125 396 q 152 138 140 138 q 214 87 152 100 l 263 87 q 334 157 285 87 q 355 250 355 231 l 355 382 q 336 621 350 517 l 336 656 q 377 708 342 708 l 382 708 m 334 890 q 380 846 380 882 l 380 825 q 331 781 380 791 l 312 781 q 269 830 274 781 l 269 833 q 320 884 275 884 q 334 890 334 887 m 119 884 q 187 838 187 884 l 187 833 q 141 784 180 784 l 125 784 q 76 838 83 784 q 119 884 83 884 z "},"":{"ha":589,"x_min":14,"x_max":488,"o":"m 445 654 l 448 654 q 488 613 488 649 l 488 608 q 426 420 453 486 q 374 236 426 409 q 342 109 374 230 q 298 -106 328 12 q 241 -239 282 -198 q 168 -271 208 -271 l 133 -271 q 81 -241 109 -271 q 60 -190 60 -202 l 60 -187 q 100 -144 60 -155 q 152 -184 133 -144 l 160 -184 q 214 -73 199 -184 q 250 92 250 47 q 255 117 252 98 q 171 274 171 250 q 149 336 161 288 q 106 418 119 381 q 19 572 75 464 q 14 583 19 576 l 14 600 q 54 640 18 640 l 57 640 q 119 570 92 640 q 190 445 156 498 q 233 361 190 438 q 282 239 242 317 q 307 320 289 243 q 347 467 336 403 q 404 629 361 487 q 445 654 424 654 m 293 909 q 339 865 339 901 l 339 863 q 290 806 339 834 q 190 730 211 730 l 184 730 q 144 770 144 734 l 144 773 q 217 857 144 803 q 293 909 270 905 z "},"":{"ha":479,"x_min":9,"x_max":414,"o":"m 64 958 l 66 958 q 107 920 107 952 q 110 697 107 888 l 113 697 q 186 722 128 713 q 300 694 271 714 q 370 608 357 654 q 414 472 414 517 l 414 437 q 368 317 414 380 q 210 220 270 220 q 178 214 210 214 l 164 214 q 104 231 140 214 l 104 149 q 75 3 104 3 q 56 -3 75 -3 l 53 -3 q 9 43 17 -3 q 18 168 18 111 l 18 288 q 23 711 18 395 q 20 911 23 737 q 64 958 28 958 m 107 575 l 107 331 q 148 307 123 331 q 172 301 160 307 q 256 336 212 301 q 316 399 290 358 q 327 431 327 420 l 327 458 q 278 600 327 504 q 191 635 238 635 q 110 589 168 633 l 107 575 z "},"":{"ha":589,"x_min":14,"x_max":488,"o":"m 445 654 l 448 654 q 488 613 488 649 l 488 608 q 426 420 453 486 q 374 236 426 409 q 342 109 374 230 q 298 -106 328 12 q 241 -239 282 -198 q 168 -271 208 -271 l 133 -271 q 81 -241 109 -271 q 60 -190 60 -202 l 60 -187 q 100 -144 60 -155 q 152 -184 133 -144 l 160 -184 q 214 -73 199 -184 q 250 92 250 47 q 255 117 252 98 q 171 274 171 250 q 149 336 161 288 q 106 418 119 381 q 19 572 75 464 q 14 583 19 576 l 14 600 q 54 640 18 640 l 57 640 q 119 570 92 640 q 190 445 156 498 q 233 361 190 438 q 282 239 242 317 q 307 320 289 243 q 347 467 336 403 q 404 629 361 487 q 445 654 424 654 m 130 860 q 184 806 184 846 l 184 800 q 133 746 172 746 l 127 746 q 79 798 88 746 q 130 860 79 844 m 353 849 l 355 849 q 412 800 412 838 l 412 773 q 372 732 408 732 l 363 732 q 309 803 319 732 q 353 849 317 849 z "},"":{"ha":182,"x_min":8,"x_max":117,"o":"m 52 681 l 54 681 q 95 640 95 676 q 103 562 103 602 l 103 488 q 111 334 103 468 l 111 323 q 117 46 111 206 q 76 14 106 14 l 73 14 q 30 54 41 14 q 24 312 24 177 l 24 334 q 16 488 16 468 l 16 562 q 8 637 16 606 q 52 681 17 681 z "},"":{"ha":399,"x_min":22,"x_max":311,"o":"m 141 1150 q 252 1102 194 1150 q 300 1049 256 1086 q 311 1021 311 1034 l 311 1019 q 273 981 306 981 l 267 981 q 184 1054 237 981 q 159 1064 178 1054 q 83 988 153 1061 q 62 983 73 983 l 60 983 q 22 1021 22 987 l 22 1023 q 75 1097 22 1049 q 111 1133 75 1101 q 141 1150 111 1139 z "},"":{"ha":413,"x_min":16,"x_max":331,"o":"m 57 1147 l 60 1147 q 174 1063 88 1147 q 269 1137 256 1124 q 285 1142 285 1139 q 331 1099 331 1135 l 331 1093 q 255 1017 331 1061 q 168 963 191 963 l 163 963 q 87 1025 137 963 q 16 1104 16 1075 l 16 1107 q 57 1147 21 1147 z "},"":{"ha":413,"x_min":33,"x_max":353,"o":"m 87 1118 q 282 1107 251 1107 q 345 1082 333 1092 q 353 1055 353 1065 l 353 1053 q 312 1012 348 1012 l 298 1012 q 258 1023 273 1012 l 201 1023 q 68 1031 114 1031 q 33 1072 39 1031 l 33 1074 q 87 1118 33 1118 z "},"":{"ha":413,"x_min":38,"x_max":336,"o":"m 290 1150 q 336 1107 336 1143 l 336 1101 q 274 998 336 1049 q 247 987 253 987 l 182 987 q 95 1017 140 987 q 38 1096 38 1070 l 38 1099 q 79 1139 43 1139 l 81 1139 q 155 1085 104 1139 q 201 1074 169 1074 l 220 1074 q 255 1128 243 1074 q 290 1150 264 1143 z "},"":{"ha":280,"x_min":90,"x_max":187,"o":"m 136 1120 q 187 1072 187 1109 l 187 1058 q 141 1015 187 1021 l 133 1015 q 90 1063 95 1015 l 90 1066 q 136 1120 90 1108 z "},"":{"ha":397,"x_min":3,"x_max":307,"o":"m 174 1150 q 260 1120 260 1137 q 307 1050 279 1118 l 307 985 q 236 871 307 938 q 163 854 212 854 l 130 854 q 60 884 91 859 q 3 993 3 935 q 62 1104 3 1053 q 174 1150 142 1150 m 90 987 q 152 941 111 941 l 168 941 q 220 998 202 941 l 220 1031 q 198 1055 212 1055 q 176 1063 178 1055 q 98 1012 98 1028 q 90 987 90 994 z "},"":{"ha":405,"x_min":81,"x_max":320,"o":"m 187 49 l 190 49 q 231 8 231 44 l 231 5 q 182 -71 231 -17 q 168 -111 168 -102 q 222 -136 184 -136 q 250 -100 229 -136 q 277 -92 267 -92 l 279 -92 q 320 -133 320 -97 l 320 -138 q 241 -222 320 -197 l 228 -222 q 109 -184 158 -222 q 84 -144 109 -180 q 81 -109 81 -121 q 165 43 81 -37 q 187 49 176 49 z "},"":{"ha":479,"x_min":14,"x_max":415,"o":"m 160 1142 q 220 1123 200 1142 q 277 1080 239 1118 l 312 1080 q 347 1128 339 1123 q 369 1137 369 1135 q 415 1093 415 1129 l 415 1088 q 366 1009 415 1064 q 293 993 354 993 l 271 993 q 195 1036 227 993 q 160 1055 165 1055 q 95 1012 127 1055 q 57 993 75 993 l 54 993 q 14 1034 14 998 l 14 1036 q 81 1123 14 1065 q 160 1142 117 1142 z "},"":{"ha":491,"x_min":16,"x_max":407,"o":"m 138 1145 l 141 1145 q 182 1104 182 1140 l 182 1101 q 119 1017 182 1075 q 62 971 91 971 l 57 971 q 16 1012 16 976 l 16 1015 q 62 1085 16 1034 q 138 1145 112 1145 m 363 1131 l 366 1131 q 407 1090 407 1126 l 407 1088 q 331 985 407 1061 q 282 949 309 949 l 279 949 q 236 990 247 949 l 236 993 q 323 1107 236 1017 q 363 1131 339 1131 z "},"":{"ha":548,"x_min":0,"x_max":467,"o":"m 415 453 q 467 412 467 448 l 467 407 q 431 366 460 366 q 103 355 395 366 q 5 382 5 355 q 0 401 1 382 l 0 404 q 35 445 7 445 q 109 442 58 445 q 415 453 389 453 z "},"":{"ha":1080,"x_min":5,"x_max":996,"o":"m 567 464 q 681 458 653 458 l 836 458 q 903 461 863 458 q 990 434 990 458 q 996 415 996 434 l 996 412 q 955 372 991 372 l 952 372 q 903 374 909 372 q 836 372 863 372 l 681 372 q 564 377 656 372 q 393 366 437 366 l 345 366 q 146 369 252 366 q 41 366 117 366 q 5 407 12 366 l 5 410 q 54 453 5 448 q 144 456 115 453 q 345 453 254 453 l 393 453 q 567 464 436 453 z "},"":{"ha":201,"x_min":19,"x_max":119,"o":"m 76 963 l 79 963 q 119 922 119 958 q 100 776 114 781 q 65 754 91 754 l 62 754 q 19 800 26 754 q 35 933 27 817 q 76 963 49 963 z "},"":{"ha":254,"x_min":19,"x_max":160,"o":"m 119 958 q 160 917 155 958 l 160 906 q 149 871 149 873 q 109 770 115 795 q 65 732 97 732 l 60 732 q 19 773 24 732 l 19 787 q 27 817 19 794 q 60 884 43 842 q 117 958 78 958 l 119 958 z "},"":{"ha":235,"x_min":11,"x_max":146,"o":"m 103 100 l 106 100 q 146 60 146 96 q 119 -35 146 35 q 76 -119 99 -119 q 57 -125 76 -125 l 54 -125 q 11 -84 22 -125 l 11 -81 q 30 -33 11 -73 q 54 43 30 -24 q 103 100 66 100 z "},"":{"ha":458,"x_min":22,"x_max":342,"o":"m 212 963 l 214 963 q 271 909 244 963 q 326 811 302 869 q 342 781 342 795 l 342 773 q 301 732 337 732 l 298 732 q 244 784 264 732 q 217 838 241 784 q 171 906 214 840 l 171 922 q 212 963 176 963 m 62 949 l 65 949 q 125 860 107 949 q 176 770 176 791 l 176 762 q 136 722 172 722 l 133 722 q 81 773 100 722 q 22 898 43 817 l 22 909 q 62 949 26 949 z "},"":{"ha":397,"x_min":4,"x_max":313,"o":"m 118 955 l 121 955 q 161 914 161 950 l 161 909 q 94 741 161 892 q 50 711 75 711 l 45 711 q 4 751 4 715 l 4 754 q 34 819 4 766 q 99 952 81 946 l 118 955 m 270 939 l 273 939 q 313 898 313 934 l 313 892 q 259 751 313 883 q 210 692 247 692 l 208 692 q 164 738 172 692 q 229 909 164 760 q 270 939 241 939 z "},"":{"ha":348,"x_min":22,"x_max":269,"o":"m 225 103 l 228 103 q 269 62 269 98 l 269 46 q 247 -111 269 -111 q 222 -119 237 -119 l 220 -119 q 176 -76 176 -112 q 182 46 182 1 q 225 103 182 103 m 71 98 l 73 98 q 114 57 114 93 q 109 -68 109 -39 l 109 -76 q 68 -117 104 -117 l 65 -117 q 22 -60 22 -117 q 52 92 22 92 q 71 98 52 97 z "},"":{"ha":540,"x_min":8,"x_max":480,"o":"m 236 963 l 239 963 q 279 922 279 958 l 279 865 q 263 675 263 712 q 347 667 276 675 q 429 675 390 667 q 480 635 480 670 l 480 629 q 426 583 480 592 l 339 581 l 260 589 l 260 586 q 252 290 252 472 l 252 155 q 260 68 252 144 q 220 30 260 35 l 217 30 q 168 122 168 30 q 165 157 165 122 l 165 274 q 174 589 165 487 l 152 589 q 14 621 14 593 q 8 640 9 621 l 8 643 q 49 684 13 684 q 152 675 136 675 l 176 675 q 193 884 176 691 l 193 906 q 236 963 193 963 z "},"":{"ha":519,"x_min":-3,"x_max":431,"o":"m 198 966 l 201 966 q 241 925 241 961 l 241 838 q 247 722 247 730 l 247 692 q 271 694 256 692 q 320 692 304 692 q 374 697 359 697 l 391 697 q 431 656 431 692 l 431 651 q 374 610 431 610 q 331 605 335 605 q 269 608 305 605 l 252 605 q 255 320 255 416 l 255 312 l 260 312 q 320 317 272 312 q 393 296 362 317 q 401 269 401 278 l 401 266 q 361 225 397 225 l 353 225 q 323 231 334 225 q 255 222 255 224 q 258 43 255 169 q 217 11 247 11 l 209 11 q 168 43 179 11 q 171 73 168 58 q 168 187 168 136 l 168 222 l 54 222 q 14 263 14 227 l 14 266 q 71 309 14 309 l 168 309 l 168 320 q 165 605 168 416 l 38 605 q -3 646 -3 610 l -3 648 q 54 692 -3 692 l 160 692 l 160 722 q 155 838 160 730 l 155 909 q 198 966 155 966 z "},"":{"ha":292,"x_min":10,"x_max":227,"o":"m 113 543 q 205 491 159 543 q 227 437 227 459 l 227 415 q 192 355 211 355 q 149 331 172 331 l 108 331 q 21 385 67 331 q 10 431 10 397 q 40 505 14 468 q 113 543 75 543 z "},"":{"ha":667,"x_min":14,"x_max":518,"o":"m 453 106 q 518 49 518 90 l 518 41 q 477 0 513 0 l 469 0 q 420 30 444 0 q 410 57 415 37 q 453 106 410 93 m 62 100 q 125 49 125 92 l 125 38 q 84 -3 120 -3 l 65 -3 q 14 49 26 -3 l 14 52 q 62 100 22 100 m 263 100 q 315 60 315 95 l 315 38 q 274 -3 310 -3 l 260 -3 q 212 52 219 -3 q 263 100 212 94 z "},"":{"ha":397,"x_min":5,"x_max":317,"o":"m 236 643 l 239 643 q 279 602 279 638 l 279 597 q 239 537 279 574 q 190 477 239 528 q 106 369 189 471 q 201 260 128 350 q 258 193 222 250 q 317 127 317 142 l 317 117 q 277 76 313 76 l 271 76 q 176 155 239 76 q 130 209 176 166 q 14 339 58 295 q 5 363 5 349 l 5 366 q 52 442 5 393 q 138 553 104 506 q 184 610 168 578 q 203 629 189 610 q 236 643 220 643 z "},"":{"ha":356,"x_min":33,"x_max":288,"o":"m 73 659 l 76 659 q 187 537 117 659 q 285 377 242 439 q 288 363 288 372 l 288 353 q 222 244 288 342 q 174 174 202 205 q 152 130 174 167 q 98 54 120 54 l 84 54 q 43 95 43 59 l 43 98 q 109 231 53 141 q 190 353 130 258 q 157 412 190 364 l 100 515 l 41 591 q 33 616 33 602 l 33 618 q 73 659 37 659 z "},"":{"ha":926,"x_min":5,"x_max":849,"o":"m 803 876 q 849 833 849 869 l 849 830 q 779 751 849 800 q 326 301 520 489 q 146 117 232 199 q 68 27 146 105 l 49 24 l 46 24 q 5 65 5 29 l 5 68 q 81 168 5 96 q 231 328 81 176 q 412 510 231 333 q 675 773 417 510 q 768 863 768 857 q 803 876 779 871 z "},"":{"ha":583,"x_min":3,"x_max":524,"o":"m 206 966 l 209 966 q 486 955 324 955 q 524 914 518 955 l 524 911 q 464 868 524 868 q 203 879 314 868 l 195 879 l 195 846 q 206 618 206 766 l 206 589 l 209 575 l 282 575 q 345 532 345 575 l 345 529 q 298 480 345 495 l 288 480 q 263 488 273 480 l 209 488 q 212 429 212 448 l 212 350 q 206 307 206 311 l 206 241 q 201 119 206 168 q 203 52 203 92 l 203 46 q 163 5 199 5 l 160 5 q 117 68 117 5 q 114 111 117 72 q 119 255 119 182 l 119 304 q 125 369 125 365 l 125 437 q 122 483 125 451 l 119 483 q 16 499 16 485 q 3 529 3 509 l 3 532 q 43 572 7 572 q 122 570 52 572 l 119 597 l 119 618 q 109 846 119 766 l 109 901 q 165 960 109 960 q 206 966 165 965 z "},"":{"ha":602,"x_min":8,"x_max":534,"o":"m 252 968 q 401 947 366 968 q 488 857 488 891 l 488 854 q 448 814 484 814 l 445 814 q 366 865 422 814 q 252 882 340 882 q 187 806 202 840 q 171 722 171 741 q 198 597 171 677 l 274 597 q 342 608 304 597 q 388 564 388 600 l 388 562 q 326 513 388 523 q 250 510 284 510 l 222 510 l 231 469 l 231 423 q 336 434 306 429 q 388 393 388 429 l 388 388 q 331 347 388 347 q 239 336 290 339 l 239 293 q 214 144 239 275 l 201 95 l 203 95 q 363 98 310 98 l 418 98 l 483 114 q 534 65 534 103 l 534 62 q 491 19 528 19 l 486 19 q 475 22 479 19 q 423 11 451 11 l 391 11 q 146 -3 146 11 l 117 -3 q 76 38 76 2 l 76 41 q 109 100 76 60 q 152 285 127 141 l 152 334 l 71 334 q 30 374 30 338 l 30 377 q 87 420 30 420 l 144 420 l 144 461 q 130 505 144 475 q 43 499 58 499 q 8 540 15 499 l 8 543 q 95 589 8 589 l 109 591 q 84 724 84 664 q 109 849 84 751 q 236 966 186 966 q 252 968 250 968 z "},"":{"ha":1090,"x_min":22,"x_max":1004,"o":"m 190 960 q 429 814 363 960 q 439 770 439 795 l 439 768 q 418 632 439 659 q 320 532 377 563 q 209 469 294 499 q 138 456 163 464 l 117 456 q 111 450 111 455 q 109 282 109 338 l 122 87 l 122 76 q 81 35 117 35 l 79 35 q 33 122 33 35 l 22 266 q 27 817 27 682 q 43 939 33 939 q 76 955 54 955 q 98 952 83 955 q 190 960 159 960 m 117 868 q 114 814 114 831 l 114 705 q 111 543 114 651 l 117 543 q 187 553 145 551 q 328 654 249 574 l 350 689 q 353 765 353 736 q 279 854 353 806 q 225 871 243 871 q 187 873 208 873 q 117 868 170 873 m 453 578 l 456 578 q 496 537 496 573 l 496 429 q 559 437 549 432 q 613 391 613 431 l 613 388 q 572 347 608 347 q 494 339 543 347 l 494 293 q 488 138 494 258 q 529 84 492 84 l 548 84 q 572 152 554 87 q 608 171 586 171 l 610 171 q 651 130 651 166 l 651 127 q 613 16 651 84 q 586 -3 587 -3 l 521 -3 q 410 87 439 -3 q 401 146 401 138 q 407 293 407 248 l 407 331 q 363 369 363 335 l 363 374 q 410 418 363 410 l 410 521 q 453 578 410 578 m 854 564 q 963 524 963 548 q 968 505 968 524 l 968 502 q 928 461 964 461 l 925 461 q 854 477 905 461 q 806 429 806 437 l 806 388 q 852 358 806 365 q 958 315 922 346 q 1004 209 1004 270 l 1004 190 q 974 106 1004 142 q 903 30 954 69 q 849 14 894 22 l 825 14 q 703 100 736 14 q 700 119 700 104 q 741 160 700 149 q 795 111 774 160 q 819 100 809 100 l 833 100 q 917 182 876 100 l 917 190 q 890 255 917 243 q 779 288 875 263 q 724 355 724 324 q 719 396 720 355 l 719 418 q 800 545 719 490 q 854 564 817 564 z "},"":{"ha":616,"x_min":14,"x_max":521,"o":"m 307 982 q 486 890 442 982 q 494 838 494 873 l 494 795 q 453 754 489 754 l 450 754 q 407 811 407 754 l 407 846 q 342 892 407 874 l 312 892 q 244 838 275 880 q 209 751 216 808 q 195 600 195 684 q 393 597 355 597 q 448 553 448 597 l 448 551 q 407 510 443 510 l 404 510 q 198 513 357 510 l 198 510 q 203 448 198 479 q 320 453 239 453 l 328 453 q 393 458 332 453 q 450 415 450 458 l 450 412 q 407 369 444 369 q 385 372 396 369 q 212 363 368 366 l 214 336 q 222 146 214 218 l 222 117 q 298 76 242 76 q 334 71 327 71 q 434 195 434 71 q 431 241 434 204 q 475 277 431 264 q 521 233 521 269 l 521 206 q 502 90 513 90 q 407 -8 478 30 q 328 -16 345 -16 l 315 -16 q 285 -11 288 -11 l 258 -11 q 190 19 226 -5 q 136 109 136 71 q 127 320 127 265 l 125 358 l 71 358 q 14 401 14 358 l 14 404 q 54 445 18 445 l 117 445 q 111 505 111 486 l 62 505 q 22 545 22 509 l 22 548 q 79 591 22 591 l 109 591 q 144 849 109 744 q 252 960 216 953 q 307 982 284 982 z "},"":{"ha":1199,"x_min":41,"x_max":1059,"o":"m 548 968 l 551 968 q 591 928 591 964 l 591 920 q 572 716 591 790 q 548 559 564 600 q 521 391 540 525 l 521 282 q 505 81 511 81 q 461 35 497 35 l 456 35 q 404 87 420 35 q 366 182 400 91 q 326 282 344 246 q 282 393 307 303 q 222 551 252 446 q 157 686 209 587 l 155 686 l 155 681 q 133 176 155 555 q 111 22 133 22 q 87 14 101 14 l 84 14 q 41 54 52 14 q 43 57 41 57 q 62 488 43 159 q 68 689 68 631 q 60 857 68 762 l 60 890 q 103 947 60 947 l 106 947 q 149 898 143 947 q 293 613 199 793 q 350 448 331 494 q 393 331 362 435 q 431 255 431 278 l 434 255 l 434 391 q 469 600 456 551 q 494 779 477 620 q 505 922 505 779 l 505 930 q 529 966 505 945 l 548 968 m 768 573 l 833 573 q 888 562 854 573 q 996 524 941 562 q 1042 424 1019 500 l 1042 372 q 1007 277 1042 321 q 839 180 935 180 l 790 180 q 679 242 753 184 q 630 405 630 277 q 671 497 630 458 q 768 573 700 547 m 717 402 q 747 302 717 311 q 823 267 784 267 l 847 267 q 947 342 913 286 q 956 367 956 362 l 956 402 q 942 443 956 412 q 899 473 942 465 q 833 486 855 473 l 793 486 q 720 416 765 486 q 717 402 717 411 m 717 139 l 961 139 q 1053 109 1053 133 q 1059 90 1059 109 l 1059 85 q 1018 44 1054 44 l 1015 44 l 950 52 l 701 52 q 660 93 660 57 l 660 96 q 717 139 660 139 z "},"":{"ha":885,"x_min":19,"x_max":814,"o":"m 76 966 l 231 966 q 334 958 283 966 l 366 960 q 404 917 395 960 l 404 911 q 363 871 399 871 l 331 871 q 250 879 266 879 l 250 876 q 260 675 258 838 l 269 637 l 269 627 q 228 586 264 586 l 225 586 q 176 648 176 593 q 168 849 171 712 q 163 879 165 849 l 60 879 q 19 920 19 884 l 19 922 q 76 966 19 966 m 537 963 q 600 890 579 963 l 637 836 q 689 906 652 873 q 754 955 730 955 l 757 955 q 798 898 798 955 q 808 659 806 834 l 812 637 l 814 605 q 773 564 809 564 l 770 564 q 727 627 727 564 q 719 732 719 686 l 719 800 q 692 762 715 800 q 673 730 684 758 q 635 708 656 708 l 629 708 q 583 749 597 708 q 553 806 578 749 q 543 819 545 819 l 540 819 q 505 692 505 703 q 475 581 500 581 q 456 575 475 575 l 453 575 q 412 621 420 575 q 472 882 412 736 q 507 949 472 903 q 537 963 515 956 z "},"":{"ha":688,"x_min":35,"x_max":572,"o":"m 181 903 q 390 829 267 903 q 496 715 487 744 q 553 534 553 593 q 572 368 572 505 l 572 336 q 545 211 572 269 q 450 78 501 119 q 292 21 372 21 l 211 21 q 94 94 106 58 q 48 219 48 161 q 100 379 48 328 q 197 479 120 419 q 382 539 275 539 l 404 539 q 466 531 439 539 q 401 702 466 587 q 322 770 361 734 q 192 816 248 803 l 157 816 q 83 791 91 791 l 75 791 q 35 832 35 796 l 35 835 q 154 903 35 884 l 181 903 m 135 224 l 135 219 q 176 132 135 184 q 241 108 229 108 l 257 108 q 366 130 334 108 q 428 184 402 145 q 485 333 485 268 l 485 428 q 458 441 479 428 q 414 452 420 452 l 374 452 q 143 290 248 452 q 135 224 135 254 z "},"":{"ha":733,"x_min":14,"x_max":597,"o":"m 260 689 l 263 689 q 328 621 294 689 q 380 529 350 592 q 410 467 410 494 q 448 366 444 408 q 578 119 509 217 q 597 84 597 106 l 597 79 q 556 38 592 38 l 461 38 q 388 33 395 33 l 290 33 q 203 38 210 38 q 125 24 157 33 l 57 24 q 14 65 24 24 l 14 68 q 43 144 14 77 q 79 236 64 189 q 119 369 103 271 l 190 591 q 244 686 226 683 l 260 689 m 269 548 q 182 247 203 361 q 127 117 153 186 l 130 117 l 209 125 q 290 119 278 119 l 382 119 q 448 125 387 119 l 469 125 l 469 127 q 350 396 370 297 q 323 461 323 437 q 271 548 294 498 l 269 548 z "},"":{"ha":714,"x_min":30,"x_max":621,"o":"m 477 700 l 545 700 q 605 675 589 700 l 621 532 l 621 269 q 602 8 608 8 q 567 -11 589 -11 l 564 -11 q 521 46 521 -11 q 534 269 534 241 l 534 532 q 521 613 528 613 l 472 613 q 391 600 437 605 l 342 600 q 203 605 217 605 l 122 605 q 125 499 122 541 l 119 57 q 76 8 114 8 l 73 8 q 30 49 41 8 q 33 52 30 52 l 38 480 q 35 635 35 533 q 127 692 35 692 l 203 692 q 342 686 217 692 l 374 686 l 477 700 z "},"":{"ha":818,"x_min":5,"x_max":694,"o":"m 621 947 q 662 906 662 942 l 662 903 q 589 860 662 860 q 418 830 532 860 q 277 808 317 808 q 193 795 225 795 l 179 795 q 317 673 187 783 l 377 621 q 477 545 402 598 q 548 420 541 463 l 548 415 q 480 361 548 376 q 366 285 407 321 q 277 214 345 263 l 174 133 q 269 136 237 136 l 315 136 q 548 152 412 149 q 656 141 582 144 q 694 92 694 118 l 694 90 q 654 49 690 49 l 643 49 q 618 57 629 49 l 602 57 q 548 65 568 57 q 336 49 420 65 l 304 49 q 81 41 205 49 l 46 41 q 5 81 5 45 l 5 84 q 79 163 5 119 q 152 225 107 201 q 288 331 203 275 q 442 439 360 399 q 345 532 429 481 q 119 727 303 570 q 52 825 52 797 q 141 879 52 879 q 187 882 147 882 l 198 882 q 334 901 268 898 q 434 922 337 905 q 564 947 434 928 l 621 947 z "},"":{"ha":591,"x_min":16,"x_max":505,"o":"m 309 464 q 345 458 325 458 q 453 461 445 461 q 505 420 505 456 l 505 415 q 467 372 505 383 q 434 374 453 372 q 345 372 374 372 q 309 377 325 372 q 222 372 281 372 l 220 372 q 155 374 176 372 q 90 372 134 372 l 57 372 q 16 412 16 376 l 16 415 q 73 458 16 458 l 90 458 q 152 461 133 458 q 220 458 179 458 l 222 458 q 309 464 281 458 z "},"":{"ha":591,"x_min":19,"x_max":529,"o":"m 448 949 l 450 949 q 526 914 526 949 q 529 903 529 914 l 529 901 q 494 860 522 860 q 437 863 446 863 q 277 846 349 852 l 277 827 q 274 789 277 812 q 282 637 282 778 q 271 442 271 495 l 271 412 q 263 269 263 323 q 266 54 263 195 q 236 -35 266 -35 q 222 -38 231 -38 l 220 -38 q 163 14 184 -38 q 90 130 139 39 q 22 231 52 189 l 19 247 l 19 250 q 60 290 24 290 l 62 290 q 165 171 102 290 q 174 157 172 171 l 176 157 l 176 258 q 184 412 176 326 l 184 442 q 195 651 184 482 q 187 792 195 739 q 190 822 187 804 l 184 887 q 233 933 184 923 q 448 949 301 933 z "},"":{"ha":688,"x_min":7,"x_max":598,"o":"m 191 598 q 264 538 225 598 q 313 479 313 489 q 468 576 407 576 l 481 576 q 563 536 549 576 q 598 438 598 482 l 598 378 q 528 275 581 310 q 490 262 496 262 l 476 262 q 305 346 397 262 q 164 267 200 267 l 145 267 q 18 362 71 267 q 7 403 12 374 q 31 492 14 471 q 107 574 85 569 q 191 598 121 579 m 94 403 q 120 363 102 378 q 145 354 137 354 q 251 419 188 361 q 178 503 184 503 q 119 478 132 494 q 94 403 94 443 m 370 408 q 473 349 416 361 q 509 392 509 366 q 511 400 511 392 l 511 433 q 492 490 511 447 l 476 490 q 370 408 444 490 z "},"":{"ha":326,"x_min":-1,"x_max":245,"o":"m 123 1082 q 229 1055 229 1065 q 245 1023 245 1044 l 245 1020 q 205 979 241 979 l 202 979 q 129 993 193 979 q 102 949 102 981 q 96 852 99 947 q 126 727 96 846 q 142 654 142 694 q 167 562 153 629 q 229 233 229 327 q 235 62 235 118 q 180 -76 235 -5 q 107 -119 140 -119 l 69 -119 q 9 -76 52 -119 q -1 -49 4 -68 q 42 -5 7 -5 l 45 -5 q 94 -33 63 -5 q 137 27 137 -4 q 148 71 145 35 q 115 401 148 292 l 94 502 q 47 694 56 635 q 26 773 34 725 q 9 865 17 779 q 56 1050 9 1019 q 123 1082 92 1082 z "},"":{"ha":708,"x_min":1,"x_max":642,"o":"m 229 564 q 362 532 332 555 q 444 496 418 496 l 452 496 q 536 515 536 496 q 587 545 564 545 q 633 502 633 538 l 633 499 q 601 456 633 471 q 484 410 570 410 l 435 410 q 294 467 389 410 q 232 477 243 477 q 107 442 107 460 q 45 407 64 407 l 42 407 q 1 448 1 412 l 1 450 q 85 534 1 484 q 229 564 85 545 m 205 339 q 338 309 338 325 q 438 285 377 285 l 452 285 q 571 328 529 285 q 593 334 579 328 q 642 290 642 328 l 642 288 q 595 239 642 256 q 506 203 557 203 q 492 198 506 198 l 403 198 q 327 214 347 207 q 210 252 271 252 q 66 206 155 252 l 53 206 q 12 247 12 211 l 12 250 q 180 339 12 304 l 205 339 z "},"":{"ha":648,"x_min":14,"x_max":562,"o":"m 458 730 l 469 730 q 510 689 510 725 l 510 686 q 431 616 510 652 q 258 475 342 534 q 155 391 199 415 l 141 374 q 244 347 174 363 q 391 296 352 296 q 461 266 454 266 q 510 241 461 258 q 540 231 510 238 q 562 193 562 214 l 562 187 q 521 146 557 146 l 513 146 q 410 190 491 146 q 339 217 351 217 q 233 255 313 218 q 125 285 193 274 q 62 307 124 288 q 14 363 14 337 l 14 366 q 68 431 14 397 q 149 491 96 459 q 236 570 161 509 q 396 697 290 608 q 458 730 452 730 m 382 119 l 407 117 q 486 119 455 119 q 540 76 540 119 l 540 73 q 499 33 535 33 q 399 30 478 33 q 377 33 380 33 q 171 8 239 8 q 79 5 151 5 l 73 5 q 33 46 33 10 l 33 49 q 90 92 33 92 q 358 117 236 92 l 382 119 z "},"":{"ha":656,"x_min":22,"x_max":581,"o":"m 87 854 l 90 854 q 187 789 112 854 q 355 665 251 750 q 423 572 402 605 q 502 488 475 529 q 562 429 502 485 q 570 404 570 418 l 570 396 q 491 334 570 358 q 404 266 438 298 q 334 222 368 237 l 236 168 q 125 122 180 138 q 90 106 109 106 l 76 106 q 35 146 35 111 l 35 149 q 73 193 35 180 q 141 220 86 205 q 282 296 210 254 q 399 377 320 307 l 453 410 l 396 480 q 326 559 358 506 q 206 670 297 608 q 54 787 113 733 q 46 811 46 797 l 46 814 q 87 854 51 854 m 464 125 l 505 119 q 532 125 527 122 q 581 81 581 119 l 581 79 q 515 33 581 33 l 496 33 q 461 38 473 33 q 353 24 380 24 q 258 27 312 24 l 57 8 q 22 49 28 8 l 22 52 q 109 98 22 98 q 260 114 178 109 q 363 111 317 111 q 464 125 413 119 z "},"":{"ha":743,"x_min":3,"x_max":689,"o":"m 518 993 q 648 966 648 993 q 654 947 654 966 l 654 944 q 613 903 649 903 l 610 903 q 515 906 579 903 q 407 882 472 892 l 407 779 q 426 654 415 747 q 431 600 431 654 l 431 589 l 429 556 l 431 556 q 632 562 484 556 q 684 521 684 556 l 684 515 q 643 475 679 475 q 431 469 465 469 l 431 467 q 429 198 429 260 q 456 95 429 95 q 486 84 467 84 l 556 84 q 654 98 594 92 q 689 57 682 98 l 689 52 q 602 5 689 5 q 548 -3 602 -1 l 475 -3 q 363 62 412 -3 q 239 -3 275 -1 l 187 -3 q 81 76 112 -3 q 52 127 77 77 q 30 231 38 161 q 5 420 14 256 q 3 469 3 420 l 3 591 q 14 741 11 668 q 43 868 24 825 q 95 930 83 930 q 179 963 95 939 q 217 974 179 971 q 328 917 276 974 q 404 968 342 968 q 518 993 477 988 m 90 583 l 90 456 q 98 369 90 421 l 98 339 q 130 165 98 311 q 179 87 169 91 q 203 84 194 84 l 222 84 q 323 182 323 117 q 342 363 342 240 l 342 467 q 339 521 342 491 q 345 616 345 562 q 309 803 331 735 q 222 884 245 884 q 220 887 222 887 q 141 857 206 879 q 100 741 113 824 q 90 583 98 661 z "},"":{"ha":954,"x_min":0,"x_max":871,"o":"m 233 684 l 263 684 q 439 597 378 684 q 581 643 498 643 q 610 648 581 647 q 833 559 782 648 q 871 434 871 525 l 871 396 q 798 353 871 353 l 784 353 q 562 372 608 363 l 491 372 q 448 179 491 293 q 496 125 475 125 q 575 92 539 92 l 618 92 q 678 117 638 92 q 741 193 734 161 q 776 214 750 207 q 822 171 822 207 l 822 165 q 779 87 822 144 q 662 14 695 14 q 629 5 662 7 l 578 5 q 412 71 504 5 q 396 95 412 77 q 247 14 323 25 q 117 49 153 14 q 24 163 63 73 q 0 309 0 252 q 30 502 0 399 q 119 646 54 577 q 201 678 151 668 q 233 684 220 684 m 87 315 q 106 203 87 263 q 149 133 122 147 q 220 100 191 100 q 336 157 270 100 q 404 407 404 256 q 372 540 404 458 q 309 589 351 574 q 266 597 279 597 l 250 597 q 171 570 171 586 q 125 507 160 565 q 111 453 111 475 q 87 315 87 400 m 472 510 q 486 458 480 497 l 551 458 q 784 439 752 439 q 762 507 784 492 q 610 562 733 562 q 540 551 599 557 q 472 510 512 545 z "},"":{"ha":597,"x_min":-1,"x_max":503,"o":"m 457 974 q 503 930 503 966 l 503 925 l 479 846 q 444 779 479 830 q 376 589 430 749 l 305 461 q 308 361 308 393 l 308 146 q 316 30 316 53 q 275 -3 305 -3 l 270 -3 q 227 71 227 -3 q 221 127 227 82 l 221 336 q 218 477 221 379 q 164 572 187 517 q 126 662 155 581 q 53 789 126 679 q -1 906 23 831 l -1 917 q 39 958 3 958 l 42 958 q 104 871 82 958 q 194 732 147 798 q 262 570 213 667 l 264 570 q 354 798 297 612 q 406 909 399 863 q 457 971 420 971 l 457 974 m 109 1134 q 155 1090 155 1126 l 155 1074 q 114 1034 150 1034 l 95 1034 q 54 1080 67 1034 q 109 1134 54 1121 m 388 1123 l 391 1123 q 439 1074 439 1113 l 439 1066 q 399 1025 435 1025 l 385 1025 q 342 1066 353 1025 l 342 1069 q 388 1123 342 1116 z "},"":{"ha":597,"x_min":-1,"x_max":503,"o":"m 457 974 q 503 930 503 966 l 503 925 l 479 846 q 444 779 479 830 q 376 589 430 749 l 305 461 q 308 361 308 393 l 308 146 q 316 30 316 53 q 275 -3 305 -3 l 270 -3 q 227 71 227 -3 q 221 127 227 82 l 221 336 q 218 477 221 379 q 164 572 187 517 q 126 662 155 581 q 53 789 126 679 q -1 906 23 831 l -1 917 q 39 958 3 958 l 42 958 q 104 871 82 958 q 194 732 147 798 q 262 570 213 667 l 264 570 q 354 798 297 612 q 406 909 399 863 q 457 971 420 971 l 457 974 m 244 1153 l 247 1153 q 401 1053 294 1153 q 410 1028 410 1042 l 410 1023 q 369 982 405 982 l 366 982 q 296 1028 347 982 q 247 1061 280 1043 q 133 996 207 1042 q 114 987 123 987 l 103 987 q 62 1028 62 992 l 62 1031 q 141 1101 62 1065 q 244 1153 215 1153 z "},"":{"ha":589,"x_min":14,"x_max":488,"o":"m 445 654 l 448 654 q 488 613 488 649 l 488 608 q 426 420 453 486 q 374 236 426 409 q 342 109 374 230 q 298 -106 328 12 q 241 -239 282 -198 q 168 -271 208 -271 l 133 -271 q 81 -241 109 -271 q 60 -190 60 -202 l 60 -187 q 100 -144 60 -155 q 152 -184 133 -144 l 160 -184 q 214 -73 199 -184 q 250 92 250 47 q 255 117 252 98 q 171 274 171 250 q 149 336 161 288 q 106 418 119 381 q 19 572 75 464 q 14 583 19 576 l 14 600 q 54 640 18 640 l 57 640 q 119 570 92 640 q 190 445 156 498 q 233 361 190 438 q 282 239 242 317 q 307 320 289 243 q 347 467 336 403 q 404 629 361 487 q 445 654 424 654 m 225 920 q 315 849 254 920 q 380 789 346 819 q 388 765 388 779 l 388 760 q 347 719 383 719 l 342 719 q 239 803 312 719 l 228 811 q 152 738 222 810 l 133 735 l 130 735 q 90 776 90 740 l 90 779 q 187 895 90 812 q 225 920 187 910 z "}}}
